<svg width="24" height="16" viewBox="0 0 24 16" fill="none" xmlns="http://www.w3.org/2000/svg">
<g clip-path="url(#clip0_1518_1669)">
<path d="M12.3841 1.89553C15.8528 1.72042 19.0909 4.1587 19.9848 7.50155C20.2848 8.62414 20.2387 9.7052 20.2284 10.8575C20.999 10.535 21.6864 10.1558 22.5314 10.036C22.9326 9.97927 23.9743 9.78133 23.9991 10.3668C24.0239 10.9524 23.172 10.8146 22.7894 10.8645C21.864 10.9849 21.1077 11.4438 20.26 11.785C20.1052 11.9054 20.4651 12.7504 19.9325 12.8681C19.6469 12.9318 19.435 12.7788 19.4013 12.4909C19.287 11.515 19.4604 10.2914 19.4047 9.2754C19.2024 5.58373 16.3737 2.88039 12.7213 2.7212C12.6002 2.71567 12.4591 2.69698 12.3841 2.80149V5.70278C12.5155 5.81282 12.724 5.80313 12.8995 5.8585C14.7828 6.4544 16.3007 8.13413 16.4597 10.1585C16.5016 10.6901 16.534 12.0452 16.4576 12.538C16.395 12.9422 15.8204 13.0024 15.6739 12.6577C15.5617 12.3933 15.7193 11.6867 15.5851 11.5552C15.5287 11.5005 14.6796 11.1496 14.5399 11.1026C12.5444 10.4222 11.4648 11.0057 9.69915 11.7109C8.28375 12.2764 6.57659 12.2674 5.16118 11.7109C4.27767 11.3635 3.75059 11.0084 2.75285 10.8645C2.415 10.8153 1.61612 10.9531 1.60443 10.4188C1.58998 9.79102 2.66822 9.97858 3.06249 10.036C4.37056 10.2257 5.29054 11.041 6.58484 11.2147C8.12686 11.4216 8.79844 11.1205 10.1306 10.5378C11.8962 9.76541 13.8876 9.78341 15.636 10.5987C15.5713 8.7411 14.2536 6.95133 12.3848 6.66134V7.6199C12.3848 7.84068 11.8845 8.19918 11.665 8.24486C11.2859 8.32307 9.8698 8.30992 9.54296 8.14174C9.21611 7.97356 9.03721 7.60882 9.08193 7.23163L0.32182 7.19287C0.12709 7.07867 0.0679135 6.96102 0.0479588 6.74231C-0.105486 5.06604 0.169063 3.15584 0.049335 1.45466L0.257827 1.09407L8.95257 1.06708L9.05923 1.01863C9.07436 0.49402 9.32758 0.0808355 9.87943 0.0289279C10.2641 -0.00706136 11.4173 -0.0202113 11.7682 0.0538436C11.9926 0.100906 12.3848 0.461491 12.3848 0.678119V1.89553H12.3841ZM11.5584 7.38735V0.937657L11.4813 0.860142H9.98471L9.90765 0.937657V7.38735H11.5591H11.5584ZM9.08125 1.89553H0.927342V6.35058H9.08125V1.89553Z" fill="black"/>
<path d="M1.89366 13.8746C2.07256 13.8344 2.50881 13.8497 2.70767 13.8642C4.33983 13.9826 5.45523 15.0913 7.1445 15.1612C8.77597 15.2283 9.38011 14.6705 10.7577 14.1736C11.9949 13.7272 13.6408 13.7355 14.8745 14.1881C16.4647 14.7716 17.128 15.3681 19.01 15.1017C20.3813 14.9072 21.4211 13.986 22.8413 13.8711C23.2349 13.8393 24.0145 13.7313 23.9925 14.3002C23.9704 14.8691 23.1344 14.694 22.7374 14.7515C21.5642 14.9197 20.7371 15.6263 19.6107 15.8609C18.4437 16.1038 17.0503 16.0381 15.9321 15.6131C14.6757 15.1349 14.1575 14.6629 12.6651 14.6913C11.0577 14.7217 10.2492 15.5695 8.82344 15.8595C7.64268 16.0997 6.19768 16.0402 5.07196 15.5834C4.23386 15.2436 3.78179 14.8795 2.8102 14.7459C2.55285 14.7106 2.07876 14.7439 1.85306 14.6712C1.51934 14.5632 1.53791 13.9556 1.89297 13.876L1.89366 13.8746Z" fill="black"/>
<path d="M13.7941 4.39899C14.0873 4.07717 14.752 4.55956 15.043 4.74435C15.8206 5.23782 16.5596 5.92162 17.1018 6.66701C17.2504 6.87187 17.7534 7.61588 17.7541 7.82836C17.7555 8.18479 17.3082 8.38688 17.0254 8.14257C16.8823 8.01938 16.5451 7.35704 16.3793 7.13349C16.0105 6.63656 15.4786 6.1071 14.9818 5.7389C14.5978 5.45445 14.1664 5.25305 13.7769 4.97967C13.6235 4.8281 13.66 4.5471 13.7941 4.39969V4.39899Z" fill="black"/>
<path d="M2.66785 2.52906L7.56019 2.5166C8.04805 2.52283 8.08314 3.28829 7.61317 3.3492L2.75867 3.34782C2.31898 3.35128 2.27357 2.61972 2.66785 2.52906Z" fill="black"/>
</g>
<defs>
<clipPath id="clip0_1518_1669">
<rect width="24" height="16" fill="white"/>
</clipPath>
</defs>
</svg>
