<svg width="24" height="24" viewBox="0 0 24 24" fill="none" xmlns="http://www.w3.org/2000/svg">
<mask id="path-1-outside-1_1518_1641" maskUnits="userSpaceOnUse" x="0" y="0" width="24" height="24" fill="black">
<rect fill="white" width="24" height="24"/>
<path d="M3.06966 1H20.9285C21.4979 1 22.0153 1.23273 22.3913 1.60867C22.7673 1.98462 23 2.50199 23 3.07128V20.9287C23 21.498 22.7673 22.0154 22.3913 22.3913C22.0171 22.7655 21.4979 23 20.9285 23H3.06966C2.50033 23 1.98291 22.7673 1.60693 22.3913C1.23275 22.0154 1 21.498 1 20.9287V3.06949C1 2.5002 1.23275 1.98283 1.60872 1.60867C1.98291 1.23273 2.50033 1 3.06966 1ZM12.9095 9.68077C13.2192 9.79356 13.5039 9.96363 13.7617 10.1946C14.0374 10.4416 14.2791 10.7531 14.4868 11.1344C14.5853 11.1344 14.6855 11.1362 14.784 11.1398C14.9631 11.147 15.1349 11.1595 15.3032 11.1774C16.0068 11.258 16.5386 11.4746 17.0685 11.693C17.4069 11.8308 17.7453 11.9705 18.1284 12.0636C18.132 12.0653 18.1356 12.0653 18.141 12.0671C18.2699 12.0976 18.3862 12.1047 18.4883 12.094C18.6709 12.0743 18.8159 11.9902 18.9269 11.8648C19.0522 11.7234 19.1418 11.5283 19.1955 11.3117C19.2546 11.0736 19.2671 10.8122 19.242 10.5651C19.2188 10.3432 19.165 10.1194 19.0952 9.89918C19.0218 9.67182 18.9323 9.45162 18.8338 9.24217C18.7443 9.05241 18.6423 8.8698 18.5312 8.69615C18.4202 8.52429 18.2985 8.35601 18.1642 8.18952C17.722 7.64171 17.2565 7.26577 16.7892 7.04915C16.3631 6.85223 15.9334 6.78778 15.5199 6.84686C15.1027 6.90772 14.6963 7.09391 14.3185 7.39824C13.8333 7.78851 13.3983 8.37033 13.0492 9.1258C12.9901 9.25291 12.9525 9.3836 12.931 9.51428C12.9202 9.56978 12.9131 9.62528 12.9095 9.68077ZM9.67969 11.1434C9.79069 10.8319 9.96078 10.5472 10.1899 10.2894C10.4334 10.0155 10.7467 9.77386 11.1281 9.56441C11.1281 9.46416 11.1281 9.36569 11.1317 9.26544C11.137 9.08821 11.1496 8.91456 11.1693 8.74628C11.248 8.03735 11.4647 7.50745 11.6795 6.97933C11.8192 6.63561 11.9588 6.29189 12.0501 5.91952C12.0824 5.78525 12.0913 5.66531 12.0788 5.55969C12.0591 5.37888 11.9731 5.23208 11.8478 5.12108C11.7046 4.99398 11.5112 4.90626 11.2946 4.85434C11.0565 4.79705 10.7951 4.78273 10.548 4.81138C10.3242 4.83644 10.1004 4.88836 9.882 4.95996C9.6582 5.03157 9.43799 5.12287 9.22673 5.22313C9.03695 5.31264 8.85612 5.41468 8.68066 5.52746C8.50342 5.64204 8.33512 5.76377 8.17578 5.89446C7.62793 6.33843 7.25195 6.80568 7.03711 7.27472C6.84017 7.70079 6.77751 8.13044 6.83838 8.54219C6.89925 8.95931 7.08724 9.36569 7.3916 9.74164C7.78369 10.225 8.36735 10.66 9.12288 11.0091C9.25 11.0682 9.3807 11.104 9.51139 11.1255C9.56869 11.1326 9.62419 11.138 9.67969 11.1434ZM9.67074 11.8255C9.58122 11.8201 9.4917 11.8111 9.40218 11.7968C9.2124 11.7664 9.02262 11.7127 8.83822 11.6267C7.986 11.2347 7.31999 10.7334 6.86344 10.1695C6.48031 9.69509 6.24219 9.17772 6.16341 8.63886C6.08285 8.09643 6.1652 7.53609 6.41764 6.98649C6.67546 6.42615 7.1141 5.87477 7.74609 5.36455C7.92871 5.21597 8.11849 5.07812 8.31364 4.9528C8.51058 4.8257 8.71826 4.70933 8.93669 4.6055C9.16943 4.4963 9.4165 4.39426 9.67432 4.31011C9.93571 4.22597 10.2061 4.16153 10.4746 4.13288C10.7969 4.09708 11.1388 4.11498 11.4557 4.19196C11.7762 4.27073 12.0734 4.40858 12.3026 4.61266C12.5496 4.83107 12.7179 5.12108 12.7573 5.48629C12.777 5.6671 12.7645 5.86582 12.7126 6.08064C12.6069 6.51208 12.4601 6.87371 12.3133 7.23712C12.1164 7.72227 11.9176 8.211 11.8496 8.82147C11.8317 8.98259 11.821 9.13655 11.8156 9.28692C11.812 9.39076 11.8102 9.49459 11.812 9.59842C11.9123 9.58589 12.0161 9.57873 12.12 9.57873C12.1576 9.57873 12.1952 9.58052 12.2327 9.58052C12.2381 9.52144 12.2453 9.46058 12.256 9.4015C12.2865 9.21352 12.342 9.02376 12.4279 8.83937C12.8236 7.98722 13.3249 7.32126 13.8906 6.86655C14.3651 6.48523 14.8825 6.24892 15.4232 6.17015C15.9657 6.09138 16.5243 6.17373 17.0739 6.42794C17.6343 6.68753 18.1839 7.12792 18.696 7.76166C18.841 7.94068 18.9771 8.12865 19.106 8.32916C19.2331 8.52787 19.3494 8.73554 19.4515 8.95215C19.5625 9.18667 19.6646 9.43372 19.7451 9.68793C19.8293 9.9493 19.8919 10.2196 19.9206 10.49C19.9546 10.8122 19.9367 11.1541 19.8597 11.471C19.7809 11.7896 19.6431 12.085 19.4372 12.316C19.217 12.563 18.9269 12.7295 18.5617 12.7689C18.3844 12.7886 18.1911 12.7761 17.9834 12.7259C17.978 12.7241 17.9727 12.7241 17.9673 12.7224C17.5466 12.6185 17.1795 12.4699 16.8143 12.3196C16.3309 12.1226 15.8457 11.9239 15.228 11.8523C15.0669 11.8344 14.9129 11.8219 14.7625 11.8165C14.6981 11.8147 14.6318 11.8129 14.5674 11.8129C14.5745 11.8863 14.5763 11.9597 14.5763 12.0331C14.5763 12.0958 14.5745 12.1584 14.5692 12.2211C14.682 12.23 14.7966 12.2444 14.9093 12.2694C15.0955 12.3088 15.2817 12.3715 15.4644 12.4664C16.2987 12.8978 16.9414 13.4295 17.3711 14.0149C17.731 14.5036 17.944 15.0335 17.9977 15.576C18.0532 16.122 17.9458 16.6769 17.6683 17.214C17.3836 17.7636 16.9199 18.2935 16.2646 18.7751C16.0767 18.9129 15.8833 19.0418 15.681 19.16C15.4769 19.2781 15.2638 19.3855 15.0418 19.4786C14.8019 19.5789 14.5495 19.6702 14.2917 19.74C14.0285 19.8116 13.7581 19.8617 13.4824 19.8796C13.1602 19.9011 12.8182 19.8671 12.5049 19.774C12.188 19.6809 11.8997 19.5306 11.6795 19.3157C11.4432 19.0848 11.2874 18.7876 11.2642 18.4206C11.2534 18.2398 11.2749 18.0411 11.3376 17.8298C11.4629 17.4038 11.6258 17.0493 11.7905 16.6931C12.0107 16.2169 12.231 15.7389 12.3276 15.1302C12.3509 14.9834 12.3688 14.8277 12.3813 14.6665C12.3867 14.6003 12.3903 14.5376 12.3939 14.475C12.3026 14.4857 12.2113 14.4911 12.1164 14.4911C12.0018 14.4911 11.889 14.4839 11.778 14.4678C11.7744 14.5036 11.769 14.5394 11.7637 14.5734C11.735 14.7632 11.6849 14.953 11.6007 15.1391C11.2212 15.9967 10.7288 16.6698 10.1702 17.1352C9.70296 17.5255 9.18734 17.769 8.65023 17.8567C8.10775 17.9444 7.54736 17.871 6.99593 17.6276C6.43197 17.3769 5.87516 16.9455 5.35238 16.3207C5.2002 16.1381 5.06055 15.9519 4.93343 15.7604C4.80811 15.567 4.68994 15.3629 4.58073 15.1427C4.46615 14.9082 4.35872 14.6612 4.27458 14.4105C4.18685 14.1492 4.11882 13.8806 4.0848 13.6121C4.04541 13.2916 4.05794 12.9497 4.13135 12.6311C4.20475 12.3106 4.33903 12.0116 4.53955 11.7789C4.75619 11.5283 5.04264 11.3564 5.40788 11.3099C5.58691 11.2866 5.78565 11.2973 6.00228 11.3475C6.43376 11.4459 6.79899 11.5891 7.16423 11.7306C7.653 11.9221 8.14356 12.1119 8.75586 12.1728C8.91341 12.1889 9.06917 12.1978 9.22315 12.1996C9.36817 12.2032 9.51676 12.1996 9.66895 12.1924C9.66536 12.1405 9.66357 12.0868 9.66357 12.0349C9.66357 11.9651 9.66537 11.8953 9.67074 11.8255ZM13.3714 10.7818C13.0509 10.4613 12.6069 10.2626 12.1182 10.2626C11.6294 10.2626 11.1854 10.4613 10.8649 10.7818C10.5444 11.1022 10.3457 11.5462 10.3457 12.0349C10.3457 12.5236 10.5444 12.9676 10.8649 13.2881C11.1854 13.6085 11.6294 13.8072 12.1182 13.8072C12.6069 13.8072 13.0509 13.6085 13.3714 13.2881C13.6919 12.9676 13.8906 12.5236 13.8906 12.0349C13.8906 11.5462 13.6919 11.1022 13.3714 10.7818ZM11.1084 14.3067C10.7969 14.1993 10.5086 14.0346 10.2472 13.8072C9.96794 13.5655 9.72087 13.2576 9.50602 12.8799C9.40755 12.8817 9.30908 12.8817 9.20703 12.8799C9.03337 12.8763 8.8597 12.8674 8.68962 12.8495C7.97884 12.7796 7.44531 12.572 6.91537 12.3643C6.57162 12.23 6.22607 12.0958 5.85189 12.0098C5.71761 11.9794 5.59766 11.9723 5.49023 11.9866C5.30762 12.0098 5.16439 12.0958 5.05518 12.2229C4.93164 12.3661 4.8457 12.5612 4.79557 12.7779C4.74186 13.016 4.73112 13.2773 4.76335 13.5262C4.79199 13.7481 4.84749 13.9719 4.9209 14.1885C4.99788 14.4177 5.09277 14.6361 5.19303 14.8402C5.28434 15.0264 5.38818 15.2054 5.50456 15.3808C5.62272 15.5581 5.74805 15.7246 5.87874 15.8821C6.32813 16.4209 6.80078 16.7897 7.27344 16.9992C7.70492 17.1907 8.1346 17.248 8.54639 17.1818C8.96175 17.1138 9.36637 16.9204 9.73877 16.6107C10.215 16.2133 10.6411 15.6243 10.9795 14.8617C11.0368 14.7346 11.0708 14.6021 11.0905 14.4714C11.0994 14.4195 11.1048 14.3622 11.1084 14.3067ZM14.6014 12.9121C14.4761 13.2182 14.2935 13.4939 14.05 13.741C13.7922 14.0042 13.4699 14.2315 13.0796 14.4231C13.076 14.5269 13.0706 14.6254 13.0617 14.7202C13.0492 14.8867 13.0277 15.0586 12.999 15.2376C12.8862 15.943 12.6463 16.4621 12.4082 16.9795C12.2524 17.3161 12.0985 17.6508 11.9893 18.0196C11.9499 18.1521 11.9373 18.272 11.9427 18.3794C11.9552 18.562 12.0322 18.7106 12.1522 18.827C12.2882 18.9595 12.4798 19.0579 12.6911 19.1206C12.9256 19.1886 13.187 19.2155 13.4359 19.1994C13.6561 19.185 13.8835 19.1421 14.1073 19.0812C14.3382 19.0186 14.562 18.938 14.7733 18.8485C14.9684 18.7679 15.1546 18.6748 15.3319 18.571C15.5127 18.4672 15.6864 18.3508 15.8547 18.2273C16.4222 17.8102 16.8179 17.3608 17.056 16.9043C17.2726 16.4872 17.355 16.0611 17.3138 15.6458C17.2726 15.2269 17.1025 14.8133 16.8143 14.4213C16.4455 13.92 15.8833 13.4599 15.1439 13.0768C15.0203 13.0124 14.8914 12.9694 14.7607 12.9426C14.7124 12.9264 14.6569 12.9175 14.6014 12.9121ZM3.68197 19.6935C4.00065 19.6935 4.25667 19.9513 4.25667 20.2681C4.25667 20.585 3.99886 20.8428 3.68197 20.8428C3.36507 20.8428 3.10726 20.585 3.10726 20.2681C3.10726 19.9513 3.36328 19.6935 3.68197 19.6935ZM3.68197 3.15363C4.00065 3.15363 4.25667 3.41142 4.25667 3.72829C4.25667 4.04516 3.99886 4.30295 3.68197 4.30295C3.36507 4.30295 3.10726 4.04516 3.10726 3.72829C3.10726 3.41142 3.36328 3.15363 3.68197 3.15363ZM20.318 3.15363C20.6367 3.15363 20.8927 3.41142 20.8927 3.72829C20.8927 4.04516 20.6349 4.30295 20.318 4.30295C20.0011 4.30295 19.7433 4.04516 19.7433 3.72829C19.7433 3.41142 20.0011 3.15363 20.318 3.15363ZM20.318 19.6935C20.6367 19.6935 20.8927 19.9513 20.8927 20.2681C20.8927 20.585 20.6349 20.8428 20.318 20.8428C20.0011 20.8428 19.7433 20.585 19.7433 20.2681C19.7433 19.9513 20.0011 19.6935 20.318 19.6935ZM20.9303 1.74294H3.06966C2.70443 1.74294 2.37321 1.89153 2.1333 2.13321C1.89339 2.3731 1.743 2.70608 1.743 3.06949V20.9269C1.743 21.2921 1.8916 21.6233 2.1333 21.8632C2.37321 22.1031 2.70622 22.2535 3.06966 22.2535H20.9285C21.2938 22.2535 21.625 22.1049 21.8649 21.8632C22.1048 21.6215 22.2552 21.2903 22.2552 20.9269V3.06949C22.2552 2.70429 22.1066 2.3731 21.8649 2.13321C21.6268 1.89332 21.2938 1.74294 20.9303 1.74294Z"/>
</mask>
<path d="M3.06966 1H20.9285C21.4979 1 22.0153 1.23273 22.3913 1.60867C22.7673 1.98462 23 2.50199 23 3.07128V20.9287C23 21.498 22.7673 22.0154 22.3913 22.3913C22.0171 22.7655 21.4979 23 20.9285 23H3.06966C2.50033 23 1.98291 22.7673 1.60693 22.3913C1.23275 22.0154 1 21.498 1 20.9287V3.06949C1 2.5002 1.23275 1.98283 1.60872 1.60867C1.98291 1.23273 2.50033 1 3.06966 1ZM12.9095 9.68077C13.2192 9.79356 13.5039 9.96363 13.7617 10.1946C14.0374 10.4416 14.2791 10.7531 14.4868 11.1344C14.5853 11.1344 14.6855 11.1362 14.784 11.1398C14.9631 11.147 15.1349 11.1595 15.3032 11.1774C16.0068 11.258 16.5386 11.4746 17.0685 11.693C17.4069 11.8308 17.7453 11.9705 18.1284 12.0636C18.132 12.0653 18.1356 12.0653 18.141 12.0671C18.2699 12.0976 18.3862 12.1047 18.4883 12.094C18.6709 12.0743 18.8159 11.9902 18.9269 11.8648C19.0522 11.7234 19.1418 11.5283 19.1955 11.3117C19.2546 11.0736 19.2671 10.8122 19.242 10.5651C19.2188 10.3432 19.165 10.1194 19.0952 9.89918C19.0218 9.67182 18.9323 9.45162 18.8338 9.24217C18.7443 9.05241 18.6423 8.8698 18.5312 8.69615C18.4202 8.52429 18.2985 8.35601 18.1642 8.18952C17.722 7.64171 17.2565 7.26577 16.7892 7.04915C16.3631 6.85223 15.9334 6.78778 15.5199 6.84686C15.1027 6.90772 14.6963 7.09391 14.3185 7.39824C13.8333 7.78851 13.3983 8.37033 13.0492 9.1258C12.9901 9.25291 12.9525 9.3836 12.931 9.51428C12.9202 9.56978 12.9131 9.62528 12.9095 9.68077ZM9.67969 11.1434C9.79069 10.8319 9.96078 10.5472 10.1899 10.2894C10.4334 10.0155 10.7467 9.77386 11.1281 9.56441C11.1281 9.46416 11.1281 9.36569 11.1317 9.26544C11.137 9.08821 11.1496 8.91456 11.1693 8.74628C11.248 8.03735 11.4647 7.50745 11.6795 6.97933C11.8192 6.63561 11.9588 6.29189 12.0501 5.91952C12.0824 5.78525 12.0913 5.66531 12.0788 5.55969C12.0591 5.37888 11.9731 5.23208 11.8478 5.12108C11.7046 4.99398 11.5112 4.90626 11.2946 4.85434C11.0565 4.79705 10.7951 4.78273 10.548 4.81138C10.3242 4.83644 10.1004 4.88836 9.882 4.95996C9.6582 5.03157 9.43799 5.12287 9.22673 5.22313C9.03695 5.31264 8.85612 5.41468 8.68066 5.52746C8.50342 5.64204 8.33512 5.76377 8.17578 5.89446C7.62793 6.33843 7.25195 6.80568 7.03711 7.27472C6.84017 7.70079 6.77751 8.13044 6.83838 8.54219C6.89925 8.95931 7.08724 9.36569 7.3916 9.74164C7.78369 10.225 8.36735 10.66 9.12288 11.0091C9.25 11.0682 9.3807 11.104 9.51139 11.1255C9.56869 11.1326 9.62419 11.138 9.67969 11.1434ZM9.67074 11.8255C9.58122 11.8201 9.4917 11.8111 9.40218 11.7968C9.2124 11.7664 9.02262 11.7127 8.83822 11.6267C7.986 11.2347 7.31999 10.7334 6.86344 10.1695C6.48031 9.69509 6.24219 9.17772 6.16341 8.63886C6.08285 8.09643 6.1652 7.53609 6.41764 6.98649C6.67546 6.42615 7.1141 5.87477 7.74609 5.36455C7.92871 5.21597 8.11849 5.07812 8.31364 4.9528C8.51058 4.8257 8.71826 4.70933 8.93669 4.6055C9.16943 4.4963 9.4165 4.39426 9.67432 4.31011C9.93571 4.22597 10.2061 4.16153 10.4746 4.13288C10.7969 4.09708 11.1388 4.11498 11.4557 4.19196C11.7762 4.27073 12.0734 4.40858 12.3026 4.61266C12.5496 4.83107 12.7179 5.12108 12.7573 5.48629C12.777 5.6671 12.7645 5.86582 12.7126 6.08064C12.6069 6.51208 12.4601 6.87371 12.3133 7.23712C12.1164 7.72227 11.9176 8.211 11.8496 8.82147C11.8317 8.98259 11.821 9.13655 11.8156 9.28692C11.812 9.39076 11.8102 9.49459 11.812 9.59842C11.9123 9.58589 12.0161 9.57873 12.12 9.57873C12.1576 9.57873 12.1952 9.58052 12.2327 9.58052C12.2381 9.52144 12.2453 9.46058 12.256 9.4015C12.2865 9.21352 12.342 9.02376 12.4279 8.83937C12.8236 7.98722 13.3249 7.32126 13.8906 6.86655C14.3651 6.48523 14.8825 6.24892 15.4232 6.17015C15.9657 6.09138 16.5243 6.17373 17.0739 6.42794C17.6343 6.68753 18.1839 7.12792 18.696 7.76166C18.841 7.94068 18.9771 8.12865 19.106 8.32916C19.2331 8.52787 19.3494 8.73554 19.4515 8.95215C19.5625 9.18667 19.6646 9.43372 19.7451 9.68793C19.8293 9.9493 19.8919 10.2196 19.9206 10.49C19.9546 10.8122 19.9367 11.1541 19.8597 11.471C19.7809 11.7896 19.6431 12.085 19.4372 12.316C19.217 12.563 18.9269 12.7295 18.5617 12.7689C18.3844 12.7886 18.1911 12.7761 17.9834 12.7259C17.978 12.7241 17.9727 12.7241 17.9673 12.7224C17.5466 12.6185 17.1795 12.4699 16.8143 12.3196C16.3309 12.1226 15.8457 11.9239 15.228 11.8523C15.0669 11.8344 14.9129 11.8219 14.7625 11.8165C14.6981 11.8147 14.6318 11.8129 14.5674 11.8129C14.5745 11.8863 14.5763 11.9597 14.5763 12.0331C14.5763 12.0958 14.5745 12.1584 14.5692 12.2211C14.682 12.23 14.7966 12.2444 14.9093 12.2694C15.0955 12.3088 15.2817 12.3715 15.4644 12.4664C16.2987 12.8978 16.9414 13.4295 17.3711 14.0149C17.731 14.5036 17.944 15.0335 17.9977 15.576C18.0532 16.122 17.9458 16.6769 17.6683 17.214C17.3836 17.7636 16.9199 18.2935 16.2646 18.7751C16.0767 18.9129 15.8833 19.0418 15.681 19.16C15.4769 19.2781 15.2638 19.3855 15.0418 19.4786C14.8019 19.5789 14.5495 19.6702 14.2917 19.74C14.0285 19.8116 13.7581 19.8617 13.4824 19.8796C13.1602 19.9011 12.8182 19.8671 12.5049 19.774C12.188 19.6809 11.8997 19.5306 11.6795 19.3157C11.4432 19.0848 11.2874 18.7876 11.2642 18.4206C11.2534 18.2398 11.2749 18.0411 11.3376 17.8298C11.4629 17.4038 11.6258 17.0493 11.7905 16.6931C12.0107 16.2169 12.231 15.7389 12.3276 15.1302C12.3509 14.9834 12.3688 14.8277 12.3813 14.6665C12.3867 14.6003 12.3903 14.5376 12.3939 14.475C12.3026 14.4857 12.2113 14.4911 12.1164 14.4911C12.0018 14.4911 11.889 14.4839 11.778 14.4678C11.7744 14.5036 11.769 14.5394 11.7637 14.5734C11.735 14.7632 11.6849 14.953 11.6007 15.1391C11.2212 15.9967 10.7288 16.6698 10.1702 17.1352C9.70296 17.5255 9.18734 17.769 8.65023 17.8567C8.10775 17.9444 7.54736 17.871 6.99593 17.6276C6.43197 17.3769 5.87516 16.9455 5.35238 16.3207C5.2002 16.1381 5.06055 15.9519 4.93343 15.7604C4.80811 15.567 4.68994 15.3629 4.58073 15.1427C4.46615 14.9082 4.35872 14.6612 4.27458 14.4105C4.18685 14.1492 4.11882 13.8806 4.0848 13.6121C4.04541 13.2916 4.05794 12.9497 4.13135 12.6311C4.20475 12.3106 4.33903 12.0116 4.53955 11.7789C4.75619 11.5283 5.04264 11.3564 5.40788 11.3099C5.58691 11.2866 5.78565 11.2973 6.00228 11.3475C6.43376 11.4459 6.79899 11.5891 7.16423 11.7306C7.653 11.9221 8.14356 12.1119 8.75586 12.1728C8.91341 12.1889 9.06917 12.1978 9.22315 12.1996C9.36817 12.2032 9.51676 12.1996 9.66895 12.1924C9.66536 12.1405 9.66357 12.0868 9.66357 12.0349C9.66357 11.9651 9.66537 11.8953 9.67074 11.8255ZM13.3714 10.7818C13.0509 10.4613 12.6069 10.2626 12.1182 10.2626C11.6294 10.2626 11.1854 10.4613 10.8649 10.7818C10.5444 11.1022 10.3457 11.5462 10.3457 12.0349C10.3457 12.5236 10.5444 12.9676 10.8649 13.2881C11.1854 13.6085 11.6294 13.8072 12.1182 13.8072C12.6069 13.8072 13.0509 13.6085 13.3714 13.2881C13.6919 12.9676 13.8906 12.5236 13.8906 12.0349C13.8906 11.5462 13.6919 11.1022 13.3714 10.7818ZM11.1084 14.3067C10.7969 14.1993 10.5086 14.0346 10.2472 13.8072C9.96794 13.5655 9.72087 13.2576 9.50602 12.8799C9.40755 12.8817 9.30908 12.8817 9.20703 12.8799C9.03337 12.8763 8.8597 12.8674 8.68962 12.8495C7.97884 12.7796 7.44531 12.572 6.91537 12.3643C6.57162 12.23 6.22607 12.0958 5.85189 12.0098C5.71761 11.9794 5.59766 11.9723 5.49023 11.9866C5.30762 12.0098 5.16439 12.0958 5.05518 12.2229C4.93164 12.3661 4.8457 12.5612 4.79557 12.7779C4.74186 13.016 4.73112 13.2773 4.76335 13.5262C4.79199 13.7481 4.84749 13.9719 4.9209 14.1885C4.99788 14.4177 5.09277 14.6361 5.19303 14.8402C5.28434 15.0264 5.38818 15.2054 5.50456 15.3808C5.62272 15.5581 5.74805 15.7246 5.87874 15.8821C6.32813 16.4209 6.80078 16.7897 7.27344 16.9992C7.70492 17.1907 8.1346 17.248 8.54639 17.1818C8.96175 17.1138 9.36637 16.9204 9.73877 16.6107C10.215 16.2133 10.6411 15.6243 10.9795 14.8617C11.0368 14.7346 11.0708 14.6021 11.0905 14.4714C11.0994 14.4195 11.1048 14.3622 11.1084 14.3067ZM14.6014 12.9121C14.4761 13.2182 14.2935 13.4939 14.05 13.741C13.7922 14.0042 13.4699 14.2315 13.0796 14.4231C13.076 14.5269 13.0706 14.6254 13.0617 14.7202C13.0492 14.8867 13.0277 15.0586 12.999 15.2376C12.8862 15.943 12.6463 16.4621 12.4082 16.9795C12.2524 17.3161 12.0985 17.6508 11.9893 18.0196C11.9499 18.1521 11.9373 18.272 11.9427 18.3794C11.9552 18.562 12.0322 18.7106 12.1522 18.827C12.2882 18.9595 12.4798 19.0579 12.6911 19.1206C12.9256 19.1886 13.187 19.2155 13.4359 19.1994C13.6561 19.185 13.8835 19.1421 14.1073 19.0812C14.3382 19.0186 14.562 18.938 14.7733 18.8485C14.9684 18.7679 15.1546 18.6748 15.3319 18.571C15.5127 18.4672 15.6864 18.3508 15.8547 18.2273C16.4222 17.8102 16.8179 17.3608 17.056 16.9043C17.2726 16.4872 17.355 16.0611 17.3138 15.6458C17.2726 15.2269 17.1025 14.8133 16.8143 14.4213C16.4455 13.92 15.8833 13.4599 15.1439 13.0768C15.0203 13.0124 14.8914 12.9694 14.7607 12.9426C14.7124 12.9264 14.6569 12.9175 14.6014 12.9121ZM3.68197 19.6935C4.00065 19.6935 4.25667 19.9513 4.25667 20.2681C4.25667 20.585 3.99886 20.8428 3.68197 20.8428C3.36507 20.8428 3.10726 20.585 3.10726 20.2681C3.10726 19.9513 3.36328 19.6935 3.68197 19.6935ZM3.68197 3.15363C4.00065 3.15363 4.25667 3.41142 4.25667 3.72829C4.25667 4.04516 3.99886 4.30295 3.68197 4.30295C3.36507 4.30295 3.10726 4.04516 3.10726 3.72829C3.10726 3.41142 3.36328 3.15363 3.68197 3.15363ZM20.318 3.15363C20.6367 3.15363 20.8927 3.41142 20.8927 3.72829C20.8927 4.04516 20.6349 4.30295 20.318 4.30295C20.0011 4.30295 19.7433 4.04516 19.7433 3.72829C19.7433 3.41142 20.0011 3.15363 20.318 3.15363ZM20.318 19.6935C20.6367 19.6935 20.8927 19.9513 20.8927 20.2681C20.8927 20.585 20.6349 20.8428 20.318 20.8428C20.0011 20.8428 19.7433 20.585 19.7433 20.2681C19.7433 19.9513 20.0011 19.6935 20.318 19.6935ZM20.9303 1.74294H3.06966C2.70443 1.74294 2.37321 1.89153 2.1333 2.13321C1.89339 2.3731 1.743 2.70608 1.743 3.06949V20.9269C1.743 21.2921 1.8916 21.6233 2.1333 21.8632C2.37321 22.1031 2.70622 22.2535 3.06966 22.2535H20.9285C21.2938 22.2535 21.625 22.1049 21.8649 21.8632C22.1048 21.6215 22.2552 21.2903 22.2552 20.9269V3.06949C22.2552 2.70429 22.1066 2.3731 21.8649 2.13321C21.6268 1.89332 21.2938 1.74294 20.9303 1.74294Z" fill="#010B1E"/>
<path d="M3.06966 1H20.9285C21.4979 1 22.0153 1.23273 22.3913 1.60867C22.7673 1.98462 23 2.50199 23 3.07128V20.9287C23 21.498 22.7673 22.0154 22.3913 22.3913C22.0171 22.7655 21.4979 23 20.9285 23H3.06966C2.50033 23 1.98291 22.7673 1.60693 22.3913C1.23275 22.0154 1 21.498 1 20.9287V3.06949C1 2.5002 1.23275 1.98283 1.60872 1.60867C1.98291 1.23273 2.50033 1 3.06966 1ZM12.9095 9.68077C13.2192 9.79356 13.5039 9.96363 13.7617 10.1946C14.0374 10.4416 14.2791 10.7531 14.4868 11.1344C14.5853 11.1344 14.6855 11.1362 14.784 11.1398C14.9631 11.147 15.1349 11.1595 15.3032 11.1774C16.0068 11.258 16.5386 11.4746 17.0685 11.693C17.4069 11.8308 17.7453 11.9705 18.1284 12.0636C18.132 12.0653 18.1356 12.0653 18.141 12.0671C18.2699 12.0976 18.3862 12.1047 18.4883 12.094C18.6709 12.0743 18.8159 11.9902 18.9269 11.8648C19.0522 11.7234 19.1418 11.5283 19.1955 11.3117C19.2546 11.0736 19.2671 10.8122 19.242 10.5651C19.2188 10.3432 19.165 10.1194 19.0952 9.89918C19.0218 9.67182 18.9323 9.45162 18.8338 9.24217C18.7443 9.05241 18.6423 8.8698 18.5312 8.69615C18.4202 8.52429 18.2985 8.35601 18.1642 8.18952C17.722 7.64171 17.2565 7.26577 16.7892 7.04915C16.3631 6.85223 15.9334 6.78778 15.5199 6.84686C15.1027 6.90772 14.6963 7.09391 14.3185 7.39824C13.8333 7.78851 13.3983 8.37033 13.0492 9.1258C12.9901 9.25291 12.9525 9.3836 12.931 9.51428C12.9202 9.56978 12.9131 9.62528 12.9095 9.68077ZM9.67969 11.1434C9.79069 10.8319 9.96078 10.5472 10.1899 10.2894C10.4334 10.0155 10.7467 9.77386 11.1281 9.56441C11.1281 9.46416 11.1281 9.36569 11.1317 9.26544C11.137 9.08821 11.1496 8.91456 11.1693 8.74628C11.248 8.03735 11.4647 7.50745 11.6795 6.97933C11.8192 6.63561 11.9588 6.29189 12.0501 5.91952C12.0824 5.78525 12.0913 5.66531 12.0788 5.55969C12.0591 5.37888 11.9731 5.23208 11.8478 5.12108C11.7046 4.99398 11.5112 4.90626 11.2946 4.85434C11.0565 4.79705 10.7951 4.78273 10.548 4.81138C10.3242 4.83644 10.1004 4.88836 9.882 4.95996C9.6582 5.03157 9.43799 5.12287 9.22673 5.22313C9.03695 5.31264 8.85612 5.41468 8.68066 5.52746C8.50342 5.64204 8.33512 5.76377 8.17578 5.89446C7.62793 6.33843 7.25195 6.80568 7.03711 7.27472C6.84017 7.70079 6.77751 8.13044 6.83838 8.54219C6.89925 8.95931 7.08724 9.36569 7.3916 9.74164C7.78369 10.225 8.36735 10.66 9.12288 11.0091C9.25 11.0682 9.3807 11.104 9.51139 11.1255C9.56869 11.1326 9.62419 11.138 9.67969 11.1434ZM9.67074 11.8255C9.58122 11.8201 9.4917 11.8111 9.40218 11.7968C9.2124 11.7664 9.02262 11.7127 8.83822 11.6267C7.986 11.2347 7.31999 10.7334 6.86344 10.1695C6.48031 9.69509 6.24219 9.17772 6.16341 8.63886C6.08285 8.09643 6.1652 7.53609 6.41764 6.98649C6.67546 6.42615 7.1141 5.87477 7.74609 5.36455C7.92871 5.21597 8.11849 5.07812 8.31364 4.9528C8.51058 4.8257 8.71826 4.70933 8.93669 4.6055C9.16943 4.4963 9.4165 4.39426 9.67432 4.31011C9.93571 4.22597 10.2061 4.16153 10.4746 4.13288C10.7969 4.09708 11.1388 4.11498 11.4557 4.19196C11.7762 4.27073 12.0734 4.40858 12.3026 4.61266C12.5496 4.83107 12.7179 5.12108 12.7573 5.48629C12.777 5.6671 12.7645 5.86582 12.7126 6.08064C12.6069 6.51208 12.4601 6.87371 12.3133 7.23712C12.1164 7.72227 11.9176 8.211 11.8496 8.82147C11.8317 8.98259 11.821 9.13655 11.8156 9.28692C11.812 9.39076 11.8102 9.49459 11.812 9.59842C11.9123 9.58589 12.0161 9.57873 12.12 9.57873C12.1576 9.57873 12.1952 9.58052 12.2327 9.58052C12.2381 9.52144 12.2453 9.46058 12.256 9.4015C12.2865 9.21352 12.342 9.02376 12.4279 8.83937C12.8236 7.98722 13.3249 7.32126 13.8906 6.86655C14.3651 6.48523 14.8825 6.24892 15.4232 6.17015C15.9657 6.09138 16.5243 6.17373 17.0739 6.42794C17.6343 6.68753 18.1839 7.12792 18.696 7.76166C18.841 7.94068 18.9771 8.12865 19.106 8.32916C19.2331 8.52787 19.3494 8.73554 19.4515 8.95215C19.5625 9.18667 19.6646 9.43372 19.7451 9.68793C19.8293 9.9493 19.8919 10.2196 19.9206 10.49C19.9546 10.8122 19.9367 11.1541 19.8597 11.471C19.7809 11.7896 19.6431 12.085 19.4372 12.316C19.217 12.563 18.9269 12.7295 18.5617 12.7689C18.3844 12.7886 18.1911 12.7761 17.9834 12.7259C17.978 12.7241 17.9727 12.7241 17.9673 12.7224C17.5466 12.6185 17.1795 12.4699 16.8143 12.3196C16.3309 12.1226 15.8457 11.9239 15.228 11.8523C15.0669 11.8344 14.9129 11.8219 14.7625 11.8165C14.6981 11.8147 14.6318 11.8129 14.5674 11.8129C14.5745 11.8863 14.5763 11.9597 14.5763 12.0331C14.5763 12.0958 14.5745 12.1584 14.5692 12.2211C14.682 12.23 14.7966 12.2444 14.9093 12.2694C15.0955 12.3088 15.2817 12.3715 15.4644 12.4664C16.2987 12.8978 16.9414 13.4295 17.3711 14.0149C17.731 14.5036 17.944 15.0335 17.9977 15.576C18.0532 16.122 17.9458 16.6769 17.6683 17.214C17.3836 17.7636 16.9199 18.2935 16.2646 18.7751C16.0767 18.9129 15.8833 19.0418 15.681 19.16C15.4769 19.2781 15.2638 19.3855 15.0418 19.4786C14.8019 19.5789 14.5495 19.6702 14.2917 19.74C14.0285 19.8116 13.7581 19.8617 13.4824 19.8796C13.1602 19.9011 12.8182 19.8671 12.5049 19.774C12.188 19.6809 11.8997 19.5306 11.6795 19.3157C11.4432 19.0848 11.2874 18.7876 11.2642 18.4206C11.2534 18.2398 11.2749 18.0411 11.3376 17.8298C11.4629 17.4038 11.6258 17.0493 11.7905 16.6931C12.0107 16.2169 12.231 15.7389 12.3276 15.1302C12.3509 14.9834 12.3688 14.8277 12.3813 14.6665C12.3867 14.6003 12.3903 14.5376 12.3939 14.475C12.3026 14.4857 12.2113 14.4911 12.1164 14.4911C12.0018 14.4911 11.889 14.4839 11.778 14.4678C11.7744 14.5036 11.769 14.5394 11.7637 14.5734C11.735 14.7632 11.6849 14.953 11.6007 15.1391C11.2212 15.9967 10.7288 16.6698 10.1702 17.1352C9.70296 17.5255 9.18734 17.769 8.65023 17.8567C8.10775 17.9444 7.54736 17.871 6.99593 17.6276C6.43197 17.3769 5.87516 16.9455 5.35238 16.3207C5.2002 16.1381 5.06055 15.9519 4.93343 15.7604C4.80811 15.567 4.68994 15.3629 4.58073 15.1427C4.46615 14.9082 4.35872 14.6612 4.27458 14.4105C4.18685 14.1492 4.11882 13.8806 4.0848 13.6121C4.04541 13.2916 4.05794 12.9497 4.13135 12.6311C4.20475 12.3106 4.33903 12.0116 4.53955 11.7789C4.75619 11.5283 5.04264 11.3564 5.40788 11.3099C5.58691 11.2866 5.78565 11.2973 6.00228 11.3475C6.43376 11.4459 6.79899 11.5891 7.16423 11.7306C7.653 11.9221 8.14356 12.1119 8.75586 12.1728C8.91341 12.1889 9.06917 12.1978 9.22315 12.1996C9.36817 12.2032 9.51676 12.1996 9.66895 12.1924C9.66536 12.1405 9.66357 12.0868 9.66357 12.0349C9.66357 11.9651 9.66537 11.8953 9.67074 11.8255ZM13.3714 10.7818C13.0509 10.4613 12.6069 10.2626 12.1182 10.2626C11.6294 10.2626 11.1854 10.4613 10.8649 10.7818C10.5444 11.1022 10.3457 11.5462 10.3457 12.0349C10.3457 12.5236 10.5444 12.9676 10.8649 13.2881C11.1854 13.6085 11.6294 13.8072 12.1182 13.8072C12.6069 13.8072 13.0509 13.6085 13.3714 13.2881C13.6919 12.9676 13.8906 12.5236 13.8906 12.0349C13.8906 11.5462 13.6919 11.1022 13.3714 10.7818ZM11.1084 14.3067C10.7969 14.1993 10.5086 14.0346 10.2472 13.8072C9.96794 13.5655 9.72087 13.2576 9.50602 12.8799C9.40755 12.8817 9.30908 12.8817 9.20703 12.8799C9.03337 12.8763 8.8597 12.8674 8.68962 12.8495C7.97884 12.7796 7.44531 12.572 6.91537 12.3643C6.57162 12.23 6.22607 12.0958 5.85189 12.0098C5.71761 11.9794 5.59766 11.9723 5.49023 11.9866C5.30762 12.0098 5.16439 12.0958 5.05518 12.2229C4.93164 12.3661 4.8457 12.5612 4.79557 12.7779C4.74186 13.016 4.73112 13.2773 4.76335 13.5262C4.79199 13.7481 4.84749 13.9719 4.9209 14.1885C4.99788 14.4177 5.09277 14.6361 5.19303 14.8402C5.28434 15.0264 5.38818 15.2054 5.50456 15.3808C5.62272 15.5581 5.74805 15.7246 5.87874 15.8821C6.32813 16.4209 6.80078 16.7897 7.27344 16.9992C7.70492 17.1907 8.1346 17.248 8.54639 17.1818C8.96175 17.1138 9.36637 16.9204 9.73877 16.6107C10.215 16.2133 10.6411 15.6243 10.9795 14.8617C11.0368 14.7346 11.0708 14.6021 11.0905 14.4714C11.0994 14.4195 11.1048 14.3622 11.1084 14.3067ZM14.6014 12.9121C14.4761 13.2182 14.2935 13.4939 14.05 13.741C13.7922 14.0042 13.4699 14.2315 13.0796 14.4231C13.076 14.5269 13.0706 14.6254 13.0617 14.7202C13.0492 14.8867 13.0277 15.0586 12.999 15.2376C12.8862 15.943 12.6463 16.4621 12.4082 16.9795C12.2524 17.3161 12.0985 17.6508 11.9893 18.0196C11.9499 18.1521 11.9373 18.272 11.9427 18.3794C11.9552 18.562 12.0322 18.7106 12.1522 18.827C12.2882 18.9595 12.4798 19.0579 12.6911 19.1206C12.9256 19.1886 13.187 19.2155 13.4359 19.1994C13.6561 19.185 13.8835 19.1421 14.1073 19.0812C14.3382 19.0186 14.562 18.938 14.7733 18.8485C14.9684 18.7679 15.1546 18.6748 15.3319 18.571C15.5127 18.4672 15.6864 18.3508 15.8547 18.2273C16.4222 17.8102 16.8179 17.3608 17.056 16.9043C17.2726 16.4872 17.355 16.0611 17.3138 15.6458C17.2726 15.2269 17.1025 14.8133 16.8143 14.4213C16.4455 13.92 15.8833 13.4599 15.1439 13.0768C15.0203 13.0124 14.8914 12.9694 14.7607 12.9426C14.7124 12.9264 14.6569 12.9175 14.6014 12.9121ZM3.68197 19.6935C4.00065 19.6935 4.25667 19.9513 4.25667 20.2681C4.25667 20.585 3.99886 20.8428 3.68197 20.8428C3.36507 20.8428 3.10726 20.585 3.10726 20.2681C3.10726 19.9513 3.36328 19.6935 3.68197 19.6935ZM3.68197 3.15363C4.00065 3.15363 4.25667 3.41142 4.25667 3.72829C4.25667 4.04516 3.99886 4.30295 3.68197 4.30295C3.36507 4.30295 3.10726 4.04516 3.10726 3.72829C3.10726 3.41142 3.36328 3.15363 3.68197 3.15363ZM20.318 3.15363C20.6367 3.15363 20.8927 3.41142 20.8927 3.72829C20.8927 4.04516 20.6349 4.30295 20.318 4.30295C20.0011 4.30295 19.7433 4.04516 19.7433 3.72829C19.7433 3.41142 20.0011 3.15363 20.318 3.15363ZM20.318 19.6935C20.6367 19.6935 20.8927 19.9513 20.8927 20.2681C20.8927 20.585 20.6349 20.8428 20.318 20.8428C20.0011 20.8428 19.7433 20.585 19.7433 20.2681C19.7433 19.9513 20.0011 19.6935 20.318 19.6935ZM20.9303 1.74294H3.06966C2.70443 1.74294 2.37321 1.89153 2.1333 2.13321C1.89339 2.3731 1.743 2.70608 1.743 3.06949V20.9269C1.743 21.2921 1.8916 21.6233 2.1333 21.8632C2.37321 22.1031 2.70622 22.2535 3.06966 22.2535H20.9285C21.2938 22.2535 21.625 22.1049 21.8649 21.8632C22.1048 21.6215 22.2552 21.2903 22.2552 20.9269V3.06949C22.2552 2.70429 22.1066 2.3731 21.8649 2.13321C21.6268 1.89332 21.2938 1.74294 20.9303 1.74294Z" stroke="#010B1E" stroke-width="0.4" mask="url(#path-1-outside-1_1518_1641)"/>
</svg>
