<svg width="22" height="20" viewBox="0 0 22 20" fill="none" xmlns="http://www.w3.org/2000/svg">
<g clip-path="url(#clip0_1518_1623)">
<path fill-rule="evenodd" clip-rule="evenodd" d="M19.2707 19.9996C17.7658 19.9996 16.5413 18.771 16.5413 17.2611C16.5413 16.1022 17.2727 15.0643 18.361 14.6781L18.6091 14.59V14.1487C18.6091 12.2268 17.0509 10.6633 15.1354 10.6633C14.0877 10.6633 13.0924 10.3306 12.2575 9.70105L11.6617 9.25198V14.5897L11.9098 14.6778C12.9982 15.0637 13.7295 16.1015 13.7295 17.2608C13.7295 18.7707 12.505 19.9993 11.0002 19.9993C9.4953 19.9993 8.27082 18.7707 8.27082 17.2608C8.27082 16.1018 9.00216 15.064 10.0905 14.6778L10.3386 14.5897V9.25198L9.7428 9.70105C8.90756 10.3303 7.91259 10.663 6.8649 10.663C4.9494 10.663 3.3912 12.2264 3.3912 14.1484V14.5897L3.63932 14.6778C4.72764 15.0637 5.45898 16.1015 5.45898 17.2608C5.45898 18.7707 4.2345 19.9993 2.72965 19.9993C1.22479 19.9993 0 18.771 0 17.2611C0 16.1022 0.731338 15.0643 1.81966 14.6781L2.06778 14.59V14.1487C2.06778 11.4948 4.21961 9.33539 6.8649 9.33539C8.7804 9.33539 10.3386 7.77191 10.3386 5.84993V5.40864L10.0905 5.32057C9.00216 4.93468 8.27082 3.89651 8.27082 2.7376C8.27082 1.22765 9.4953 -0.000976562 11.0002 -0.000976562C12.505 -0.000976562 13.7295 1.22765 13.7295 2.7376C13.7295 3.89651 12.9982 4.93437 11.9098 5.32057L11.6617 5.40864V5.84993C11.6617 7.77191 13.2199 9.33539 15.1354 9.33539C17.7804 9.33539 19.9325 11.4945 19.9325 14.1487V14.59L20.1806 14.6781C21.269 15.064 22.0003 16.1018 22.0003 17.2611C22.0003 18.771 20.7758 19.9996 19.271 19.9996H19.2707ZM19.2707 15.8501C18.4953 15.8501 17.8647 16.4831 17.8647 17.2608C17.8647 18.0385 18.4956 18.6714 19.2707 18.6714C20.0457 18.6714 20.6766 18.0385 20.6766 17.2608C20.6766 16.4831 20.0457 15.8501 19.2707 15.8501ZM11.0002 15.8501C10.2248 15.8501 9.59424 16.4831 9.59424 17.2608C9.59424 18.0385 10.2251 18.6714 11.0002 18.6714C11.7752 18.6714 12.4061 18.0385 12.4061 17.2608C12.4061 16.4831 11.7752 15.8501 11.0002 15.8501ZM2.72934 15.8501C1.95396 15.8501 1.32342 16.4831 1.32342 17.2608C1.32342 18.0385 1.95427 18.6714 2.72934 18.6714C3.50441 18.6714 4.13525 18.0385 4.13525 17.2608C4.13525 16.4831 3.50441 15.8501 2.72934 15.8501ZM11.0002 1.32754C10.2248 1.32754 9.59424 1.96053 9.59424 2.73822C9.59424 3.51591 10.2251 4.1489 11.0002 4.1489C11.7752 4.1489 12.4061 3.51591 12.4061 2.73822C12.4061 1.96053 11.7752 1.32754 11.0002 1.32754Z" fill="#010B1E"/>
</g>
<defs>
<clipPath id="clip0_1518_1623">
<rect width="22" height="20" fill="white"/>
</clipPath>
</defs>
</svg>
