<svg width="23" height="20" viewBox="0 0 23 20" fill="none" xmlns="http://www.w3.org/2000/svg">
<g clip-path="url(#clip0_1518_1695)">
<path d="M-0.000375444 19.1069V18.7503L0.127062 18.4081L10.6022 0.468191C11.1137 -0.17407 11.9487 -0.153237 12.435 0.512239L22.9726 18.614C23.1072 19.3694 22.7201 19.9426 21.9344 20.0003L0.968027 19.9986C0.472104 19.9313 0.126461 19.5724 -0.000976562 19.1069H-0.000375444ZM10.6394 11.5991V3.33426L2.61389 17.0349L3.25949 16.6486L10.6388 11.5997L10.6394 11.5991ZM12.4428 3.4676V11.5991L19.777 16.7372L20.4677 17.1682L12.4428 3.4676ZM19.2955 18.5724L11.5615 13.1783L3.65142 18.5724H19.2955Z" fill="black"/>
</g>
<defs>
<clipPath id="clip0_1518_1695">
<rect width="23" height="20" fill="white"/>
</clipPath>
</defs>
</svg>
