<svg width="24" height="24" viewBox="0 0 24 24" fill="none" xmlns="http://www.w3.org/2000/svg">
<g clip-path="url(#clip0_1518_1659)">
<path d="M22.8212 7.54786H21.8166C21.1297 5.99032 19.5718 4.8999 17.7632 4.8999C15.9545 4.8999 14.3965 5.99032 13.7097 7.54786H1.17876C0.52877 7.54786 0 8.07669 0 8.72663V17.0345C0 17.6845 0.52877 18.2132 1.17876 18.2132H1.35652C1.45692 18.7179 1.90289 19.0996 2.43666 19.0996C2.97037 19.0996 3.41635 18.7179 3.51675 18.2132H20.479C20.5794 18.7179 21.0254 19.0996 21.5591 19.0996C22.0929 19.0996 22.5389 18.7179 22.6393 18.2132H22.8213C23.4713 18.2132 24.0001 17.6845 24.0001 17.0345V8.72663C24 8.07669 23.4712 7.54786 22.8212 7.54786ZM17.7631 5.7884C19.715 5.7884 21.303 7.37644 21.303 9.32836C21.303 11.2803 19.715 12.8683 17.7631 12.8683C15.8112 12.8683 14.2231 11.2803 14.2231 9.32836C14.2231 7.37644 15.8112 5.7884 17.7631 5.7884ZM23.1115 17.0345C23.1115 17.1918 22.9786 17.3248 22.8212 17.3248H1.17876C1.02144 17.3248 0.888502 17.1918 0.888502 17.0345V8.72663C0.888502 8.56931 1.02144 8.43636 1.17876 8.43636H13.4249C13.3657 8.72457 13.3346 9.02289 13.3346 9.32836C13.3346 11.7702 15.3212 13.7568 17.7631 13.7568C20.2049 13.7568 22.1915 11.7702 22.1915 9.32836C22.1915 9.02294 22.1604 8.72457 22.1012 8.43636H22.8212C22.9785 8.43636 23.1114 8.56931 23.1114 8.72663L23.1115 17.0345Z" fill="black"/>
<path d="M17.7632 11.9927C19.2324 11.9927 20.4277 10.7974 20.4277 9.32814C20.4277 7.85889 19.2324 6.66357 17.7632 6.66357C16.2939 6.66357 15.0986 7.85889 15.0986 9.32814C15.0986 10.7974 16.2939 11.9927 17.7632 11.9927ZM17.7632 7.55208C18.7425 7.55208 19.5392 8.34884 19.5392 9.32814C19.5392 10.3075 18.7425 11.1042 17.7632 11.1042C16.7838 11.1042 15.9871 10.3074 15.9871 9.32814C15.9871 8.34884 16.7839 7.55208 17.7632 7.55208Z" fill="black"/>
<path d="M21.3228 14.2256C20.5853 14.2256 19.9854 14.8256 19.9854 15.5631C19.9854 16.3005 20.5853 16.9005 21.3228 16.9005C22.0603 16.9005 22.6602 16.3005 22.6602 15.5631C22.6602 14.8256 22.0603 14.2256 21.3228 14.2256ZM21.3228 16.012C21.0752 16.012 20.8739 15.8107 20.8739 15.5631C20.8739 15.3156 21.0752 15.1141 21.3228 15.1141C21.5703 15.1141 21.7717 15.3156 21.7717 15.5631C21.7717 15.8107 21.5703 16.012 21.3228 16.012Z" fill="black"/>
<path d="M18.6559 14.6699C18.1634 14.6699 17.7627 15.0706 17.7627 15.5631C17.7627 16.0557 18.1634 16.4563 18.6559 16.4563C19.1484 16.4563 19.5491 16.0557 19.5491 15.5631C19.5491 15.0706 19.1484 14.6699 18.6559 14.6699Z" fill="black"/>
<path d="M10.225 10.2134H2.65226C2.40692 10.2134 2.20801 10.4123 2.20801 10.6576C2.20801 10.903 2.40692 11.1019 2.65226 11.1019H10.225C10.4704 11.1019 10.6693 10.903 10.6693 10.6576C10.6693 10.4123 10.4704 10.2134 10.225 10.2134Z" fill="black"/>
<path d="M10.225 12.4438H2.65226C2.40692 12.4438 2.20801 12.6428 2.20801 12.8881C2.20801 13.1334 2.40692 13.3323 2.65226 13.3323H10.225C10.4704 13.3323 10.6693 13.1334 10.6693 12.8881C10.6693 12.6428 10.4704 12.4438 10.225 12.4438Z" fill="black"/>
<path d="M10.225 14.6743H2.65226C2.40692 14.6743 2.20801 14.8732 2.20801 15.1186C2.20801 15.3639 2.40692 15.5628 2.65226 15.5628H10.225C10.4704 15.5628 10.6693 15.3639 10.6693 15.1186C10.6693 14.8732 10.4704 14.6743 10.225 14.6743Z" fill="black"/>
</g>
<defs>
<clipPath id="clip0_1518_1659">
<rect width="24" height="24" fill="white"/>
</clipPath>
</defs>
</svg>
