<svg width="106" height="42" viewBox="0 0 106 42" fill="none" xmlns="http://www.w3.org/2000/svg">
<path d="M57.6871 40.8002H60.0907C67.3016 40.4402 72.3492 34.8002 72.3492 28.0802C72.3492 25.8002 71.8685 23.5202 70.7868 21.7202H57.6871V40.8002Z" fill="#FF000F"/>
<path d="M56.4853 21.6001H44.4671V40.8001H56.4853V21.6001Z" fill="#FF000F"/>
<path d="M70.0658 20.4002C68.8639 18.7202 67.1814 17.4002 65.3787 16.4402C67.542 14.8802 68.9841 12.3602 68.9841 9.6002C68.9841 4.9202 65.2585 1.2002 60.5714 1.2002H57.6871V20.4002H70.0658Z" fill="#FF000F"/>
<path d="M56.4853 1.2002H44.4671V20.4002H56.4853V1.2002Z" fill="#FF000F"/>
<path d="M90.136 40.8002H92.5397C99.7506 40.4402 104.798 34.8002 104.798 28.0802C104.798 25.8002 104.317 23.5202 103.236 21.7202H90.136V40.8002Z" fill="#FF000F"/>
<path d="M88.9342 21.6001H76.9161V40.8001H88.9342V21.6001Z" fill="#FF000F"/>
<path d="M102.515 20.4002C101.313 18.7202 99.6304 17.4002 97.8277 16.4402C99.9909 14.8802 101.433 12.3602 101.433 9.6002C101.433 4.9202 97.7075 1.2002 93.0204 1.2002H90.136V20.4002H102.515Z" fill="#FF000F"/>
<path d="M88.9342 1.2002H76.9161V20.4002H88.9342V1.2002Z" fill="#FF000F"/>
<path d="M8.05215 21.6001L1.20181 40.8001H11.1769L14.0612 32.4001H20.4308V21.6001H8.05215Z" fill="#FF000F"/>
<path d="M20.4308 1.2002H15.263L8.4127 20.4002H20.4308V1.2002Z" fill="#FF000F"/>
<path d="M21.6327 32.4001H28.0023L30.8866 40.8001H40.8617L34.0113 21.6001H21.6327V32.4001Z" fill="#FF000F"/>
<path d="M33.6508 20.4002L26.8005 1.2002H21.6327V20.4002H33.6508Z" fill="#FF000F"/>
</svg>
