<svg width="129" height="42" viewBox="0 0 129 42" fill="none" xmlns="http://www.w3.org/2000/svg">
<path d="M58.4671 17.9602H48.8706V9.76465H42.7874V32.013H48.8706V23.1003H58.4671V32.013H64.5381V9.76465H58.4671V17.9602Z" fill="#EE2326"/>
<path d="M73.2953 18.2802C73.8051 15.2767 75.4655 13.7079 78.1577 13.7079C80.8803 13.7079 82.73 15.5575 82.8186 18.2802H73.2953ZM78.1912 9.17822C71.4975 9.17822 67.0076 13.7994 67.0076 20.7313C67.0076 27.9408 71.4456 32.5224 78.3835 32.5224C83.9265 32.5224 87.7267 29.9798 89.1521 25.1663H82.5866C81.9914 26.9244 80.6026 27.8065 78.5148 27.8065C75.377 27.8065 73.4907 25.9477 73.332 22.7153H89.1521C89.1521 21.9339 89.1979 21.6592 89.1979 21.2868C89.1979 13.7994 84.9491 9.17822 78.1912 9.17822Z" fill="#EE2326"/>
<path d="M99.5391 9.5718C97.3872 9.99913 91.8656 11.6596 91.8656 20.084V32.0095H98.0191V22.1596C98.0191 18.5121 98.5258 16.7997 100.046 15.6948C100.977 14.95 102.323 14.5379 103.886 14.5379C104.533 14.5379 104.81 14.5868 105.552 14.7211V9.67253C105.552 9.67253 103.098 8.87588 99.5391 9.5718Z" fill="#EE2326"/>
<path d="M117.722 27.8921C114.48 27.8921 112.588 25.261 112.588 20.8688C112.588 16.4307 114.44 13.8423 117.722 13.8423C120.954 13.8423 122.807 16.3849 122.807 20.823C122.807 25.3099 120.954 27.8921 117.722 27.8921ZM117.722 9.17529C110.823 9.17822 106.385 13.7507 106.385 20.8688C106.385 27.9379 110.823 32.5195 117.722 32.5195C124.556 32.5195 129 27.9379 129 20.8688C129 13.7507 124.556 9.17529 117.722 9.17529Z" fill="#EE2326"/>
<path d="M26.1278 7.0295L16.6138 0V20.0232L26.1278 13.4272V7.0295Z" fill="#010B1E"/>
<path d="M26.1278 35.6605V21.9067L16.6138 28.747L26.1278 35.6605Z" fill="#010B1E"/>
<path d="M0 34.8605L9.51712 41.7771V13.1433L0 6.11377V34.8605Z" fill="#EE2326"/>
</svg>
