<svg width="78" height="82" viewBox="0 0 78 82" fill="none" xmlns="http://www.w3.org/2000/svg">
<path d="M12.336 45.8967C21.0735 30.5989 29.8106 15.3012 38.5491 0.00439453C36.9168 10.478 35.2782 20.9502 33.646 31.4238C33.6343 31.5335 33.529 31.5949 33.4656 31.6754C22.3109 43.6184 11.1537 55.559 0 67.5031C4.10355 60.2959 8.22611 53.0999 12.336 45.8967Z" fill="white"/>
<path d="M39.4192 0C52.2841 22.503 65.1364 45.0133 77.9999 67.5172C72.874 62.0491 67.7608 56.5682 62.6383 51.0962C56.5515 44.5857 50.4637 38.0757 44.3764 31.5657C44.314 31.4823 44.3247 31.3692 44.3037 31.2727C42.6773 20.8483 41.0456 10.4244 39.4192 0Z" fill="white"/>
<path d="M20.7108 47.9295C21.0442 47.5682 21.3538 47.1836 21.7005 46.836C23.8753 46.8252 26.0512 46.8326 28.2265 46.8321C24.4633 53.7282 20.6805 60.6136 16.9178 67.5097C12.3711 67.5097 7.82484 67.5117 3.27812 67.5092C9.09095 60.9841 14.8994 54.4556 20.7108 47.9295Z" fill="white"/>
<path d="M30.3809 46.8307C34.1773 46.8316 37.9732 46.8282 41.7691 46.8316C42.105 49.1255 42.4453 51.4183 42.7803 53.7122C41.5244 53.7131 40.269 53.7136 39.0131 53.7131C39.0126 58.312 39.0131 62.9109 39.0126 67.5103C35.0354 67.5112 31.0581 67.5078 27.0813 67.5122C27.6571 65.5309 28.2616 63.5578 28.8486 61.5799C29.6306 58.9712 30.4067 56.3609 31.1912 53.7531C29.9065 53.7541 28.6224 53.7531 27.3377 53.7541C28.3528 51.4466 29.3659 49.1381 30.3809 46.8307Z" fill="white"/>
<path d="M45.5544 46.9351C45.9712 46.763 46.4256 46.8435 46.8624 46.8303C50.0148 46.8293 53.1672 46.8318 56.32 46.8289C58.1785 48.9052 60.0262 50.9929 61.8837 53.0707C59.3125 53.0717 56.7408 53.0688 54.1695 53.0727C53.6605 53.0844 53.2783 53.6918 53.5206 54.1506C54.3007 55.6132 55.0958 57.0685 55.8798 58.5296C56.186 59.2078 56.8938 59.6719 57.6378 59.6831C60.6766 59.6836 63.7154 59.6831 66.7537 59.6831C67.0871 59.6885 67.4216 59.6724 67.7546 59.6899C70.0704 62.287 72.373 64.8972 74.6819 67.5007C67.0013 67.5026 59.3213 67.5021 51.6407 67.5011C51.3009 67.4924 50.9577 67.5421 50.6213 67.4753C49.8012 67.3481 49.0636 66.7947 48.7102 66.0444C48.5361 65.7051 48.4859 65.3233 48.3859 64.9596C47.0613 59.6456 45.7299 54.3324 44.4087 49.0174C44.2083 48.1657 44.728 47.2223 45.5544 46.9351Z" fill="white"/>
<path d="M20.1436 73.398C20.848 72.79 21.79 72.4229 22.7275 72.5219C23.311 72.5697 23.8727 72.8017 24.3324 73.163C24.4758 73.2678 24.682 73.397 24.8531 73.2756C25.073 73.0909 25.0062 72.7452 25.2202 72.5555C25.2851 72.5945 25.3792 72.6233 25.365 72.7203C25.3801 73.6778 25.3767 74.6368 25.4123 75.5938C25.4167 75.7269 25.4079 75.8625 25.3597 75.9892C25.2919 75.9678 25.1988 75.9619 25.1832 75.8766C25.0218 75.4232 24.8975 74.9537 24.6844 74.5203C24.4943 74.141 24.289 73.7627 24.0009 73.4482C23.6733 73.0821 23.2248 72.8071 22.7294 72.7584C22.0839 72.6979 21.3536 72.8871 20.9607 73.4375C20.6759 73.828 20.5628 74.3082 20.4668 74.7733C20.342 75.4963 20.3064 76.2306 20.2718 76.9628C20.262 77.8726 20.2747 78.8111 20.6067 79.672C20.792 80.1518 21.105 80.6086 21.572 80.8489C22.0776 81.1137 22.6777 81.081 23.2199 80.963C23.8537 80.8275 24.429 80.4282 24.7566 79.8661C25.0881 79.3303 25.1851 78.6936 25.2188 78.0754C25.3314 78.0466 25.4469 78.0525 25.5605 78.0754C25.5766 78.1412 25.6141 78.2055 25.601 78.2777C25.561 78.7257 25.4776 79.1723 25.3241 79.5965C25.0447 80.3907 24.3163 80.983 23.5046 81.1712C22.9317 81.3014 22.3253 81.3745 21.7475 81.2307C21.065 81.0664 20.4351 80.7173 19.8998 80.2673C19.7175 80.1103 19.5439 79.9377 19.4244 79.7271C19.2129 79.3659 18.9813 79.0129 18.8306 78.6199C18.4255 77.5849 18.4284 76.3973 18.8394 75.3647C19.1271 74.6276 19.5644 73.9406 20.1436 73.398Z" fill="white"/>
<path d="M72.749 72.5931C72.9299 72.5809 73.1108 72.5415 73.2931 72.5629C73.4087 72.5844 73.4872 72.6965 73.4798 72.8125C73.4837 75.218 73.4813 77.624 73.4808 80.0294C73.4716 80.2766 73.4633 80.5877 73.7022 80.7373C73.9947 80.8841 74.3364 80.847 74.6538 80.8524C74.7089 80.928 74.7196 81.063 74.5982 81.0698C73.8689 81.1176 73.1381 81.1454 72.4083 81.1815C72.2742 81.1961 72.1026 81.1503 72.0743 80.9996C72.0524 80.7573 72.0811 80.5131 72.0631 80.2713C72.0402 80.2391 72.0173 80.2089 71.9943 80.1811C71.8305 80.3649 71.6818 80.5652 71.4854 80.7178C70.9798 81.1405 70.2768 81.3151 69.6332 81.1659C68.9336 81.0162 68.3476 80.5165 67.9981 79.9046C67.529 79.0866 67.4067 78.071 67.686 77.1691C67.9283 76.4008 68.4544 75.7153 69.1628 75.3233C69.6791 75.0376 70.307 74.9162 70.8803 75.0888C71.363 75.2248 71.7398 75.5832 72.0221 75.9839C72.0982 75.8659 72.0563 75.7231 72.0611 75.5934C72.0558 74.9109 72.0616 74.2283 72.0606 73.5458C72.0645 73.3249 71.9241 73.1046 71.715 73.0285C71.4171 72.9178 71.0939 72.9593 70.7843 72.9281C70.7867 72.8506 70.7594 72.7496 70.8584 72.7253C71.4888 72.6814 72.1187 72.6341 72.749 72.5931ZM70.2324 75.3253C69.8609 75.433 69.6045 75.7582 69.4553 76.0999C69.1823 76.7215 69.1423 77.4119 69.1218 78.0813C69.135 78.5556 69.1515 79.0339 69.253 79.4995C69.3353 79.8671 69.4641 80.242 69.7278 80.5219C70.012 80.8295 70.4767 80.946 70.8769 80.8339C71.1353 80.7529 71.3566 80.574 71.5102 80.3532C71.8378 79.8973 71.969 79.3342 72.0333 78.7853C72.1055 78.0354 72.0787 77.2622 71.8452 76.5412C71.7077 76.1404 71.5014 75.7382 71.1519 75.4832C70.8925 75.2892 70.5415 75.2292 70.2324 75.3253Z" fill="white"/>
<path d="M39.4126 72.6776C39.8709 72.5381 40.3965 72.8779 40.4472 73.3557C40.532 73.8291 40.1215 74.303 39.6432 74.2957C39.2249 74.3132 38.8383 73.9646 38.81 73.5478C38.7642 73.1607 39.0362 72.7717 39.4126 72.6776Z" fill="white"/>
<path d="M55.4024 72.6756C55.9099 72.524 56.4721 72.9672 56.4326 73.4971C56.4345 73.9954 55.9182 74.3966 55.4356 74.2782C55.0251 74.1972 54.7277 73.7736 54.7949 73.3597C54.8301 73.0354 55.087 72.7527 55.4024 72.6756Z" fill="white"/>
<path d="M59.0531 72.8142C59.0663 72.6543 59.3383 72.6597 59.3515 72.8181C59.353 73.5319 59.3496 74.2466 59.351 74.9603C59.3315 75.0661 59.4271 75.1617 59.5324 75.1549C60.038 75.1636 60.5445 75.1461 61.0501 75.1622C61.2002 75.1734 61.2231 75.3952 61.0983 75.4606C60.5928 75.4591 60.0867 75.4508 59.5816 75.4601C59.4339 75.4523 59.3359 75.6014 59.352 75.7384C59.3491 77.2015 59.353 78.6651 59.3505 80.1287C59.3403 80.4007 59.4436 80.7088 59.7011 80.8385C60.0731 81.0189 60.5689 80.9243 60.8263 80.5928C61.0983 80.2418 61.1676 79.7786 61.1661 79.3462C61.1544 79.2652 61.1973 79.1975 61.2344 79.1312C61.3055 79.1424 61.404 79.1136 61.4489 79.1921C61.5147 79.2784 61.4737 79.3915 61.4718 79.4915C61.4328 80.0287 61.2738 80.5957 60.8731 80.977C60.5991 81.248 60.2081 81.3714 59.8293 81.3772C59.3812 81.386 58.9147 81.3265 58.5222 81.0974C58.1483 80.8834 57.8918 80.4651 57.8987 80.0312C57.9001 78.6334 57.8992 77.2357 57.8996 75.8384C57.8865 75.718 57.9035 75.5634 57.7943 75.4844C57.6525 75.4279 57.4921 75.4654 57.3434 75.4562C57.1757 75.4415 56.988 75.5093 56.8417 75.403C56.8368 75.2987 56.8612 75.149 56.9982 75.1588C57.7017 75.2202 58.3569 74.7473 58.6675 74.1398C58.8708 73.724 58.9829 73.2696 59.0531 72.8142Z" fill="white"/>
<path d="M9.60634 72.8161C12.0406 72.8166 14.4748 72.8151 16.9091 72.8166C16.9042 73.9272 16.9164 75.0378 16.9032 76.1479C16.9135 76.3029 16.7165 76.3336 16.6268 76.2347C16.5059 75.4195 16.2524 74.618 15.8297 73.9082C15.6361 73.5942 15.3733 73.2817 15.0004 73.1891C14.7205 73.1276 14.4324 73.095 14.1467 73.114C14.0414 73.1876 14.0312 73.3319 14.0307 73.4504C14.0336 75.7247 14.0312 77.9995 14.0317 80.2739C14.0224 80.4684 14.1267 80.6683 14.313 80.7424C14.7288 80.9179 15.1954 80.8555 15.6273 80.954C15.6478 81.0617 15.6035 81.1929 15.4684 81.169C13.9727 81.1724 12.4764 81.168 10.9807 81.1714C10.9046 81.1656 10.8062 81.1802 10.7608 81.1032C10.7623 81.0637 10.7657 80.9837 10.7671 80.9442C11.2513 80.8638 11.7656 80.8589 12.2098 80.6244C12.3414 80.5542 12.4974 80.4474 12.4901 80.2797C12.4915 77.9708 12.4906 75.6613 12.4906 73.3524C12.4984 73.2549 12.4623 73.1203 12.3458 73.113C11.9831 73.0901 11.595 73.1218 11.2766 73.3129C10.8773 73.5859 10.6292 74.0203 10.421 74.4459C10.1475 75.0012 10.0046 75.6077 9.8774 76.2098C9.83011 76.3297 9.68629 76.2995 9.60536 76.2332C9.60634 75.0938 9.60585 73.955 9.60634 72.8161Z" fill="white"/>
<path d="M3.31249 73.0707C3.30078 72.984 3.29737 72.8504 3.41974 72.8587C4.78678 72.8567 6.1543 72.8562 7.52183 72.8582C7.64469 72.8484 7.63689 72.9835 7.6286 73.0693C7.25076 73.158 6.83977 73.1244 6.4829 73.2974C6.33469 73.3681 6.23718 73.529 6.25084 73.6948C6.25132 75.9057 6.24986 78.1162 6.25132 80.3272C6.23767 80.5197 6.38393 80.6835 6.55847 80.7445C6.87878 80.8581 7.22395 80.8722 7.55888 80.9151C7.63884 80.939 7.65054 81.0287 7.62421 81.0989C7.56376 81.1759 7.45894 81.1564 7.37313 81.1628C6.0724 81.1589 4.77167 81.1638 3.47093 81.1599C3.35246 81.1779 3.27104 81.0736 3.31102 80.9629C3.39195 80.8776 3.52017 80.9088 3.62451 80.8883C3.88972 80.8517 4.1642 80.8337 4.41431 80.7308C4.57714 80.667 4.69707 80.5041 4.68976 80.3267C4.69171 78.1147 4.69025 75.9028 4.69025 73.6914C4.70292 73.4998 4.56934 73.3286 4.39432 73.2658C4.04817 73.1331 3.66985 73.1483 3.31249 73.0707Z" fill="white"/>
<path d="M30.2469 72.8744C31.689 72.8534 33.1331 72.8705 34.5757 72.8656C34.7103 72.829 34.7868 73.0387 34.6635 73.0972C34.2539 73.1596 33.82 73.1308 33.4266 73.281C33.2179 73.3541 33.1063 73.5759 33.1219 73.789C33.1229 75.9526 33.1185 78.1168 33.1233 80.2804C33.1068 80.5096 33.2696 80.7197 33.4885 80.7782C33.8746 80.8879 34.2837 80.9337 34.6825 80.8704C35.2358 80.8021 35.8345 80.6948 36.2528 80.2941C36.8525 79.7183 37.0801 78.8793 37.2084 78.0841C37.2318 77.9764 37.223 77.8077 37.3546 77.7711C37.4897 77.8072 37.5019 77.9647 37.5014 78.0807C37.5014 79.0406 37.5009 80.0006 37.5019 80.961C37.5199 81.0507 37.4546 81.1565 37.3576 81.1575C35.131 81.1653 32.904 81.1755 30.6769 81.1716C30.5326 81.1634 30.3829 81.1921 30.243 81.1526C30.1367 81.1039 30.1767 80.9298 30.2874 80.9264C30.6233 80.8757 30.9758 80.8777 31.2946 80.7475C31.4823 80.6739 31.5979 80.4764 31.5847 80.2775C31.5847 78.0992 31.5837 75.9209 31.5847 73.7426C31.5974 73.5306 31.4521 73.3331 31.2532 73.2668C30.9431 73.1635 30.6126 73.1483 30.2908 73.1079C30.1674 73.1025 30.1455 72.9294 30.2469 72.8744Z" fill="white"/>
<path d="M45.4264 75.4268C45.734 75.2113 46.0962 75.0577 46.476 75.0465C46.9241 75.0261 47.3994 75.0963 47.769 75.3683C48.0702 75.5892 48.2789 75.9197 48.3954 76.2712C48.4232 76.3585 48.4686 76.4384 48.5202 76.515C48.665 76.3741 48.7138 76.1693 48.8454 76.0192C49.1141 75.6964 49.4344 75.4088 49.8156 75.2259C50.2729 74.9919 50.8146 75.009 51.3045 75.1153C51.9778 75.2596 52.5536 75.8709 52.5706 76.5725C52.5926 76.9611 52.5653 77.3501 52.5663 77.7392C52.5214 78.5841 52.5404 79.4314 52.4965 80.2763C52.4824 80.4615 52.538 80.6726 52.7208 80.7584C52.9958 80.8847 53.3063 80.9003 53.6013 80.9544C53.6164 81.0217 53.6144 81.0909 53.5998 81.1597C52.9304 81.185 52.2601 81.1636 51.5907 81.1709C51.0183 81.1636 50.4455 81.1845 49.8741 81.1597C49.8571 81.0905 49.8566 81.0212 49.8746 80.9544C50.1647 80.9057 50.4635 80.8847 50.7405 80.7794C50.9033 80.7151 51.0115 80.5473 51.0013 80.3723C51.014 79.2027 51.0008 78.0331 51.0076 76.864C51.0379 76.5408 51.03 76.1995 50.8911 75.9007C50.7824 75.6652 50.5367 75.5014 50.2763 75.5038C49.8936 75.4873 49.5382 75.6954 49.2891 75.9724C48.8766 76.434 48.6299 77.0259 48.5354 77.6339C48.4432 78.0366 48.4764 78.4505 48.471 78.86C48.4725 79.3656 48.4676 79.8716 48.4725 80.3777C48.4637 80.5532 48.5778 80.7165 48.7396 80.7814C48.9956 80.8842 49.2759 80.8935 49.5421 80.9559C49.6191 80.9983 49.6177 81.1139 49.5387 81.1553C49.4446 81.1777 49.3476 81.1685 49.2525 81.1709C48.1624 81.1675 47.0723 81.1733 45.9822 81.1694C45.8671 81.2001 45.7633 81.0578 45.8505 80.9681C46.165 80.8686 46.5292 80.9076 46.8144 80.7204C47.0201 80.5756 46.9767 80.2977 46.9792 80.0803C46.9811 78.9102 46.9723 77.7401 46.985 76.5706C46.9616 76.2463 46.9119 75.8802 46.6584 75.6496C46.4629 75.4707 46.1708 75.479 45.9324 75.5506C45.579 75.6511 45.2996 75.9143 45.0919 76.2073C44.8365 76.5788 44.6492 77.0001 44.5751 77.4466C44.384 78.3115 44.4752 79.2008 44.4537 80.0783C44.4533 80.3045 44.4186 80.6005 44.6458 80.737C44.9193 80.8871 45.2431 80.8906 45.5429 80.953C45.5551 80.9749 45.5785 81.0198 45.5902 81.0417C45.5795 81.0709 45.5575 81.1295 45.5468 81.1587C45.0427 81.186 44.5371 81.1636 44.0325 81.1709C43.2842 81.1675 42.5353 81.1782 41.7874 81.166C41.6612 81.1626 41.6646 81.0154 41.7304 80.9437C42.0419 80.9164 42.3603 80.893 42.6596 80.7955C42.8395 80.7409 42.9765 80.5668 42.9604 80.3752C42.9619 78.9258 42.9634 77.4759 42.9604 76.0265C42.9663 75.8344 42.8147 75.6735 42.6377 75.6228C42.3808 75.5458 42.1116 75.5209 41.8464 75.4877C41.6802 75.4634 41.7465 75.2094 41.8854 75.2064C42.6182 75.1791 43.3505 75.1387 44.0827 75.0992C44.25 75.0807 44.4479 75.1738 44.463 75.36C44.4991 75.6949 44.4235 76.0318 44.4591 76.3682C44.5176 76.4896 44.6098 76.3702 44.64 76.2961C44.8072 75.9348 45.1104 75.6589 45.4264 75.4268Z" fill="white"/>
<path d="M64.1322 75.0695C64.9356 74.9584 65.8127 75.1768 66.4065 75.7467C66.9579 76.2815 67.1573 77.0869 67.1198 77.8348C67.1242 77.9255 67.0423 78.004 66.9511 77.985C65.7323 77.9791 64.5139 77.9923 63.2956 77.9947C63.1732 77.9952 63.1337 78.1307 63.1318 78.2312C63.0894 78.861 63.1172 79.5192 63.3736 80.1052C63.5452 80.5021 63.8918 80.8297 64.3184 80.9282C64.9766 81.0764 65.7269 80.9004 66.1974 80.4012C66.4953 80.0891 66.6825 79.6821 66.761 79.2603C66.7736 79.1701 66.8443 79.0678 66.9491 79.0921C67.1159 79.116 67.0652 79.3232 67.0588 79.4427C66.9262 80.1491 66.4158 80.7668 65.7523 81.0413C64.9322 81.384 63.9499 81.3723 63.1659 80.9379C62.2883 80.4699 61.6819 79.5494 61.5712 78.5641C61.3508 76.9782 62.5477 75.3299 64.1322 75.0695ZM64.2882 75.3303C64.0298 75.3859 63.7963 75.5439 63.6461 75.7608C63.3102 76.2367 63.2507 76.8344 63.1786 77.3955C63.1523 77.5364 63.2156 77.7417 63.3916 77.7295C64.0093 77.7358 64.627 77.7314 65.2447 77.731C65.4154 77.7363 65.6323 77.6973 65.6918 77.5096C65.7703 77.2376 65.7654 76.9494 65.7488 76.6696C65.7284 76.2815 65.6484 75.8603 65.3608 75.5775C65.0799 75.305 64.6563 75.2684 64.2882 75.3303Z" fill="white"/>
<path d="M39.4556 75.1855C39.6998 75.1836 39.9426 75.1324 40.1864 75.1519C40.3273 75.1724 40.3921 75.3152 40.3785 75.4459C40.3799 77.1059 40.3756 78.7664 40.3795 80.4265C40.3726 80.5937 40.5047 80.7317 40.6573 80.7804C40.9611 80.8789 41.2838 80.896 41.5963 80.955C41.7031 80.9949 41.666 81.1792 41.55 81.1675C40.3146 81.1748 39.0787 81.1719 37.8438 81.1685C37.7219 81.1846 37.719 81.0456 37.7439 80.9652C38.033 80.8838 38.3255 80.8131 38.617 80.7395C38.8208 80.6868 38.9695 80.4913 38.9549 80.2792C38.9578 78.8786 38.9559 77.4779 38.9544 76.0777C38.9641 75.889 38.8457 75.7101 38.6702 75.6433C38.3932 75.5424 38.0954 75.5278 37.8063 75.4858C37.72 75.4615 37.7439 75.364 37.7317 75.2986C37.8604 75.2484 37.9993 75.2484 38.1358 75.2465C38.5761 75.2372 39.0149 75.1933 39.4556 75.1855Z" fill="white"/>
<path d="M54.4694 75.2339C54.9886 75.1959 55.5098 75.1905 56.0286 75.1467C56.1641 75.1247 56.3518 75.191 56.3474 75.3548C56.3532 77.0285 56.3474 78.7027 56.3508 80.3764C56.342 80.5456 56.4434 80.7069 56.6029 80.7679C56.9163 80.8815 57.2542 80.8922 57.5794 80.9556C57.6998 81.0165 57.6189 81.2013 57.4926 81.1696C56.2718 81.1706 55.051 81.1735 53.8308 81.1686C53.7201 81.1872 53.6582 81.0302 53.7484 80.9707C54.0404 80.8522 54.3592 80.8205 54.6557 80.7167C54.837 80.6543 54.9404 80.4656 54.936 80.2808C54.9375 78.8792 54.9375 77.478 54.936 76.0764C54.9453 75.8784 54.8136 75.6946 54.6269 75.6332C54.3568 75.5455 54.0711 75.5211 53.7903 75.4894C53.705 75.4611 53.724 75.3616 53.7152 75.2944C53.9595 75.2212 54.2183 75.2568 54.4694 75.2339Z" fill="white"/>
</svg>
