<svg width="162" height="37" viewBox="0 0 162 37" fill="none" xmlns="http://www.w3.org/2000/svg">
<path d="M60.9493 25.4655C61.4354 25.6005 62.0835 25.6545 62.9206 25.6545H78.2322L76.3688 31.2715H60.8683C59.032 31.2715 57.5197 31.1094 56.3585 30.8124C55.1703 30.4883 54.2522 29.9482 53.7121 29.1921C53.145 28.436 52.9019 27.4638 52.956 26.3026C53.01 25.1955 53.307 23.8182 53.8471 22.198L59.356 4.375H65.7831L60.2472 22.279C60.0311 22.9541 59.8961 23.5482 59.8691 24.0073C59.8421 24.4123 59.9231 24.7094 60.0851 24.9524C60.2202 25.1685 60.5172 25.3575 60.9493 25.4655ZM109.206 15.7709C109.152 16.9051 108.855 18.2823 108.315 19.8756L107.451 22.495C106.911 24.0883 106.317 25.4655 105.642 26.5727C104.94 27.7069 104.102 28.625 103.103 29.3271C102.104 30.0293 100.916 30.5423 99.5657 30.8394C98.2155 31.1364 96.5952 31.2985 94.7319 31.2985H88.1698C86.3335 31.2985 84.8212 31.1364 83.6601 30.8394C82.4719 30.5153 81.5537 29.9753 81.0136 29.2191C80.4465 28.463 80.2035 27.4908 80.2575 26.3296C80.3115 25.2225 80.6085 23.8452 81.1486 22.225L82.0398 19.5785C82.5799 17.9853 83.174 16.608 83.8761 15.5008C84.5782 14.3667 85.4153 13.4485 86.4145 12.7464C87.4137 12.0443 88.6019 11.5312 89.9521 11.2341C91.3023 10.9371 92.8956 10.7751 94.7319 10.7751H101.294C103.157 10.7751 104.697 10.9371 105.831 11.2341C107.019 11.5582 107.937 12.1253 108.477 12.8814C109.017 13.5835 109.26 14.5827 109.206 15.7709ZM95.515 25.8166C96.4602 25.8166 97.2433 25.7626 97.8914 25.6545C98.4855 25.5465 98.9986 25.3575 99.4037 25.0874C99.8087 24.8174 100.133 24.4663 100.403 24.0073C100.7 23.5212 100.97 22.8731 101.24 22.0899L102.023 19.7676C102.293 18.9844 102.428 18.3363 102.482 17.8502C102.509 17.4452 102.455 17.1211 102.266 16.9321C102.077 16.7161 101.753 16.554 101.267 16.473C100.7 16.365 99.9438 16.311 98.9986 16.311H93.8948C92.9496 16.311 92.1665 16.365 91.5454 16.473C90.9513 16.581 90.4652 16.7431 90.0601 17.0131C89.6551 17.2831 89.331 17.6342 89.0609 18.1203C88.7639 18.6334 88.4939 19.2815 88.2238 20.0646L87.4407 22.387C87.1706 23.1701 87.0356 23.8182 86.9816 24.3043C86.9546 24.7094 87.0086 25.0064 87.1976 25.2225C87.3867 25.4385 87.7107 25.6005 88.1968 25.7085C88.7369 25.8166 89.493 25.8706 90.4112 25.8706H95.515M139.154 15.7439C139.208 14.5557 138.965 13.5565 138.398 12.8274C137.831 12.0983 136.94 11.5582 135.725 11.2071C134.564 10.9101 133.024 10.7481 131.161 10.7481H120.872L122.979 4.402H116.633L107.667 31.2985H114.013L119.009 16.284H129.46C130.243 16.284 130.891 16.338 131.377 16.446C131.782 16.527 132.052 16.689 132.214 16.8781C132.376 17.0941 132.43 17.4182 132.376 17.8232C132.322 18.3093 132.187 18.9844 131.917 19.7406L128.082 31.2715H134.428L138.236 19.8216C138.776 18.2283 139.073 16.8511 139.154 15.7439ZM154.061 10.7211C152.359 10.7211 150.847 10.8831 149.551 11.2071C148.228 11.5312 147.067 12.0443 146.067 12.7464C145.068 13.4485 144.204 14.3397 143.475 15.4198C142.773 16.473 142.152 17.7962 141.666 19.3085L137.669 31.2985H144.015L147.904 19.6325C148.147 18.8764 148.417 18.2553 148.714 17.7962C148.984 17.3372 149.308 16.9861 149.632 16.7431C149.983 16.5 150.388 16.311 150.874 16.203C151.387 16.0949 152.008 16.0409 152.738 16.0409H160.245L162 10.7481H154.061V10.7211Z" fill="#727171"/>
<mask id="mask0_1602_493" style="mask-type:luminance" maskUnits="userSpaceOnUse" x="5" y="16" width="39" height="21">
<path d="M39.1027 16.7153C37.7795 21.5491 34.458 26.1939 29.4621 29.3534C21.4418 34.4303 11.8012 34.0252 5.99524 28.9484C6.02224 29.0024 6.04925 29.0564 6.07625 29.0834C11.0991 37.0227 23.1161 38.3999 32.9457 32.1889C39.0217 28.3543 42.8294 22.4943 43.6665 16.7423H39.1027V16.7153Z" fill="white"/>
</mask>
<g mask="url(#mask0_1602_493)">
<path d="M43.6665 16.7153H5.99524V38.3999H43.6665V16.7153Z" fill="url(#paint0_linear_1602_493)"/>
</g>
<path d="M25.8976 9.34375C24.0073 9.34375 22.387 9.50578 21.0368 9.80283C19.6596 10.1269 18.4984 10.613 17.4992 11.3151C16.5 12.0172 15.6359 12.9083 14.9338 14.0155C14.2317 15.1227 13.5565 16.4999 12.9894 18.1472L12.5574 19.3894H18.2553L18.6064 18.3632C18.8764 17.6071 19.1735 16.986 19.4975 16.4729C19.8216 15.9598 20.2266 15.5278 20.6857 15.2037C21.1718 14.8527 21.7119 14.6096 22.36 14.4746C23.0081 14.3126 23.7642 14.2586 24.6824 14.2586H46.7181L48.4733 9.37076H25.8976V9.34375Z" fill="#C7000B"/>
<path d="M30.137 16.4997L29.6779 17.9039C29.4079 18.66 29.2999 18.822 28.9758 19.3621C28.6518 19.8752 28.2467 20.3073 27.7876 20.6313C27.3285 20.9824 26.7614 21.2254 26.1133 21.3605C25.4652 21.5225 24.7091 21.5765 23.791 21.5765H1.75529L0 26.4643H22.4947C24.3851 26.4643 26.0053 26.3023 27.3826 26.0052C28.7598 25.6812 29.921 25.1951 30.9201 24.493C31.9193 23.7909 32.7835 22.8997 33.4856 21.7925C34.1877 20.6854 34.8628 19.3081 35.4299 17.6609L35.808 16.4727H30.137V16.4997Z" fill="#727171"/>
<mask id="mask1_1602_493" style="mask-type:luminance" maskUnits="userSpaceOnUse" x="4" y="0" width="39" height="20">
<path d="M15.0682 3.88865C8.9382 7.75029 5.13057 13.6643 4.32043 19.4702H8.88419C10.1804 14.5824 13.529 9.88364 18.5518 6.69711C26.5721 1.62027 36.2127 2.02534 42.0187 7.10218C41.9917 7.04817 41.9647 6.99416 41.9377 6.96716C39.0482 2.4034 33.8093 0 28.0034 0C23.7637 0 19.2269 1.26921 15.0682 3.88865Z" fill="white"/>
</mask>
<g mask="url(#mask1_1602_493)">
<path d="M42.0187 0H4.32043V19.4702H42.0187V0Z" fill="url(#paint1_linear_1602_493)"/>
</g>
<defs>
<linearGradient id="paint0_linear_1602_493" x1="6.72636" y1="27.5924" x2="41.441" y2="27.5924" gradientUnits="userSpaceOnUse">
<stop stop-color="#C9CACA"/>
<stop offset="0.2" stop-color="#C0C1C1"/>
<stop offset="0.54" stop-color="#A7A8A8"/>
<stop offset="0.87" stop-color="#898989"/>
<stop offset="1" stop-color="#898989"/>
</linearGradient>
<linearGradient id="paint1_linear_1602_493" x1="2.2217" y1="9.58392" x2="25.3506" y2="9.58392" gradientUnits="userSpaceOnUse">
<stop stop-color="#898989"/>
<stop offset="0.27" stop-color="#898989"/>
<stop offset="1" stop-color="#C9CACA"/>
</linearGradient>
</defs>
</svg>
