<svg width="172" height="22" viewBox="0 0 172 22" fill="none" xmlns="http://www.w3.org/2000/svg">
<path d="M75.1919 0.0230227C79.0449 0.0176894 82.8962 0.00524496 86.7492 0.0105783C89.0459 0.0141339 91.4444 0.124356 93.5323 1.19813C94.7816 1.86302 95.3623 3.34213 95.3974 4.70924C95.429 5.74036 95.2272 6.83013 94.564 7.64613C93.7095 8.73236 92.448 9.34569 91.2619 9.97858C93.1955 10.5315 95.3904 11.3759 96.2431 13.3866C97.0959 15.783 96.3151 19.0079 93.8832 20.1208C92.0673 21.0666 89.9758 21.1039 87.9809 21.175C83.7085 21.1839 79.4344 21.1732 75.1603 21.1786C75.1603 20.2861 75.1568 19.3955 75.1849 18.503C76.1271 18.3786 77.436 18.7448 78.0466 17.8026C78.4238 14.871 78.1255 11.9075 78.2115 8.96347C78.1624 6.95636 78.4273 4.91191 77.9237 2.94213C77.0184 2.7448 76.0902 2.71813 75.1691 2.66658C75.1726 1.7848 75.1884 0.903023 75.1919 0.0230227ZM84.191 8.81947C85.7193 8.72347 87.3686 8.78569 88.7266 7.95724C89.8337 6.84258 89.8951 4.80347 88.8827 3.60702C87.558 2.54213 85.7579 2.79636 84.1805 2.6968C84.1735 4.73769 84.1788 6.77858 84.191 8.81947ZM84.1893 11.4701C84.1981 13.8061 84.177 16.1439 84.1805 18.4799C85.7877 18.4195 87.4826 18.535 88.9792 17.8346C91.104 16.6097 90.8373 12.7964 88.5283 11.9288C87.1422 11.4044 85.6386 11.5146 84.1893 11.4701Z" fill="#F26322"/>
<path d="M0.00175456 0.0106984C4.58643 0.0106984 9.16935 0.00892051 13.7523 0.0124761C15.6858 0.0515872 17.7386 0.184921 19.416 1.26759C20.8039 2.11737 21.4881 3.82048 21.4145 5.4187C21.3636 6.46403 21.0776 7.57514 20.2933 8.30581C19.3458 9.22314 18.0545 9.5947 16.8386 9.98937C18.0474 10.4338 19.5248 10.8569 20.0476 12.1938C20.7775 14.4178 19.6423 17.0329 21.1021 19.0543C22.1707 18.1743 22.3374 16.6969 22.4075 15.3974C23.0971 15.3831 23.7884 15.3831 24.4797 15.3743C24.3025 16.9583 24.3428 18.6667 23.5129 20.08C23.0444 20.8907 22.1935 21.3974 21.2969 21.5716C19.7125 21.9609 17.9422 21.936 16.4859 21.1236C15.6419 20.6471 14.9594 19.8649 14.6453 18.9351C13.9154 16.7805 15.0436 14.3698 13.9909 12.2845C13.8681 11.9218 13.468 11.8454 13.154 11.7405C11.803 11.3529 10.3853 11.5111 9.00091 11.4987C9.04478 13.7867 8.82721 16.1085 9.31323 18.3645C10.2309 18.4018 11.1485 18.4391 12.0661 18.48C12.0539 19.3778 12.0451 20.2774 12.0451 21.1769C8.03064 21.1787 4.0162 21.1787 0 21.1751C0.00175456 20.2916 0.00175456 19.4063 0.00175456 18.5209C0.92641 18.4551 1.84931 18.3734 2.77046 18.2738C3.30735 13.5911 2.95995 8.87292 3.00732 4.17425C3.05294 3.66759 2.85994 3.09514 2.35287 2.9067C1.60192 2.62759 0.78429 2.72892 0 2.68803C0.00175456 1.79559 -1.63406e-09 0.903143 0.00175456 0.0106984ZM9.00267 2.72892C9.02197 4.73781 9.00618 6.7467 9.01319 8.75737C10.3993 8.7307 11.81 8.91025 13.1733 8.58137C13.919 8.38581 14.7454 8.04448 15.0629 7.27114C15.5507 6.1547 15.1893 4.91025 14.9998 3.76537C13.2031 2.67025 11.0327 2.66137 9.00267 2.72892Z" fill="#F26322"/>
<path d="M33.6209 0C35.6773 0 37.7354 0.0195556 39.7917 0.0106667C41.541 5.41511 43.1763 10.8569 44.9554 16.2524C45.1677 16.8302 45.2379 17.536 45.7678 17.9236C46.4626 18.4302 47.3521 18.464 48.168 18.5831C48.1698 19.4453 48.1645 20.3076 48.1733 21.1698C44.3167 21.1893 40.4585 21.1716 36.6019 21.1787C36.5896 20.2951 36.5826 19.4133 36.5739 18.5298C37.5266 18.3413 38.6688 18.6329 39.425 17.8631C39.2829 16.6329 38.8144 15.4827 38.4302 14.3182C36.4195 14.3307 34.4105 14.3253 32.3997 14.3289C32.0225 15.488 31.5874 16.6364 31.3821 17.8436C32.112 18.5938 33.2121 18.3787 34.1438 18.5387C34.142 19.4169 34.142 20.2969 34.1438 21.1769C31.1031 21.1804 28.0607 21.1769 25.0201 21.1787C25.0165 20.2862 25.0271 19.3938 25.0095 18.5013C25.7324 18.448 26.4553 18.3947 27.1799 18.3378C28.2976 16.528 28.8029 14.4338 29.4766 12.4338C30.8452 8.28444 32.1752 4.12267 33.6209 0ZM35.4351 5.00089C34.7474 7.20356 34.0455 9.40089 33.3226 11.5911C34.7263 11.6124 36.13 11.5982 37.5318 11.6C36.8598 9.39022 36.1668 7.18933 35.4351 5.00089Z" fill="#F26322"/>
<path d="M49.1102 2.67932C49.1067 1.79044 49.1067 0.901547 49.1102 0.0108799C52.4316 0.0197687 55.7547 0.041102 59.0761 0.00732422C61.7939 4.89444 64.3995 9.84555 67.1173 14.7327C67.1103 11.5664 67.0997 8.40021 67.112 5.23399C67.1103 4.46599 67.1243 3.64466 66.6944 2.97621C65.8014 2.69888 64.8592 2.7291 63.938 2.67044C63.9503 1.7851 63.9661 0.897991 63.9731 0.0126575C67.1226 0.00910195 70.2737 0.0108799 73.4232 0.0108799C73.3916 0.889102 73.4916 1.78866 73.3793 2.65088C72.5582 2.76644 71.6774 2.68999 70.9229 3.08999C70.5913 3.68021 70.6299 4.39666 70.6071 5.05444C70.6071 10.4287 70.6264 15.8029 70.6159 21.1789C68.4736 21.1771 66.3295 21.1789 64.1872 21.1771C61.3553 15.9433 58.5164 10.7131 55.6863 5.47755C55.6582 9.37621 55.5723 13.2749 55.7196 17.1718C55.7056 17.6607 55.9723 18.1798 56.4583 18.3255C57.1847 18.5567 57.9585 18.4393 58.7077 18.5104C58.7077 19.3958 58.7006 20.2811 58.7129 21.1682C55.5108 21.1913 52.3088 21.1735 49.1067 21.1771C49.1084 20.2953 49.1067 19.4153 49.1084 18.5353C50.0068 18.4731 50.9227 18.4553 51.7859 18.1638C52.2263 17.3673 52.1316 16.4304 52.1544 15.5558C52.1298 12.114 52.1544 8.67221 52.1526 5.23044C52.1631 4.45177 52.0789 3.66955 51.7982 2.94066C50.9192 2.72021 50.0085 2.73088 49.1102 2.67932Z" fill="#F26322"/>
<path d="M106.765 0.0123445C108.837 0.0070112 110.91 0.0141224 112.982 0.00878906C114.661 5.25501 116.294 10.5172 117.952 15.7706C118.203 16.4799 118.393 17.2408 118.858 17.8452C119.523 18.503 120.532 18.3786 121.375 18.5652C121.381 19.4346 121.363 20.3057 121.365 21.175C117.498 21.1803 113.631 21.1786 109.764 21.1768C109.781 20.2915 109.78 19.4079 109.799 18.5226C110.764 18.4283 111.724 18.3003 112.683 18.1581C112.45 16.8568 112.045 15.5999 111.659 14.3395C109.634 14.343 107.611 14.3146 105.586 14.3199C105.137 15.5875 104.772 16.8923 104.605 18.231C105.514 18.3306 106.427 18.4266 107.337 18.5261C107.321 19.4097 107.33 20.2932 107.33 21.1768C104.288 21.1803 101.247 21.1768 98.2065 21.1768C98.2065 20.2897 98.203 19.4008 98.2082 18.5137C99.0416 18.3608 100.128 18.5723 100.696 17.783C101.403 16.6079 101.705 15.2443 102.161 13.9608C103.679 9.30479 105.223 4.65946 106.765 0.0123445ZM106.556 11.5875C107.944 11.5999 109.332 11.6177 110.72 11.6106C110.029 9.39723 109.355 7.17679 108.686 4.95634C107.934 7.1519 107.223 9.36346 106.556 11.5875Z" fill="#F26322"/>
<path d="M123.369 0.0106984C127.059 0.0106984 130.748 0.0106984 134.44 0.0106984C134.454 0.864032 134.452 1.71914 134.465 2.57425C133.707 2.75737 132.954 2.96537 132.21 3.20003C133.045 4.63648 134.019 5.98048 134.975 7.33514C136.093 6.03025 137.195 4.70403 138.137 3.26048C137.41 3.02937 136.684 2.80181 135.958 2.5707C135.963 1.71737 135.979 0.864032 135.993 0.0106984C139.058 0.0106984 142.125 0.00892051 145.19 0.0124761C145.201 0.862254 145.213 1.71381 145.229 2.56359C144.45 2.78225 143.641 2.9387 142.92 3.31914C142.355 3.61248 141.965 4.13337 141.558 4.60981C140.098 6.30937 138.726 8.08714 137.33 9.84003C139.323 12.384 141.141 15.0649 143.179 17.5716C143.848 18.3716 144.959 18.4143 145.908 18.5654C145.908 19.4365 145.91 20.3076 145.908 21.1787C142.009 21.1751 138.112 21.1805 134.215 21.1751C134.215 20.2756 134.214 19.3743 134.215 18.4729C134.944 18.4125 135.672 18.3538 136.4 18.2934C135.935 16.4356 134.561 15.0489 133.531 13.5058C132.508 14.7396 131.366 15.8951 130.576 17.3067C130.329 17.6445 130.517 18.1743 130.92 18.2809C131.424 18.4409 131.957 18.4694 132.47 18.6009C132.47 19.4596 132.47 20.3183 132.47 21.1769C129.275 21.1787 126.079 21.1769 122.884 21.1787C122.881 20.2951 122.883 19.4098 122.883 18.5263C123.906 18.3307 125.121 18.3663 125.874 17.5129C127.752 15.4276 129.375 13.1289 131.164 10.9689C129.45 8.70581 127.823 6.37514 126.064 4.14759C125.381 3.28892 124.313 2.9227 123.328 2.54937C123.342 1.70314 123.351 0.856921 123.369 0.0106984Z" fill="#F26322"/>
<path d="M148.48 0.0105291C152.452 0.0105291 156.426 0.0105289 160.399 0.0123067C160.397 0.883418 160.4 1.75631 160.397 2.6292C159.564 2.76075 158.735 2.92786 157.914 3.11986C158.806 5.11097 160.06 6.9012 161.23 8.72875C162.266 7.16253 163.494 5.71542 164.317 4.01231C164.394 3.78297 164.59 3.55897 164.55 3.30653C163.959 2.75008 163.113 2.75186 162.369 2.59897C162.374 1.73675 162.388 0.874529 162.399 0.0123067C165.35 0.00875115 168.301 0.0105289 171.252 0.0123067C171.261 0.863862 171.275 1.71542 171.289 2.56875C170.396 2.8372 169.461 3.0772 168.708 3.65853C168.122 4.09764 167.814 4.78564 167.41 5.37942C165.934 7.72786 164.315 9.99097 163.002 12.4408C162.66 14.3981 162.824 16.4248 163.176 18.3732C164.201 18.5012 165.233 18.5616 166.264 18.6256C166.248 19.4754 166.254 20.327 166.238 21.1785C162.074 21.1785 157.911 21.1785 153.747 21.1785C153.742 20.3252 153.733 19.4719 153.731 18.6185C154.661 18.5136 155.712 18.7661 156.535 18.2025C157.118 17.191 157.055 15.9732 157.023 14.8461C156.969 13.9608 157.17 13.0168 156.765 12.1883C156.351 11.3243 155.795 10.5421 155.3 9.72608C154.121 7.89853 153.089 5.96964 151.77 4.23986C150.968 3.21586 149.643 2.92253 148.469 2.57053C148.462 1.7172 148.48 0.863862 148.48 0.0105291Z" fill="#F26322"/>
</svg>
