<svg width="159" height="25" viewBox="0 0 159 25" fill="none" xmlns="http://www.w3.org/2000/svg">
<path fill-rule="evenodd" clip-rule="evenodd" d="M0.490674 24.0454V19.3025C3.2126 20.1521 5.62113 20.577 7.71627 20.577C10.609 20.577 12.0555 19.8186 12.0555 18.303C12.0555 17.738 11.845 17.2632 11.423 16.8788C10.9915 16.471 9.8863 15.9057 8.11027 15.1814C4.92359 13.8818 2.84562 12.7736 1.87906 11.8569C0.626301 10.6469 0 9.1211 0 7.2772C0 4.90267 0.91266 3.09283 2.73671 1.84912C4.54056 0.616277 6.88947 0.000488281 9.78709 0.000488281C11.3836 0.000488281 13.6944 0.291904 16.7168 0.875523V5.43804C14.4679 4.54707 12.3804 4.10254 10.4517 4.10254C7.73583 4.10254 6.37797 4.84212 6.37797 6.32458C6.37797 6.87871 6.65145 7.33066 7.1992 7.68105C7.65474 7.96458 8.90989 8.5635 10.9619 9.47969C13.9166 10.7811 15.8836 11.9124 16.8637 12.8746C18.0266 14.016 18.6092 15.493 18.6092 17.3033C18.6092 19.9054 17.4681 21.8902 15.1874 23.2579C13.3396 24.3669 10.9437 24.9192 8.00088 24.9192C5.51571 24.9192 3.01178 24.6289 0.490674 24.0454Z" fill="#009999"/>
<path fill-rule="evenodd" clip-rule="evenodd" d="M22.4292 0.41748H29.1931V24.4336H22.4292V0.41748Z" fill="#009999"/>
<path fill-rule="evenodd" clip-rule="evenodd" d="M35.396 24.4336V0.41748H52.7437V4.76127H41.915V10.1842H51.3408V14.1463H41.915V19.8455H53.0227V24.4336H35.396Z" fill="#009999"/>
<path fill-rule="evenodd" clip-rule="evenodd" d="M57.4384 24.4336V0.41748H66.208L72.3007 15.7627L78.5462 0.41748H86.8761V24.4336H80.463V7.42959L73.3614 24.6773H69.1687L62.2039 7.42959V24.4336H57.4384Z" fill="#009999"/>
<path fill-rule="evenodd" clip-rule="evenodd" d="M93.0806 24.4336V0.41748H110.428V4.76127H99.6002V10.1842H109.026V14.1463H99.6002V19.8455H110.709V24.4336H93.0806Z" fill="#009999"/>
<path fill-rule="evenodd" clip-rule="evenodd" d="M115.159 24.4336V0.41748H122.999L131.316 16.4944V0.41748H136.08V24.4336H128.463L119.925 8.14031V24.4336H115.159Z" fill="#009999"/>
<path fill-rule="evenodd" clip-rule="evenodd" d="M140.882 24.0451V19.3022C143.581 20.1518 145.989 20.5766 148.109 20.5766C151.002 20.5766 152.446 19.8183 152.446 18.3027C152.446 17.7377 152.241 17.2629 151.834 16.8784C151.4 16.4706 150.29 15.9053 148.503 15.181C145.326 13.8922 143.246 12.7844 142.271 11.8566C141.019 10.6573 140.393 9.12581 140.393 7.26047C140.393 4.89619 141.304 3.09235 143.13 1.84863C144.931 0.615789 147.283 0 150.181 0C151.81 0 153.921 0.256565 156.51 0.772062L157.108 0.875035V5.43755C154.859 4.54659 152.766 4.10205 150.827 4.10205C148.121 4.10205 146.772 4.84163 146.772 6.32409C146.772 6.87822 147.044 7.33017 147.59 7.68056C148.024 7.95321 149.284 8.55244 151.371 9.4792C154.303 10.7806 156.266 11.9119 157.254 12.8742C158.419 14.0155 159 15.4925 159 17.3028C159 19.9049 157.866 21.8897 155.597 23.2574C153.738 24.3665 151.336 24.9187 148.394 24.9187C145.906 24.9189 143.401 24.6285 140.882 24.0451Z" fill="#009999"/>
</svg>
