<svg width="116" height="45" viewBox="0 0 116 45" fill="none" xmlns="http://www.w3.org/2000/svg">
<path fill-rule="evenodd" clip-rule="evenodd" d="M19.8318 0.185792V20.7819H38.0261C42.1453 20.8459 44.4629 18.7762 44.7197 15.1961V0.185792H38.6463V13.7292C38.5825 15.6484 37.2535 16.3826 35.2796 16.1026L35.2997 0.185792H29.3357V16.037H25.7745V0.185792H19.8318ZM46.7269 0.118302V4.84145H56.4044C57.8424 5.16571 58.4638 6.05045 58.4205 7.47162H51.7474C47.866 7.45145 45.8484 9.43581 45.6991 13.4034V15.3226C46.0413 19.1614 48.1228 20.9514 51.9631 20.6927H64.386V6.22267C64.2569 2.3191 62.0262 0.0965807 57.7129 0.118302H46.7269ZM58.4 16.4016V12.0004H53.5288C51.2764 12.1094 50.8909 16.0999 53.5288 16.4016H58.4ZM72.5567 13.9468V20.7614H66.5069V0.165234H79.0369C82.4488 -0.0283148 84.8721 1.71789 85.3662 5.3418V7.30406C85.2375 9.5258 84.0574 11.0571 81.7617 11.8554C83.7577 12.4581 85.0445 13.9243 85.0882 15.93V20.7614H79.0373V17.0734C78.9735 15.0247 77.7071 13.9243 75.7962 13.9468H72.5567ZM72.5567 4.88877L72.5362 9.41759H77.0625C79.6586 9.50408 80.1729 4.93143 77.0409 4.88877H72.5567ZM87.2416 0.145453V4.82632H96.725C98.2264 4.97681 98.8919 5.88172 98.8049 7.54338H92.0262C88.3792 7.67293 86.4257 9.4843 86.1693 13L86.1473 15.3284C86.4257 18.9729 88.4433 20.8707 92.2188 20.6776H104.747V6.20676C104.491 2.19382 102.453 0.16795 98.719 0.102399L87.2416 0.145453ZM98.8049 11.943V16.3644H94.3218C91.3809 16.4924 91.3387 11.8131 94.3218 11.943H98.8049ZM109.896 0.0639992V14.0174C109.767 15.506 108.414 16.0661 105.86 15.8718V20.7458H109.981C113.584 20.8758 115.838 18.5249 115.967 15.506V0.0639992H109.896ZM109.054 39.7137V37.0967H103.401C100.362 36.9904 100.437 39.9456 103.401 39.7346L109.054 39.7137ZM52.6027 25.0086V31.0633H59.6656L67.5621 25.0086H52.6027ZM71.6229 45V39.2917H63.8659L56.6639 44.9996L71.6229 45ZM51.3476 39.3572L69.4781 25.0978H86.7907C91.6376 24.8876 94.5469 26.9064 95.2394 31.0842C95.357 32.1427 95.425 33.2156 95.4424 34.2896C96.5699 32.8801 98.5338 32.2498 101.333 32.2634H109.078C109.127 30.8488 108.407 30.8488 106.739 30.5319H95.9288V25.1292H109.053C114.083 25.0873 115.852 26.9231 116 30.7437V44.905H101.582C97.7002 45.1253 95.3682 43.8255 94.5662 41.0076C93.6185 43.208 91.824 44.6563 88.5207 44.8662H73.0095V31.2227L72.1793 31.0846L54.7966 44.8662H51.3472V44.905H36.9276C33.6533 45.0908 31.4806 44.1959 30.3995 42.2182V45H22.9917V33.4355C22.9136 31.5772 21.4465 31.0067 19.0148 31.2821L18.9088 44.9996H11.6329V31.1769H7.28753V45H0.0363468V25.0768H22.8092C27.8358 25.0144 30.0851 26.8068 30.3998 30.3116V34.8614C31.4334 33.0492 33.526 32.2482 36.6786 32.2634H44.4239C44.4734 30.8488 43.7515 30.8488 42.083 30.5319H31.2737V25.1292H44.3976C49.4301 25.0873 51.1983 26.9231 51.3476 30.7437V39.3572ZM79.9339 31.0846V39.1582H85.3372C86.7911 38.8797 87.8301 37.9748 88.1058 36.4439V33.7288C87.9681 32.4065 86.8592 31.085 85.2661 31.085L79.9339 31.0846ZM44.3976 39.7137V37.0967H38.7449C35.7072 36.9904 35.7811 39.9456 38.7449 39.7346L44.3976 39.7137ZM17.7345 4.93803V0H5.6121C2.738 0.129162 0.720362 1.63838 0.0781069 5.13274V7.44098C0.334854 10.4377 2.28869 12.5086 5.09744 12.659H10.5266C12.779 12.7017 12.6498 15.8299 10.5266 15.7434H0V20.6815H12.308C16.3619 20.7889 18.2507 18.6114 18.6579 14.8796V13.263C18.2724 9.81205 16.4492 7.97935 13.1444 7.74081H7.71519C5.78455 7.59031 5.89166 5.08968 7.71519 4.93764H17.7345V4.93803Z" fill="#00AEEF"/>
</svg>
