<svg width="89" height="82" viewBox="0 0 89 82" fill="none" xmlns="http://www.w3.org/2000/svg">
<path d="M2.88229 56.7275H22.9207V62.8452H17.1721V77.5478H8.82219V62.8452H2.88229V56.7275Z" fill="#486AAE"/>
<path d="M33.0691 65.1398L28.8501 77.5478H20.8314L28.6959 56.7275H37.4045L45.4586 77.5478H37.3412L33.0691 65.1398Z" fill="#486AAE"/>
<path d="M43.543 56.7275H63.5806V62.8452H57.8337V77.5478H49.4842V62.8452H43.543V56.7275Z" fill="#486AAE"/>
<path d="M73.7325 65.1398L69.512 77.5478H61.4932L69.3604 56.7275H78.0664L86.1177 77.5478H78.0033L73.7325 65.1398Z" fill="#486AAE"/>
<path fill-rule="evenodd" clip-rule="evenodd" d="M74.0281 18.4847C73.2799 17.0086 72.2945 15.5938 71.0687 14.2671C68.314 11.2842 64.4274 8.80209 59.8279 7.09017C55.1905 5.36499 49.9012 4.45215 44.526 4.45215C39.1509 4.45215 33.8616 5.36499 29.2266 7.09017C24.6247 8.80229 20.7379 11.2844 17.9832 14.2671C16.7582 15.5936 15.7696 17.0103 15.0216 18.4872C21.0096 17.0345 31.2524 15.1164 40.7631 14.9136C41.6804 14.8938 42.3121 15.1886 42.728 15.7174C43.2346 16.3614 43.1965 18.657 43.1841 19.684L42.9137 46.2284C43.4493 46.2462 43.9875 46.2577 44.526 46.2577C45.0691 46.2577 45.6103 46.2488 46.1459 46.231L45.8755 19.6838C45.8615 18.657 45.8222 16.3612 46.3306 15.7172C46.7475 15.1886 47.377 14.8938 48.2942 14.9134C57.8008 15.1146 68.0413 17.0331 74.0281 18.4847Z" fill="#486AAE"/>
<path fill-rule="evenodd" clip-rule="evenodd" d="M75.3066 21.9367C66.5426 19.949 60.6898 19.5814 54.915 19.2599C49.8812 18.9792 49.8156 20.7825 50.318 24.2287C50.351 24.439 50.3914 24.7042 50.4393 25.0065C52.1277 35.0394 54.2303 43.6732 54.5916 45.1386C66.8634 42.3243 75.7136 34.5216 75.7136 25.3556C75.7136 24.2014 75.5746 23.0579 75.3066 21.9367Z" fill="#486AAE"/>
<path fill-rule="evenodd" clip-rule="evenodd" d="M38.7388 24.2287C39.2418 20.7827 39.1774 18.9792 34.1442 19.2599C28.3674 19.5814 22.5133 19.9488 13.7459 21.9379C13.4781 23.0591 13.3373 24.2012 13.3373 25.3554C13.3373 29.317 14.9437 33.1504 17.9834 36.4439C20.7381 39.4267 24.6249 41.9088 29.2268 43.622C30.8923 44.2406 32.65 44.7477 34.4605 45.1533C34.8003 43.7804 36.9512 34.967 38.6579 24.7546C38.6895 24.5589 38.7187 24.3783 38.7388 24.2287Z" fill="#486AAE"/>
</svg>
