<svg width="166" height="49" viewBox="0 0 166 49" fill="none" xmlns="http://www.w3.org/2000/svg">
<path fill-rule="evenodd" clip-rule="evenodd" d="M15.3273 15.8312L11.703 21.8021L8.10633 15.8312H0L11.6477 37.6607L23.3783 15.8312H15.3273ZM33.864 35.9899L30.2397 30.019L26.643 35.9899H18.5367L30.1843 14.1604L41.915 35.9899H33.864ZM43.741 14.133L58.0447 23.1442V15.8038L65.1827 15.7764V37.6333L50.9067 28.6495V35.9626L43.7687 36.0447V14.133H43.741ZM92.5173 23.4729L92.545 49H84.7153L84.743 23.5551L80.178 23.5277V49H72.3483L72.376 23.5551H70.1073V15.8312H72.376L72.3483 0H80.178V15.8312L84.7153 15.7764L84.743 0.0273896H92.5727V15.8312H94.8137V23.5551L92.5173 23.4729ZM109.588 22.1308C111.58 22.1308 113.212 23.7468 113.212 25.7188C113.212 27.6909 111.58 29.3069 109.588 29.3069C107.596 29.3069 105.963 27.6909 105.963 25.7188C105.936 23.7468 107.596 22.1308 109.588 22.1308ZM109.588 14.5165C115.84 14.5165 120.931 19.5562 120.931 25.7462C120.931 31.9363 115.84 36.976 109.588 36.976C103.335 36.976 98.2443 31.9363 98.2443 25.7462C98.2443 19.5562 103.335 14.5165 109.588 14.5165ZM134.543 22.1308C136.535 22.1308 138.167 23.7468 138.167 25.7188C138.167 27.6909 136.535 29.3069 134.543 29.3069C132.551 29.3069 130.919 27.6909 130.919 25.7188C130.919 23.7468 132.551 22.1308 134.543 22.1308ZM134.543 14.5165C140.796 14.5165 145.886 19.5562 145.886 25.7462C145.886 31.9363 140.796 36.976 134.543 36.976C128.29 36.976 123.2 31.9363 123.2 25.7462C123.2 19.5562 128.29 14.5165 134.543 14.5165ZM149.372 15.8312H156.538V28.9234L166 29.0056V35.9899L149.4 36.0721V15.8312H149.372Z" fill="#0058A2"/>
</svg>
