<svg width="268" height="75" viewBox="0 0 268 75" fill="none" xmlns="http://www.w3.org/2000/svg">
<mask id="mask0_2060_1928" style="mask-type:luminance" maskUnits="userSpaceOnUse" x="4" y="4" width="59" height="66">
<path d="M4.05078 4.53857H62.6138V69.3992H4.05078V4.53857Z" fill="white"/>
</mask>
<g mask="url(#mask0_2060_1928)">
<path d="M57.311 17.4199C54.619 18.4589 51.0893 18.5828 48.9811 20.4682C46.5433 22.6701 45.6437 24.6381 45.163 27.5487C44.854 29.441 45.5682 40.4782 44.5037 42.5838C43.7896 43.9875 42.5535 45.8179 40.9809 46.5886C37.6229 48.2607 33.8528 47.1253 31.8613 44.538C29.7325 41.7787 30.2201 39.2878 30.2201 36.0881C30.2201 31.4021 30.4536 24.7619 28.7986 22.0439C27.5625 20.014 25.8595 17.8396 22.213 16.3189C16.8566 14.0826 14.8583 9.2796 16.2661 4.53857C16.252 4.53857 7.54479 21.6861 6.63146 23.3376C5.7868 24.8651 4.49579 27.5556 4.33784 29.964C4.04942 34.4573 6.72761 37.079 9.04183 38.4965C12.1526 40.4025 17.6395 43.0999 19.164 48.8799C19.5966 50.5383 19.4868 59.1189 19.4868 59.1189C19.4868 63.6673 20.8121 68.9519 27.4938 69.3304C29.8973 69.4611 31.7789 68.1675 33.3652 66.0756C34.67 64.3623 35.4872 62.2223 36.5379 60.3644C38.4881 56.7106 40.4247 53.2632 42.3818 49.6093C46.2823 42.3292 50.3889 35.0628 54.2894 27.7758C56.4663 23.9912 59.3299 18.3694 61.754 13.6628C61.747 13.6628 59.8862 16.429 57.311 17.4199Z" fill="#2678C5"/>
</g>
<path d="M61.7539 36.9966H84.9923V43.9808H76.7724V69.42H69.8091V43.9808H61.7539V36.9966Z" fill="#211E1E"/>
<path d="M160.68 48.3921H176.467V55.397H160.68V48.3921Z" fill="#211E1E"/>
<path d="M112.927 36.9903V62.6358H110.88C110.757 62.6358 110.084 62.6424 109.493 62.0854C108.724 61.3698 108.435 60.3239 108.099 59.3812C107.783 58.5279 100.888 39.667 100.717 39.2955C99.9613 37.6165 97.6471 36.2402 95.4977 36.2402H95.4908C93.3758 36.2402 91.1577 37.4101 90.2718 39.2955C90.1002 39.667 83.2055 58.5279 82.8965 59.3812C82.5532 60.3239 82.2647 61.3698 81.5025 62.0854C80.905 62.6428 80.2321 62.6358 80.1085 62.6358H77.9453V69.4275H80.7952C81.8184 69.4275 83.1369 69.3172 84.0708 68.8976C85.9593 68.0513 87.5868 66.0558 88.404 64.1772C88.5549 63.8262 95.2986 45.3645 95.4977 44.7177C95.69 45.3645 102.358 63.8263 102.516 64.1772C103.333 66.0558 105.029 68.0513 106.918 68.8976C107.852 69.3176 108.635 69.4275 110.193 69.4275H119.869V36.9903H112.927Z" fill="#211E1E"/>
<path d="M150.128 36.9966V62.5046H144.078L137.191 53.1052L144.092 43.8157H148.631V36.9829H140.631L129.163 52.6579V36.9966H122.117V69.4201H129.163V53.5249L140.219 69.4063V69.4227H140.233V69.4292L140.24 69.4227H157.201V36.999L150.128 36.9966Z" fill="#211E1E"/>
<path d="M176.468 55.3963H160.66V48.4121H176.468V55.3963Z" fill="#211E1E"/>
<mask id="mask1_2060_1928" style="mask-type:luminance" maskUnits="userSpaceOnUse" x="189" y="35" width="75" height="37">
<path d="M189.188 35.9302H263.449V71.1611H189.188V35.9302Z" fill="white"/>
</mask>
<g mask="url(#mask1_2060_1928)">
<path d="M260.653 62.6354C260.529 62.6354 259.85 62.6422 259.259 62.0849C258.49 61.3693 258.208 60.3234 257.865 59.3807C257.549 58.5274 250.654 39.6665 250.49 39.2949C249.727 37.616 247.42 36.2397 245.271 36.2397H245.264C243.142 36.2397 240.923 37.4095 240.038 39.2949C239.866 39.6665 232.971 58.5274 232.662 59.3807C232.319 60.3234 232.037 61.3693 231.268 62.0849C230.678 62.6423 229.998 62.6354 229.874 62.6354H226.956V37.0035H219.786V49.8298H209.273V37.0035H202.104V37.0311H189.207V43.6988H202.104V69.427H209.273V56.6695H219.786V69.427H230.561C231.584 69.427 232.903 69.3237 233.837 68.904C235.725 68.0507 237.353 66.0553 238.17 64.1767C238.328 63.8258 245.064 45.364 245.264 44.7172C245.456 45.364 252.131 63.8258 252.282 64.1767C253.106 66.0553 254.795 68.0507 256.684 68.904C257.624 69.3237 258.4 69.427 259.959 69.427H263.448V62.6354H260.653Z" fill="#211E1E"/>
</g>
<path d="M189.211 37.0308C184.081 37.0308 180.133 42.0952 180.133 47.0427C180.133 52.052 183.951 56.8069 189.884 56.8069C192.727 56.8069 194.217 60.0685 192.205 62.0846C190.296 63.9976 187.453 62.7521 186.986 60.4813L180.648 62.4974C182.193 68.8555 191.065 73.1975 197.568 66.688C200.707 63.5433 200.961 58.4445 198.928 54.8526C197.122 51.6529 193.187 49.7538 190.001 49.7538C188.387 49.7538 187.055 48.2124 187.055 46.6573C187.055 45.1229 188.263 43.6985 190.001 43.6985" fill="#211E1E"/>
</svg>
