<svg width="24" height="24" viewBox="0 0 24 24" fill="none" xmlns="http://www.w3.org/2000/svg">
<path d="M19.001 18H19.751H19.001ZM5.00098 14.584H5.75098C5.75098 14.2859 5.57443 14.016 5.30126 13.8967L5.00098 14.584ZM19.001 14.584L18.7007 13.8967C18.4275 14.016 18.251 14.2859 18.251 14.584H19.001ZM15.751 7C15.751 7.41421 16.0868 7.75 16.501 7.75C16.9152 7.75 17.251 7.41421 17.251 7H15.751ZM6.75098 7C6.75098 7.41421 7.08676 7.75 7.50098 7.75C7.91519 7.75 8.25098 7.41421 8.25098 7H6.75098ZM7.00098 5V4.25C3.82534 4.25 1.25098 6.82436 1.25098 10H2.00098H2.75098C2.75098 7.65279 4.65377 5.75 7.00098 5.75V5ZM17.001 5V5.75C19.3482 5.75 21.251 7.65279 21.251 10H22.001H22.751C22.751 6.82436 20.1766 4.25 17.001 4.25V5ZM15.001 22V21.25H9.00098V22V22.75H15.001V22ZM9.00098 22V21.25C8.03697 21.25 7.38941 21.2484 6.90637 21.1835C6.44491 21.1214 6.24741 21.0142 6.11709 20.8839L5.58676 21.4142L5.05643 21.9445C5.5119 22.4 6.0787 22.5857 6.7065 22.6701C7.31272 22.7516 8.07937 22.75 9.00098 22.75V22ZM5.00098 18H4.25098C4.25098 18.9216 4.24938 19.6883 4.33089 20.2945C4.41529 20.9223 4.60096 21.4891 5.05643 21.9445L5.58676 21.4142L6.11709 20.8839C5.98678 20.7536 5.87955 20.5561 5.81751 20.0946C5.75257 19.6116 5.75098 18.964 5.75098 18H5.00098ZM19.001 18H18.251C18.251 18.964 18.2494 19.6116 18.1844 20.0946C18.1224 20.5561 18.0152 20.7536 17.8849 20.8839L18.4152 21.4142L18.9455 21.9445C19.401 21.4891 19.5867 20.9223 19.6711 20.2945C19.7526 19.6883 19.751 18.9216 19.751 18H19.001ZM15.001 22V22.75C15.9226 22.75 16.6892 22.7516 17.2955 22.6701C17.9233 22.5857 18.49 22.4 18.9455 21.9445L18.4152 21.4142L17.8849 20.8839C17.7545 21.0142 17.557 21.1214 17.0956 21.1835C16.6125 21.2484 15.965 21.25 15.001 21.25V22ZM7.00098 5V5.75C7.21467 5.75 7.42423 5.76571 7.62867 5.79593L7.73834 5.05399L7.848 4.31205C7.57118 4.27114 7.28832 4.25 7.00098 4.25V5ZM12.001 2V1.25C9.69046 1.25 7.73039 2.7421 7.02807 4.81312L7.73834 5.05399L8.44861 5.29486C8.95079 3.81402 10.3526 2.75 12.001 2.75V2ZM7.73834 5.05399L7.02807 4.81312C6.8482 5.34352 6.75098 5.91118 6.75098 6.5H7.50098H8.25098C8.25098 6.07715 8.32067 5.67212 8.44861 5.29486L7.73834 5.05399ZM17.001 5V4.25C16.7136 4.25 16.4308 4.27114 16.1539 4.31205L16.2636 5.05399L16.3733 5.79593C16.5777 5.76571 16.7873 5.75 17.001 5.75V5ZM12.001 2V2.75C13.6494 2.75 15.0512 3.81402 15.5533 5.29486L16.2636 5.05399L16.9739 4.81312C16.2716 2.7421 14.3115 1.25 12.001 1.25V2ZM16.2636 5.05399L15.5533 5.29486C15.6813 5.67212 15.751 6.07715 15.751 6.5H16.501H17.251C17.251 5.91118 17.1538 5.34352 16.9739 4.81312L16.2636 5.05399ZM5.00098 18H5.75098V14.584H5.00098H4.25098V18H5.00098ZM5.00098 14.584L5.30126 13.8967C3.79867 13.2402 2.75098 11.7416 2.75098 10H2.00098H1.25098C1.25098 12.359 2.67148 14.3846 4.7007 15.2712L5.00098 14.584ZM19.001 14.584H18.251L18.251 18H19.001H19.751L19.751 14.584H19.001ZM22.001 10H21.251C21.251 11.7416 20.2033 13.2402 18.7007 13.8967L19.001 14.584L19.3013 15.2712C21.3305 14.3846 22.751 12.359 22.751 10H22.001ZM16.501 6.5H15.751V7H16.501H17.251V6.5H16.501ZM7.50098 6.5H6.75098V7H7.50098H8.25098V6.5H7.50098Z" fill="#010B1E"/>
<path d="M5.00098 18H19.001" stroke="#010B1E" stroke-width="1.5" stroke-linecap="round" stroke-linejoin="round"/>
</svg>
