<svg width="20" height="24" viewBox="0 0 20 24" fill="none" xmlns="http://www.w3.org/2000/svg">
<g clip-path="url(#clip0_1326_7293)">
<path d="M19.3729 2.58433C19.336 2.23175 19.0723 1.9835 18.7316 1.97998C18.729 1.97998 18.7263 1.97998 18.7237 1.97998C18.3861 1.97998 18.1163 2.22955 18.0797 2.5764C18.0709 2.6618 18.0723 2.74323 18.0731 2.8229C18.0731 2.84887 18.074 2.87528 18.074 2.90125V22.6761H1.30638V21.5039C1.30638 15.2932 1.30638 9.08204 1.30638 2.87131C1.30638 2.84667 1.30682 2.82202 1.3077 2.79737C1.3099 2.71638 1.3121 2.62438 1.29405 2.52975C1.22891 2.18774 0.990778 1.98306 0.657573 1.98306H0.645688C0.308522 1.9879 0.0717131 2.19786 0.0122908 2.54471C-0.00135433 2.62394 0.000406326 2.69965 0.00216699 2.767C0.00260715 2.78724 0.00304732 2.80793 0.00304732 2.82818C0.00304732 9.60452 0.00304732 16.3809 0.00304732 23.1568C0.00304732 23.7708 0.232373 23.9992 0.849925 23.9992H8.14962H18.5327C19.1489 23.9992 19.3778 23.7704 19.3778 23.1546C19.3778 16.3782 19.3778 9.60188 19.3778 2.82598C19.3778 2.81189 19.3778 2.79825 19.3778 2.78416V2.77184C19.3787 2.71506 19.3796 2.65035 19.3729 2.58345V2.58433Z" fill="black"/>
<path d="M9.58919 9.25269C9.39155 9.24697 9.19788 9.34072 9.04426 9.51371C8.90781 9.66688 8.78237 9.8293 8.66044 9.98644L8.61994 10.0388C7.61593 11.3325 6.66033 12.6191 6.00228 14.1297C5.82798 14.5294 5.59381 15.1302 5.5696 15.7297C5.5269 16.7857 5.91337 17.7941 6.65725 18.5697C7.41257 19.3571 8.47029 19.8092 9.56014 19.8105C10.9321 19.8105 12.1967 19.1181 12.9428 17.9587C13.6554 16.8513 13.769 15.5048 13.2461 14.3582C12.3834 12.4655 11.1623 10.8461 10.0817 9.51151C9.94836 9.34688 9.77846 9.25753 9.58963 9.25313L9.58919 9.25269ZM11.5779 17.5934C10.834 18.4306 9.87265 18.7044 8.79733 18.3857C7.77263 18.082 7.13351 17.3724 6.89802 16.2768C6.80514 15.8455 6.86061 15.408 7.07276 14.8996C7.53802 13.7833 8.2326 12.7705 8.90429 11.8294C9.07948 11.5838 9.26171 11.343 9.45494 11.0882L9.46858 11.0701C9.50071 11.0279 9.53285 10.9852 9.56542 10.9425C10.4796 12.1573 11.4119 13.4175 12.0391 14.8573C12.4696 15.8446 12.3142 16.7654 11.5783 17.5934H11.5779Z" fill="black"/>
<path d="M4.55218 7.02675C6.21292 7.02763 7.89655 7.02851 9.59207 7.02851C11.2876 7.02851 12.9109 7.02807 14.5747 7.02675C14.9881 7.02675 15.2794 6.76177 15.2838 6.38323C15.2856 6.20584 15.2253 6.04958 15.1091 5.93206C14.9766 5.79781 14.7856 5.7265 14.5567 5.72606C13.7829 5.72386 12.9659 5.7243 12.3092 5.72474H10.2167V4.86994C10.2167 3.52655 10.2167 2.18317 10.2167 0.839347C10.2167 0.819539 10.2171 0.800172 10.2175 0.779924C10.2193 0.711699 10.2211 0.63467 10.2061 0.553239C10.1418 0.20727 9.90238 -4.81162e-05 9.56434 -0.000488281C9.22805 -0.000488281 8.9886 0.205509 8.9239 0.551039C8.90849 0.632029 8.91069 0.709498 8.91245 0.780365C8.91289 0.799292 8.91333 0.818219 8.91333 0.837146C8.91333 2.15852 8.91333 3.48034 8.91333 4.80215V5.72474H7.57391C6.5897 5.72474 5.57468 5.7243 4.57551 5.72562C4.3453 5.72562 4.15383 5.79649 4.02178 5.92942C3.90602 6.04606 3.84483 6.20144 3.84571 6.37926C3.84747 6.76045 4.13798 7.02675 4.55174 7.02675H4.55218Z" fill="black"/>
</g>
<defs>
<clipPath id="clip0_1326_7293">
<rect width="19.3778" height="24" fill="white" transform="translate(0.000976562)"/>
</clipPath>
</defs>
</svg>
