<svg width="24" height="24" viewBox="0 0 24 24" fill="none" xmlns="http://www.w3.org/2000/svg">
<path d="M16.623 0.900391L16.9492 0.907227C20.2862 1.05715 22.8338 3.47399 23.0781 6.57031L23.0977 6.92969C23.1464 8.591 22.6017 10.0443 21.4844 11.2764L21.2363 11.5371L15.2119 17.5605C14.2838 18.4879 13.3651 19.4294 12.4297 20.3535L11.4883 21.2705C9.80971 22.8776 7.82573 23.4538 5.63965 22.8887L5.2002 22.7598C2.98752 22.0416 1.59278 20.509 1.08594 18.3076L0.99707 17.8584C0.650872 15.8181 1.23833 14.0013 2.7002 12.5273L5.14746 10.0674C7.59755 7.61092 10.0566 5.16268 12.5137 2.71387L12.7432 2.49512C13.9071 1.4383 15.2908 0.924389 16.6221 0.900391H16.623ZM7.11816 11.9111C4.37337 11.9111 2.14881 14.1272 2.14551 16.8652L2.15137 17.1221C2.28105 19.7524 4.44964 21.8416 7.11328 21.8428L7.36914 21.8369C9.99381 21.705 12.0834 19.5383 12.0859 16.8877L12.0801 16.6309C11.9489 13.9982 9.78228 11.9112 7.11816 11.9111ZM18.6123 2.45605C16.8148 1.79543 15.1387 2.0781 13.7285 3.28906L13.4502 3.54395C11.0161 5.90893 8.63686 8.32927 6.23535 10.7305C10.3946 10.1818 13.82 13.697 13.2695 17.751C15.663 15.3601 18.0647 12.9797 20.4443 10.5762L20.6416 10.3662C21.5297 9.37435 21.9463 8.19391 21.8584 6.86719L21.832 6.58105C21.6074 4.69584 20.6395 3.33199 18.958 2.59473L18.6123 2.45605Z" fill="#010B1E" stroke="#010B1E" stroke-width="0.2"/>
<path d="M7.27563 13.7803C8.86643 13.8621 10.1383 15.14 10.2122 16.7305L10.2151 16.8906C10.2078 18.5489 8.90227 19.8944 7.26099 19.9727L7.10181 19.9756C5.44694 19.9718 4.09783 18.6626 4.0188 17.0215L4.01587 16.8623C4.01978 15.1595 5.41176 13.7749 7.11646 13.7764L7.27563 13.7803ZM6.88794 14.7637C5.80852 14.8752 4.99066 15.784 4.99146 16.9277L5.00317 17.1367C5.11488 18.1673 6.03466 19.0016 7.11743 19L7.33325 18.9893C8.39604 18.8791 9.24076 17.9765 9.2395 16.9102L9.22876 16.6865C9.11986 15.5837 8.22249 14.75 7.10669 14.7529L6.88794 14.7637Z" fill="#010B1E" stroke="#010B1E" stroke-width="0.2"/>
</svg>
