<svg width="25" height="24" viewBox="0 0 25 24" fill="none" xmlns="http://www.w3.org/2000/svg">
<ellipse cx="12.5" cy="12" rx="3.125" ry="3" stroke="#010B1E" stroke-width="1.5"/>
<path d="M14.3389 2.15224C13.9561 2 13.4707 2 12.5 2C11.5293 2 11.0439 2 10.6611 2.15224C10.1506 2.35523 9.74504 2.74458 9.53359 3.23463C9.43707 3.45834 9.3993 3.7185 9.38451 4.09799C9.36279 4.65568 9.06487 5.17189 8.56142 5.45093C8.05798 5.72996 7.44334 5.71954 6.92939 5.45876C6.57965 5.2813 6.32607 5.18262 6.07599 5.15102C5.52819 5.08178 4.97417 5.22429 4.53581 5.5472C4.20705 5.78938 3.96437 6.1929 3.47901 6.99993C2.99366 7.80697 2.75098 8.21048 2.69689 8.60491C2.62477 9.1308 2.77322 9.66266 3.10958 10.0835C3.26311 10.2756 3.47888 10.437 3.81376 10.639C4.30606 10.936 4.62282 11.4419 4.62279 12C4.62276 12.5581 4.30601 13.0639 3.81375 13.3608C3.47882 13.5629 3.26302 13.7244 3.10948 13.9165C2.77312 14.3373 2.62467 14.8691 2.69679 15.395C2.75088 15.7894 2.99355 16.193 3.47891 17C3.96427 17.807 4.20694 18.2106 4.53571 18.4527C4.97407 18.7756 5.52809 18.9181 6.07589 18.8489C6.32595 18.8173 6.57952 18.7186 6.92923 18.5412C7.44322 18.2804 8.05789 18.27 8.56137 18.549C9.06485 18.8281 9.36279 19.3443 9.38451 19.9021C9.3993 20.2815 9.43707 20.5417 9.53359 20.7654C9.74504 21.2554 10.1506 21.6448 10.6611 21.8478C11.0439 22 11.5293 22 12.5 22C13.4707 22 13.9561 22 14.3389 21.8478C14.8494 21.6448 15.255 21.2554 15.4664 20.7654C15.563 20.5417 15.6007 20.2815 15.6155 19.902C15.6372 19.3443 15.9351 18.8281 16.4385 18.549C16.942 18.2699 17.5567 18.2804 18.0707 18.5412C18.4204 18.7186 18.674 18.8172 18.924 18.8488C19.4718 18.9181 20.0258 18.7756 20.4642 18.4527C20.793 18.2105 21.0356 17.807 21.521 16.9999C22.0064 16.1929 22.249 15.7894 22.3031 15.395C22.3752 14.8691 22.2268 14.3372 21.8904 13.9164C21.7369 13.7243 21.5211 13.5628 21.1862 13.3608C20.6939 13.0639 20.3772 12.558 20.3772 11.9999C20.3773 11.4418 20.694 10.9361 21.1862 10.6392C21.5212 10.4371 21.737 10.2757 21.8905 10.0835C22.2269 9.66273 22.3753 9.13087 22.3032 8.60497C22.2491 8.21055 22.0065 7.80703 21.5211 7C21.0357 6.19297 20.7931 5.78945 20.4643 5.54727C20.026 5.22436 19.4719 5.08185 18.9241 5.15109C18.6741 5.18269 18.4205 5.28136 18.0708 5.4588C17.5568 5.71959 16.9421 5.73002 16.4386 5.45096C15.9352 5.17191 15.6372 4.65566 15.6155 4.09794C15.6007 3.71848 15.5629 3.45833 15.4664 3.23463C15.255 2.74458 14.8494 2.35523 14.3389 2.15224Z" stroke="#010B1E" stroke-width="1.5"/>
</svg>
