<svg width="20" height="24" viewBox="0 0 20 24" fill="none" xmlns="http://www.w3.org/2000/svg">
<path d="M4.62719 22.6666H7.40608C7.40918 22.6043 7.41436 22.551 7.41436 22.4982C7.41436 21.323 7.41281 20.1483 7.41799 18.9731C7.4185 18.8474 7.37967 18.7961 7.25592 18.7589C5.54365 18.243 4.01156 17.4238 2.7425 16.1787C1.21766 14.6837 0.350396 12.8714 0.0790835 10.794C-0.547938 5.99322 2.61306 1.50517 7.44905 0.304836C12.3865 -0.92064 17.3747 1.64094 19.0896 6.33315C20.1578 9.25479 19.9243 12.0965 18.1876 14.733C16.8777 16.7223 15.0028 18.0307 12.6609 18.6935C12.3254 18.7886 12.3244 18.7855 12.3244 19.129C12.3244 20.2549 12.3244 21.3808 12.3244 22.5072C12.3244 22.5937 12.3037 22.6797 12.4502 22.6787C13.3014 22.6737 14.1526 22.6752 15.0039 22.6747C15.0199 22.6747 15.0365 22.6691 15.0748 22.6621V21.5236H16.4547C16.4614 21.5357 16.4759 21.5498 16.4759 21.5629C16.4692 22.1663 16.4769 22.7702 16.4479 23.3727C16.4277 23.7941 16.2646 23.9338 15.8313 23.9801C15.6816 23.9962 15.5294 23.9992 15.3787 23.9992C11.7605 24.0002 8.14235 24.0007 4.52416 23.9977C4.27873 23.9977 4.03072 23.9816 3.78892 23.9424C3.44874 23.8871 3.30273 23.7468 3.26649 23.4169C3.23076 23.0936 3.2349 22.7657 3.22869 22.4398C3.223 22.1411 3.22766 21.8419 3.22766 21.5277H4.62616V22.6661L4.62719 22.6666ZM1.40872 10.2303C1.61014 12.455 2.55145 14.2945 4.28961 15.7317C5.69639 16.8948 7.33359 17.5364 9.16339 17.7149C9.16339 17.5269 9.15873 17.38 9.16495 17.2337C9.17116 17.0818 9.17686 16.9285 9.20275 16.7791C9.26229 16.4382 9.51859 16.2385 9.87378 16.2426C10.2305 16.2466 10.4941 16.4497 10.535 16.7907C10.5624 17.021 10.5453 17.2563 10.5422 17.4897C10.5396 17.6978 10.5515 17.7124 10.768 17.6973C10.7959 17.6953 10.8239 17.6923 10.8513 17.6888C12.5755 17.4917 14.0967 16.8415 15.4057 15.7372C16.8445 14.5233 17.8257 13.0388 18.1768 11.1973C18.2342 10.8961 18.2534 10.5884 18.2922 10.2701C18.1467 10.2701 18.0416 10.2716 17.9365 10.2701C17.7128 10.2665 17.4876 10.2751 17.2655 10.254C16.888 10.2183 16.6468 9.95578 16.6442 9.60478C16.6416 9.25177 16.8772 8.99229 17.2619 8.95659C17.5285 8.93195 17.7983 8.93798 18.0665 8.93144C18.1312 8.92994 18.1959 8.93144 18.2726 8.93144C18.2726 8.85149 18.2777 8.79215 18.2715 8.73432C18.2436 8.46428 18.2353 8.18972 18.1783 7.92471C17.7532 5.95047 16.7058 4.34182 15.0789 3.10276C13.9393 2.23432 12.6568 1.64145 11.2091 1.43075C10.9922 1.39907 10.7711 1.39504 10.5308 1.37694C10.5308 1.65402 10.5515 1.89489 10.5262 2.13073C10.4873 2.49681 10.1881 2.72863 9.82096 2.71003C9.44144 2.69092 9.19964 2.44703 9.18825 2.06234C9.18307 1.89388 9.19084 1.72492 9.20016 1.55696C9.20741 1.42572 9.16443 1.36387 9.0179 1.3875C8.56589 1.45991 8.103 1.49159 7.66186 1.60423C4.59716 2.38568 2.00571 5.17355 1.49881 8.21436C1.45998 8.44719 1.43927 8.68253 1.40924 8.9229C1.53143 8.9229 1.61997 8.92038 1.70851 8.9229C1.97672 8.93144 2.24751 8.92189 2.51158 8.95709C2.87712 9.00587 3.06352 9.24473 3.05006 9.58969C3.03608 9.9422 2.80826 10.1941 2.45359 10.2228C2.23664 10.2404 2.0171 10.2293 1.79912 10.2303C1.67745 10.2308 1.55577 10.2303 1.4082 10.2303H1.40872ZM8.82995 19.0963V22.6702H10.8974V19.0963H8.82995Z" fill="#010B1E"/>
<path d="M10.5409 6.15625C10.5409 6.46602 10.5471 6.77628 10.5373 7.08605C10.5337 7.21025 10.5741 7.26004 10.6962 7.30328C11.5915 7.61757 12.1336 8.23458 12.2594 9.15181C12.379 10.0238 12.1196 10.7846 11.3932 11.3443C10.7869 11.8114 10.0816 11.8653 9.35056 11.7109C9.10565 11.6591 8.86437 11.5816 8.63189 11.4901C8.50037 11.4383 8.42167 11.4564 8.32847 11.55C8.05613 11.8235 7.77964 12.0936 7.49745 12.3571C7.35713 12.4883 7.21112 12.6195 7.04751 12.7211C6.75911 12.9006 6.38994 12.8323 6.16781 12.5828C5.95449 12.3435 5.93481 12.0171 6.17247 11.7642C6.53802 11.375 6.92479 11.0038 7.32037 10.6438C7.50159 10.4789 7.57512 10.3431 7.51764 10.0796C7.23546 8.79226 7.79879 7.7991 9.05853 7.30177C9.15846 7.26255 9.19264 7.21729 9.1916 7.1137C9.18435 6.55905 9.18228 6.00439 9.18487 5.44973C9.1859 5.28228 9.19056 5.1113 9.22474 4.94787C9.29101 4.62906 9.54006 4.44753 9.87661 4.44702C10.2028 4.44652 10.4399 4.60693 10.4897 4.93681C10.5394 5.26769 10.5269 5.60763 10.5404 5.94354C10.5435 6.01394 10.5404 6.08485 10.5404 6.15575L10.5409 6.15625ZM10.907 9.48219C10.9085 8.9049 10.4819 8.46741 9.91389 8.46339C9.27859 8.45936 8.80897 8.89283 8.80327 9.48872C8.79758 10.0695 9.23923 10.5105 9.83105 10.5146C10.4218 10.5191 10.9054 10.0544 10.907 9.48168V9.48219Z" fill="#010B1E"/>
</svg>
