<svg width="26" height="26" viewBox="0 0 26 26" fill="none" xmlns="http://www.w3.org/2000/svg">
<path d="M22.002 0.864258L22.3027 0.905273C23.7839 1.16981 24.9158 2.338 25.1182 3.85547L25.1367 4.03027C25.2848 5.7686 24.167 7.28549 22.4521 7.69238L22.2783 7.72949C22.18 7.74836 22.069 7.80618 21.9854 7.87891V7.87988C21.8825 7.96925 21.7886 8.06201 21.6943 8.1582L21.3994 8.45605C21.2103 8.64014 20.9977 8.75995 20.7656 8.80371C20.5915 8.83653 20.413 8.82551 20.2334 8.77344L20.0527 8.70801C19.988 8.67961 19.9652 8.6821 19.958 8.68359C19.9538 8.68452 19.9461 8.68683 19.9336 8.69531L19.8799 8.74219C19.6287 8.99735 19.3743 9.24952 19.1211 9.50098C18.8675 9.75278 18.6145 10.0045 18.3652 10.2588L18.3643 10.2578C18.3591 10.2631 18.3518 10.2741 18.3428 10.2891C18.3337 10.3042 18.3255 10.3216 18.3193 10.3379C18.3141 10.3519 18.3108 10.3628 18.3096 10.3701C18.4418 10.6678 18.4721 10.9493 18.4023 11.2139C18.3319 11.4803 18.1645 11.7122 17.9336 11.918V11.9189C17.9277 11.9242 17.9218 11.9303 17.915 11.9375C18.0635 12.0907 18.2147 12.2452 18.3555 12.4053L18.4658 12.5469C18.5618 12.6908 18.614 12.8419 18.6084 13C18.6028 13.158 18.5399 13.3042 18.4355 13.4404L18.3184 13.5732C17.9973 13.8945 17.6767 14.2183 17.3545 14.541L16.3799 15.5029C16.2959 15.5838 16.194 15.6379 16.1035 15.6807C16.0052 15.7271 15.9285 15.7566 15.8506 15.7998V15.8008C15.8077 15.8245 15.7721 15.8432 15.7422 15.8613L15.667 15.917L11.1348 20.4424C11.1207 20.4564 11.1037 20.4721 11.0918 20.4834C11.0784 20.4961 11.0681 20.5071 11.0596 20.5166C11.0544 20.5224 11.0509 20.5265 11.0488 20.5293C11.0158 20.9304 10.7186 21.1623 10.5283 21.3525V21.3535L8.80371 23.0762C8.60566 23.2742 8.40005 23.4023 8.1709 23.4023C7.94177 23.4023 7.73452 23.2737 7.5332 23.0732V23.0742C7.47773 23.0191 7.4312 22.9582 7.38867 22.9004C7.37694 22.8844 7.36526 22.8695 7.35449 22.8545C7.07307 23.0912 6.80218 23.3184 6.53711 23.541L5.64551 24.2988C5.24353 24.6467 4.80577 24.926 4.27832 25.0635L4.0459 25.1133C2.64488 25.3555 1.20737 24.369 0.913086 22.9824L0.887695 22.8477C0.752049 21.9746 0.980051 21.206 1.54492 20.5381L2.96289 18.8613L3.13867 18.6396C3.0693 18.5846 2.99646 18.5268 2.92773 18.4658L2.82422 18.3672C2.68058 18.2172 2.59839 18.0328 2.59375 17.8428C2.58912 17.6517 2.66343 17.4655 2.81055 17.3154L3.87988 16.2412C4.23805 15.8851 4.59792 15.5306 4.95605 15.1758L5.05957 15.0859C5.09789 15.0591 5.15932 15.0233 5.2334 15.0205L5.31543 15.0107C5.44356 14.983 5.53574 14.9021 5.64551 14.791L5.78906 14.6445C7.19804 13.2379 8.60857 11.8334 10.0117 10.4219L10.0576 10.3643C10.0723 10.3413 10.087 10.3144 10.1025 10.2832C10.1294 10.229 10.1657 10.1444 10.2041 10.0771L10.2939 9.90234C10.3273 9.83946 10.3705 9.76822 10.4307 9.70703L11.4492 8.67871C11.7902 8.33696 12.1321 7.99625 12.4746 7.65625L12.6035 7.5459C12.7372 7.4493 12.8842 7.3951 13.0391 7.39453C13.2456 7.39391 13.4402 7.48914 13.6084 7.6543L13.7461 7.79785C13.8456 7.90625 13.9416 8.01987 14.0371 8.13086C14.1267 8.04488 14.1969 7.97769 14.2676 7.91211V7.91113L14.417 7.79102C14.5694 7.68382 14.733 7.61721 14.9053 7.5918C15.1345 7.55804 15.3681 7.59876 15.5977 7.69922L15.6621 7.7207C15.6749 7.72298 15.6805 7.72195 15.6816 7.72168C15.6863 7.72057 15.7028 7.71464 15.7471 7.66992L16.5117 6.89844C16.7676 6.64225 17.025 6.38762 17.2832 6.13379L17.3281 6.08301C17.3362 6.07173 17.3381 6.06552 17.3389 6.0625C17.3391 6.0616 17.3446 6.04508 17.3174 5.9873V5.98633C17.2053 5.74788 17.1649 5.50893 17.2051 5.27637C17.2453 5.04394 17.3641 4.8306 17.5469 4.63965L17.6709 4.5127L17.6719 4.51172L17.8115 4.38672C18.119 4.08677 18.3051 3.72465 18.4336 3.26758L18.5283 2.9834C19.0632 1.59743 20.5217 0.727085 22.002 0.864258ZM3.71387 19.3242C3.21715 19.9153 2.70602 20.484 2.24316 21.0908L2.03516 21.3721C1.49819 22.1187 1.66554 23.1614 2.35254 23.7686L2.49316 23.8828C3.2114 24.4166 4.14237 24.394 4.84961 23.8047L6.46875 22.4434L6.66504 22.2715C5.67406 21.2826 4.70343 20.3117 3.71387 19.3242ZM3.62109 17.8096C5.14446 19.3363 6.67596 20.8718 8.17676 22.376C8.79253 21.7679 9.4194 21.1471 10.04 20.5342C8.51522 19.0132 6.98377 17.4853 5.47168 15.9766C4.84823 16.5942 4.21669 17.2194 3.62109 17.8096ZM6.29395 15.4053C7.72998 16.8396 9.15916 18.2673 10.5791 19.6855C12.0154 18.2536 13.4661 16.8074 14.9141 15.3633C13.4838 13.9307 12.0625 12.5043 10.6299 11.0693C9.17379 12.5257 7.72804 13.9709 6.29395 15.4053ZM11.1611 10.2705C12.6844 11.7915 14.2154 13.3203 15.7471 14.8496C16.3813 14.2189 17.0101 13.5939 17.627 12.9805C16.0935 11.4463 14.5602 9.91353 13.043 8.39551C12.4166 9.01978 11.7844 9.64935 11.1611 10.2705ZM16.377 8.33887C16.8129 8.77023 17.2489 9.20294 17.668 9.61816C18.189 9.10425 18.7139 8.58546 19.2197 8.08594C18.7916 7.65292 18.3595 7.21565 17.9326 6.78418C17.4222 7.29414 16.9041 7.81227 16.377 8.33887ZM21.498 1.74609C20.426 1.82802 19.4731 2.57891 19.252 3.63379C19.1442 4.14919 18.9153 4.52725 18.585 4.85742L18.4375 4.99609L18.2178 5.21387C18.108 5.3285 18.0735 5.4135 18.0723 5.47754C18.0711 5.5392 18.1002 5.61976 18.207 5.72754L19.2461 6.77051C19.5933 7.11755 19.9416 7.46381 20.291 7.80859L20.3662 7.87402C20.4374 7.92659 20.4967 7.9441 20.5459 7.94336C20.613 7.9422 20.6987 7.90657 20.8057 7.80078L21.1729 7.43164C21.297 7.30648 21.4233 7.18107 21.5527 7.0625L21.6396 6.99512C21.7337 6.93148 21.8483 6.88196 21.9609 6.86914L22.2139 6.82812C23.3729 6.58555 24.2166 5.62259 24.2754 4.47656V4.22852C24.2088 2.82009 23.1047 1.74994 21.7139 1.73828L21.498 1.74609Z" fill="#010B1E" stroke="#010B1E" stroke-width="0.3"/>
<path d="M21.709 2.72998V2.73096C22.5496 2.73294 23.2094 3.34384 23.2861 4.15967L23.293 4.32568C23.2902 5.14163 22.6675 5.81316 21.8711 5.89697L21.709 5.90576C20.9016 5.90949 20.2106 5.27494 20.124 4.48682L20.1143 4.32764C20.1095 3.4424 20.8216 2.72964 21.708 2.73096V2.72998H21.709ZM21.6406 3.60889C21.2824 3.64316 20.9884 3.96274 20.9971 4.32275L21.0146 4.45947C21.0878 4.77218 21.3761 5.02131 21.6885 5.02588L21.7607 5.02295C22.0971 4.99244 22.3722 4.72086 22.4062 4.38721L22.4092 4.31494C22.4078 3.92234 22.1005 3.61098 21.7129 3.60596L21.6406 3.60889Z" fill="#010B1E" stroke="#010B1E" stroke-width="0.3"/>
<path d="M4.13184 20.9565C4.68447 21.0128 5.09963 21.4374 5.14844 21.9927L5.15332 22.1138C5.14805 22.7265 4.70379 23.1947 4.10742 23.2456L3.98535 23.2505C3.33997 23.2442 2.84078 22.7235 2.85059 22.0747L2.85742 21.9575C2.92384 21.3785 3.41058 20.9471 4.01172 20.9497L4.13184 20.9565ZM3.91016 21.7017C3.75029 21.736 3.62915 21.8605 3.59961 22.0181L3.59277 22.1001L3.60156 22.1851C3.64069 22.3749 3.79967 22.5065 3.99707 22.5073L4.08398 22.4995C4.25194 22.4686 4.37455 22.3467 4.40527 22.1831L4.41211 22.0981C4.41061 21.8606 4.2359 21.6885 3.99316 21.6919L3.91016 21.7017Z" fill="#010B1E" stroke="#010B1E" stroke-width="0.3"/>
</svg>
