<svg width="160" height="32" viewBox="0 0 160 32" fill="none" xmlns="http://www.w3.org/2000/svg">
<g clip-path="url(#clip0_1326_6755)">
<mask id="mask0_1326_6755" style="mask-type:luminance" maskUnits="userSpaceOnUse" x="0" y="0" width="160" height="32">
<path d="M160 0H0V32H160V0Z" fill="white"/>
</mask>
<g mask="url(#mask0_1326_6755)">
<path fill-rule="evenodd" clip-rule="evenodd" d="M23.8552 17.0481V27.1105H14.8728L21.1704 17.0921L23.8552 17.0481Z" fill="#0061A6"/>
<path fill-rule="evenodd" clip-rule="evenodd" d="M13.944 3.2H23.8552V12.84L9.6248 12.8136L7.3288 17.0032L16.3144 16.9752L10.1 27.1096H-0.052002V22.3096H11.816L14.56 17.8664H5.7504L13.944 3.2Z" fill="#0061A6"/>
<path fill-rule="evenodd" clip-rule="evenodd" d="M-0.052002 3.2H9.348L-0.052002 18.92V3.2Z" fill="#0061A6"/>
<path d="M155.026 5.956L154.963 9.6672H144.163C143.776 9.64963 143.394 9.75706 143.073 9.9736C142.949 10.0496 142.846 10.1552 142.773 10.2809C142.701 10.4066 142.66 10.5484 142.656 10.6936L142.482 21.6904H138.178L138.35 8.2456C138.371 6.7192 139.29 5.956 141.106 5.956H155.026Z" fill="#010B1E"/>
<path d="M118.934 10.1216L118.758 21.6904H114.513L114.593 10.8904C114.6 10.7563 114.582 10.6221 114.538 10.4952C114.492 10.2643 114.369 10.0559 114.188 9.90502C114.008 9.75413 113.781 9.66989 113.546 9.6664H107.84C107.68 9.64544 107.517 9.66173 107.364 9.71399C107.211 9.76625 107.072 9.85307 106.958 9.9677C106.845 10.0823 106.759 10.2217 106.708 10.3749C106.656 10.5282 106.641 10.6911 106.663 10.8512L106.594 21.6896H102.29L102.434 5.9552H115.608C116.274 5.88838 116.943 6.05446 117.501 6.4252C118.059 6.79594 118.471 7.34845 118.668 7.9888C118.877 8.67931 118.968 9.40004 118.938 10.1208" fill="#010B1E"/>
<path d="M100.695 5.9368L100.479 21.6912H96.1753L96.3913 5.9368H100.695Z" fill="#010B1E"/>
<path d="M82.2455 21.7104H78.0007L78.0807 10.9104C78.0874 10.7696 78.0665 10.6288 78.0191 10.496C77.9726 10.2685 77.8493 10.064 77.6698 9.9167C77.4903 9.76942 77.2657 9.68839 77.0335 9.68721H71.3279C70.5641 9.68721 70.1762 10.0952 70.1639 10.9112L70.0839 21.7112H65.7815L65.9255 5.9776H91.2743C91.9346 5.91114 92.5976 6.07541 93.1505 6.4425C93.7034 6.80959 94.1121 7.35684 94.3071 7.9912C94.5162 8.68167 94.6076 9.4024 94.5775 10.1232L94.4071 21.7112H90.1623L90.2423 10.9112C90.249 10.7704 90.2281 10.6296 90.1807 10.4968C90.1342 10.2693 90.0109 10.0648 89.8314 9.91749C89.6519 9.77021 89.4273 9.68918 89.1951 9.688H83.4895C82.7263 9.688 82.3383 10.096 82.3255 10.912L82.2455 21.7104Z" fill="#010B1E"/>
<path d="M59.632 15.3528H52.8408C52.2221 15.3528 51.908 15.6293 51.8984 16.1824L51.8696 16.8528C51.8727 17.014 51.8996 17.1739 51.9496 17.3272C52 17.5223 52.1166 17.6939 52.2794 17.8127C52.4422 17.9314 52.6412 17.99 52.8424 17.9784H59.5944L59.632 15.3528ZM64.0016 9.0944L63.8416 21.6904H50.5912C47.6096 21.836 47.5752 21 47.5752 18.6936L47.6168 13.3984C47.6221 12.2139 48.2568 11.6216 49.5208 11.6216H59.668L59.6488 10.6936C59.6489 10.5796 59.6306 10.4664 59.5944 10.3584C59.515 10.1324 59.3605 9.94047 59.1567 9.81467C58.9528 9.68887 58.712 9.63682 58.4744 9.6672H47.6328L47.6752 5.95599H61.0208C61.6574 5.92721 62.2843 6.11993 62.7948 6.50135C63.3054 6.88278 63.6679 7.42934 63.8208 8.048C63.9405 8.3838 64.0006 8.73792 63.9984 9.0944" fill="#010B1E"/>
<path d="M45.9697 17.9784L45.9273 21.6904H31.1409L31.1665 5.956H35.4305L35.3881 17.9784H45.9697Z" fill="#010B1E"/>
<path fill-rule="evenodd" clip-rule="evenodd" d="M157.583 5.956H155.492L155.43 9.6672H157.52L157.583 5.956Z" fill="#010B1E"/>
<path fill-rule="evenodd" clip-rule="evenodd" d="M158.941 5.956H157.895L157.833 9.6672H158.878L158.941 5.956Z" fill="#010B1E"/>
<path fill-rule="evenodd" clip-rule="evenodd" d="M159.959 5.956H159.253L159.19 9.6672H159.897L159.959 5.956Z" fill="#010B1E"/>
<path d="M132.438 15.3528H125.643C125.025 15.3528 124.71 15.6293 124.701 16.1824L124.672 16.8528C124.675 17.014 124.702 17.1739 124.752 17.3272C124.802 17.5223 124.919 17.6939 125.082 17.8127C125.245 17.9314 125.444 17.99 125.645 17.9784H132.397L132.438 15.3528ZM136.807 9.0944L136.647 21.6904H123.397C120.415 21.836 120.381 21 120.381 18.6936L120.422 13.3984C120.428 12.2139 121.062 11.6216 122.326 11.6216H132.474L132.454 10.6936C132.455 10.5796 132.436 10.4664 132.4 10.3584C132.321 10.1324 132.166 9.94047 131.962 9.81467C131.759 9.68887 131.518 9.63682 131.28 9.6672H120.438L120.481 5.95599H133.826C134.463 5.92721 135.09 6.11993 135.601 6.50135C136.111 6.88278 136.474 7.42934 136.626 8.048C136.746 8.38379 136.806 8.73792 136.804 9.0944" fill="#010B1E"/>
<path d="M31.2295 24.4864H31.6199C31.6571 24.4849 31.6937 24.4959 31.7239 24.5176C31.7507 24.5375 31.7703 24.5656 31.7799 24.5976L32.4999 27.0128C32.5127 27.0568 32.5247 27.1032 32.5351 27.1536C32.5455 27.204 32.5551 27.256 32.5647 27.3136C32.5759 27.2584 32.5871 27.2056 32.5983 27.1536C32.6085 27.1065 32.6213 27.06 32.6367 27.0144L33.4543 24.5992C33.4656 24.5677 33.4856 24.54 33.5119 24.5192C33.5408 24.4958 33.5771 24.4836 33.6143 24.4848H33.7503C33.7873 24.483 33.8237 24.494 33.8535 24.516C33.8798 24.5366 33.8996 24.5644 33.9103 24.596L34.7223 27.0112C34.7551 27.1057 34.7818 27.2021 34.8023 27.3C34.8119 27.2467 34.8207 27.1957 34.8287 27.1472C34.8364 27.1012 34.8471 27.0558 34.8607 27.0112L35.5807 24.596C35.5899 24.564 35.6093 24.536 35.6359 24.516C35.6651 24.4933 35.7013 24.4814 35.7383 24.4824H36.1047L35.0207 27.9568H34.5991L33.7191 25.3064C33.6992 25.2493 33.6829 25.1911 33.6703 25.132L33.6479 25.2248C33.6407 25.2544 33.6327 25.2824 33.6239 25.3048L32.7391 27.9552H32.3175L31.2295 24.4864ZM39.5127 24.4864V24.8696H37.8439V26.024H39.1943V26.3928H37.8439V27.5784H39.5119V27.9616H37.3711V24.4872L39.5127 24.4864ZM42.4543 26.0064H42.6311C42.6812 26.0083 42.7312 26.0004 42.7783 25.9832C42.8181 25.9648 42.8532 25.9374 42.8807 25.9032L44.0375 24.5936C44.0663 24.5587 44.1013 24.5294 44.1407 24.5072C44.1805 24.489 44.2241 24.4805 44.2679 24.4824H44.6679L43.3439 25.9784C43.3141 26.0117 43.2823 26.0433 43.2487 26.0728C43.2196 26.098 43.1873 26.1193 43.1527 26.136C43.1964 26.1496 43.237 26.1719 43.2719 26.2016C43.3101 26.2351 43.3457 26.2715 43.3783 26.3104L44.7599 27.9568H44.3527C44.3258 27.9575 44.299 27.9551 44.2727 27.9496C44.2538 27.9457 44.2355 27.9392 44.2183 27.9304C44.2023 27.9224 44.1877 27.9119 44.1751 27.8992C44.1623 27.8864 44.1495 27.8728 44.1359 27.8584L42.9359 26.4792C42.9183 26.46 42.9023 26.4432 42.8863 26.4288C42.8702 26.4145 42.8522 26.4027 42.8327 26.3936C42.8104 26.3832 42.7867 26.3762 42.7623 26.3728C42.7297 26.3685 42.6968 26.3666 42.6639 26.3672H42.4519V27.9576H41.9839V24.4832H42.4519L42.4543 26.0064ZM48.1935 24.4864V24.8696H46.5255V26.024H47.8759V26.3928H46.5255V27.5784H48.1935V27.9616H46.0519V24.4872L48.1935 24.4864ZM51.8231 24.4864V24.8696H50.1551V26.024H51.5055V26.3928H50.1551V27.5784H51.8231V27.9616H49.6823V24.4872L51.8231 24.4864ZM53.8287 26.6608V27.9608H53.3607V24.4864H54.3863C54.5802 24.4828 54.7736 24.5084 54.9599 24.5624C55.1069 24.6062 55.2432 24.6804 55.3599 24.78C55.4658 24.8723 55.5481 24.9886 55.5999 25.1192C55.6544 25.2608 55.6815 25.4115 55.6799 25.5632C55.6818 25.7154 55.653 25.8664 55.5951 26.0072C55.5396 26.1399 55.4548 26.2583 55.3471 26.3536C55.2283 26.4558 55.0901 26.5328 54.9407 26.58C54.7611 26.6364 54.5737 26.6634 54.3855 26.66L53.8287 26.6608ZM53.8287 26.2872H54.3887C54.5095 26.2893 54.6298 26.2712 54.7447 26.2336C54.8399 26.202 54.9276 26.1511 55.0023 26.084C55.0723 26.0209 55.127 25.9426 55.1623 25.8552C55.1988 25.7617 55.217 25.662 55.2159 25.5616C55.2213 25.4656 55.2059 25.3695 55.1707 25.2801C55.1355 25.1906 55.0813 25.1098 55.0119 25.0432C54.8358 24.9056 54.6147 24.8388 54.3919 24.856H53.8319L53.8287 26.2872ZM58.0239 27.96V24.4856H59.1319C59.3179 24.4823 59.5035 24.5036 59.6839 24.5488C59.8214 24.5828 59.9508 24.6437 60.0647 24.728C60.1616 24.8023 60.2377 24.9004 60.2855 25.0128C60.3347 25.1333 60.359 25.2626 60.3567 25.3928C60.3572 25.4768 60.344 25.5603 60.3175 25.64C60.2902 25.7201 60.249 25.7949 60.1959 25.8608C60.1381 25.9319 60.0692 25.9932 59.9919 26.0424C59.9024 26.0993 59.8055 26.1435 59.7039 26.1736C59.9186 26.2046 60.1189 26.3 60.2783 26.4472C60.3438 26.5172 60.3947 26.5997 60.428 26.6897C60.4612 26.7796 60.4762 26.8754 60.4719 26.9712C60.4737 27.1087 60.4464 27.245 60.3919 27.3712C60.3371 27.4926 60.2549 27.5996 60.1519 27.684C60.0387 27.776 59.9085 27.8447 59.7687 27.8864C59.6005 27.9366 59.4257 27.9608 59.2503 27.9584L58.0239 27.96ZM58.4943 26.3768V27.5864H59.2455C59.3624 27.5886 59.4789 27.573 59.5911 27.54C59.6796 27.5143 59.7614 27.4698 59.8311 27.4096C59.8921 27.3555 59.939 27.2874 59.9679 27.2112C59.9975 27.1303 60.0122 27.0446 60.0111 26.9584C60.0146 26.8776 59.9993 26.7971 59.9664 26.7233C59.9335 26.6494 59.8839 26.5842 59.8215 26.5328C59.653 26.4165 59.4497 26.3615 59.2455 26.3768H58.4943ZM58.4943 26.0424H59.1151C59.2312 26.0446 59.3471 26.0301 59.4591 25.9992C59.5462 25.9745 59.6277 25.9332 59.6991 25.8776C59.7615 25.8277 59.8102 25.7627 59.8407 25.6888C59.8721 25.6127 59.8879 25.5311 59.8871 25.4488C59.8941 25.3648 59.8811 25.2803 59.8491 25.2023C59.8171 25.1242 59.7671 25.0549 59.7031 25C59.5329 24.8916 59.3322 24.8414 59.1311 24.8568H58.4911L58.4943 26.0424ZM63.3247 27.5872C63.4568 27.5895 63.5881 27.5647 63.7103 27.5144C63.8202 27.4685 63.9185 27.3988 63.9983 27.3104C64.0787 27.2194 64.1397 27.113 64.1775 26.9976C64.2199 26.8686 64.2407 26.7334 64.2391 26.5976V24.4856H64.7071V26.5976C64.7093 26.7885 64.677 26.9782 64.6119 27.1576C64.5516 27.323 64.4583 27.4744 64.3375 27.6024C64.2147 27.7306 64.0661 27.8312 63.9015 27.8976C63.7182 27.9709 63.5221 28.0071 63.3247 28.004C63.1273 28.007 62.9312 27.9709 62.7479 27.8976C62.5834 27.8309 62.4349 27.7303 62.3119 27.6024C62.1909 27.4745 62.0975 27.3231 62.0375 27.1576C61.972 26.9782 61.9395 26.7885 61.9415 26.5976V24.4856H62.4095V26.592C62.4082 26.7279 62.4293 26.863 62.4719 26.992C62.5097 27.1074 62.5707 27.2138 62.6511 27.3048C62.7313 27.3931 62.8299 27.4627 62.9399 27.5088C63.0611 27.5611 63.1919 27.5878 63.3239 27.5872H63.3247ZM68.1063 25.0272C68.0944 25.0481 68.0787 25.0666 68.0599 25.0816C68.0415 25.0946 68.0192 25.1011 67.9967 25.1C67.9613 25.0967 67.928 25.0821 67.9015 25.0584C67.857 25.0255 67.8108 24.9951 67.7631 24.9672C67.699 24.9305 67.6315 24.9002 67.5615 24.8768C67.4692 24.8473 67.3727 24.8335 67.2759 24.836C67.1814 24.8341 67.0873 24.8482 66.9975 24.8776C66.923 24.9025 66.8542 24.9419 66.7951 24.9936C66.7419 25.0406 66.6999 25.0988 66.6719 25.164C66.6439 25.2314 66.6298 25.3038 66.6303 25.3768C66.6273 25.4625 66.6526 25.5469 66.7023 25.6168C66.7533 25.6838 66.8176 25.7397 66.8911 25.7808C66.976 25.8288 67.0655 25.8682 67.1583 25.8984L67.4639 26.0016C67.5706 26.0373 67.6724 26.0773 67.7695 26.1216C67.8661 26.1645 67.9558 26.2214 68.0359 26.2904C68.1153 26.3598 68.1795 26.4447 68.2247 26.54C68.2754 26.6542 68.2998 26.7783 68.2959 26.9032C68.2962 27.0496 68.2691 27.1948 68.2159 27.3312C68.1659 27.4619 68.0888 27.5806 67.9895 27.6792C67.8847 27.7812 67.76 27.8605 67.6231 27.912C67.4653 27.9708 67.2979 27.9996 67.1295 27.9968C66.9183 27.9993 66.709 27.9574 66.5151 27.8736C66.3363 27.7967 66.1749 27.6843 66.0407 27.5432L66.1767 27.32C66.1895 27.3023 66.2055 27.2871 66.2239 27.2752C66.2422 27.2633 66.2637 27.2572 66.2855 27.2576C66.3292 27.2619 66.3702 27.2811 66.4015 27.312C66.454 27.3549 66.5087 27.3949 66.5655 27.432C66.6409 27.4803 66.7214 27.5202 66.8055 27.5512C66.9144 27.5906 67.0297 27.6093 67.1455 27.6064C67.2469 27.608 67.3478 27.5923 67.4439 27.56C67.526 27.5323 67.6017 27.4882 67.6663 27.4304C67.7268 27.3748 67.7743 27.3065 67.8055 27.2304C67.8388 27.1481 67.8554 27.06 67.8543 26.9712C67.8583 26.8797 67.8334 26.7893 67.7831 26.7128C67.7332 26.644 67.6691 26.5867 67.5951 26.5448C67.5117 26.4977 67.4235 26.4598 67.3319 26.432L67.0263 26.3352C66.9225 26.3022 66.8205 26.2638 66.7207 26.22C66.6237 26.178 66.534 26.1207 66.4551 26.0504C66.3753 25.9774 66.3116 25.8886 66.2679 25.7896C66.2164 25.6675 66.1919 25.5357 66.1959 25.4032C66.1959 25.2807 66.2204 25.1594 66.2679 25.0464C66.3156 24.9316 66.3861 24.8276 66.4751 24.7408C66.5718 24.648 66.686 24.5754 66.8111 24.5272C66.9576 24.4714 67.1135 24.4443 67.2703 24.4472C67.4515 24.4448 67.6316 24.476 67.8015 24.5392C67.958 24.5984 68.1007 24.689 68.2207 24.8056L68.1063 25.0272ZM70.2663 27.9584H69.7959V24.484H70.2663V27.9584ZM72.2527 24.484C72.2846 24.482 72.3166 24.4872 72.3463 24.4992C72.3733 24.516 72.3967 24.5381 72.4151 24.564L74.4279 27.1824C74.4231 27.14 74.4199 27.1024 74.4183 27.0592C74.4167 27.016 74.4183 26.9792 74.4183 26.9448V24.484H74.8303V27.9584H74.5903C74.5583 27.9595 74.5265 27.9529 74.4975 27.9392C74.4683 27.9229 74.4429 27.9005 74.4231 27.8736L72.4135 25.2576C72.4135 25.2976 72.4191 25.3376 72.4207 25.376C72.4223 25.4144 72.4207 25.4504 72.4207 25.4824V27.9576H72.0087V24.4832L72.2527 24.484ZM78.6303 24.484V24.8672H76.9623V26.0216H78.3127V26.3904H76.9623V27.576H78.6303V27.9592H76.4895V24.4848L78.6303 24.484ZM81.8991 25.0272C81.8872 25.0481 81.8715 25.0666 81.8527 25.0816C81.8343 25.0946 81.812 25.1011 81.7895 25.1C81.7541 25.0967 81.7208 25.0821 81.6943 25.0584C81.6498 25.0255 81.6036 24.9951 81.5559 24.9672C81.4918 24.9305 81.4243 24.9002 81.3543 24.8768C81.262 24.8473 81.1655 24.8335 81.0687 24.836C80.9742 24.8341 80.8801 24.8482 80.7903 24.8776C80.7158 24.9025 80.647 24.9419 80.5879 24.9936C80.5346 25.0405 80.4925 25.0987 80.4647 25.164C80.4371 25.2315 80.4232 25.3039 80.4239 25.3768C80.4209 25.4625 80.4462 25.5469 80.4959 25.6168C80.5469 25.6838 80.6112 25.7397 80.6847 25.7808C80.7696 25.8288 80.8591 25.8682 80.9519 25.8984L81.2575 26.0016C81.3641 26.0373 81.466 26.0773 81.5631 26.1216C81.6597 26.1645 81.7494 26.2214 81.8295 26.2904C81.9089 26.3598 81.9731 26.4447 82.0183 26.54C82.069 26.6542 82.0934 26.7783 82.0895 26.9032C82.0898 27.0496 82.0627 27.1948 82.0095 27.3312C81.9595 27.4619 81.8824 27.5806 81.7831 27.6792C81.6783 27.7813 81.5536 27.8605 81.4167 27.912C81.2589 27.9708 81.0915 27.9996 80.9231 27.9968C80.7119 27.9993 80.5026 27.9574 80.3087 27.8736C80.1299 27.7967 79.9685 27.6843 79.8343 27.5432L79.9703 27.32C79.9832 27.3023 79.9992 27.2871 80.0175 27.2752C80.0358 27.2633 80.0573 27.2572 80.0791 27.2576C80.1228 27.2619 80.1638 27.2811 80.1951 27.312C80.2476 27.3549 80.3023 27.3949 80.3591 27.432C80.4346 27.4803 80.515 27.5203 80.5991 27.5512C80.708 27.5906 80.8233 27.6093 80.9391 27.6064C81.0405 27.608 81.1414 27.5923 81.2375 27.56C81.3196 27.5323 81.3953 27.4882 81.4599 27.4304C81.5204 27.3748 81.5679 27.3065 81.5991 27.2304C81.6324 27.1481 81.649 27.06 81.6479 26.9712C81.6519 26.8797 81.627 26.7893 81.5767 26.7128C81.5268 26.644 81.4627 26.5867 81.3887 26.5448C81.305 26.4965 81.2162 26.4576 81.1239 26.4288L80.8183 26.332C80.7145 26.299 80.6124 26.2606 80.5127 26.2168C80.4157 26.1748 80.326 26.1175 80.2471 26.0472C80.1673 25.9742 80.1036 25.8854 80.0599 25.7864C80.0085 25.6643 79.9839 25.5325 79.9879 25.4C79.9879 25.2775 80.0124 25.1562 80.0599 25.0432C80.1076 24.9284 80.1781 24.8244 80.2671 24.7376C80.3638 24.6448 80.478 24.5722 80.6031 24.524C80.7496 24.4683 80.9055 24.4411 81.0623 24.444C81.2435 24.4416 81.4236 24.4728 81.5935 24.536C81.75 24.5952 81.8927 24.6858 82.0127 24.8024L81.8991 25.0272ZM85.2823 25.0272C85.2704 25.0481 85.2547 25.0666 85.2359 25.0816C85.2174 25.0945 85.1952 25.101 85.1727 25.1C85.1373 25.0967 85.104 25.0821 85.0775 25.0584C85.033 25.0256 84.9868 24.9951 84.9391 24.9672C84.875 24.9305 84.8075 24.9002 84.7375 24.8768C84.6452 24.8473 84.5487 24.8335 84.4519 24.836C84.3574 24.8341 84.2633 24.8482 84.1735 24.8776C84.099 24.9024 84.0302 24.9419 83.9711 24.9936C83.9178 25.0405 83.8757 25.0987 83.8479 25.164C83.8199 25.2314 83.8058 25.3038 83.8063 25.3768C83.8033 25.4625 83.8286 25.5469 83.8783 25.6168C83.9293 25.6838 83.9936 25.7396 84.0671 25.7808C84.152 25.8288 84.2415 25.8682 84.3343 25.8984L84.6399 26.0016C84.7465 26.0373 84.8484 26.0773 84.9455 26.1216C85.0421 26.1646 85.1318 26.2214 85.2119 26.2904C85.2912 26.3598 85.3555 26.4448 85.4007 26.54C85.4515 26.6542 85.4758 26.7783 85.4719 26.9032C85.4722 27.0496 85.4451 27.1948 85.3919 27.3312C85.3419 27.4619 85.2647 27.5805 85.1655 27.6792C85.0607 27.7812 84.936 27.8605 84.7991 27.912C84.6413 27.9708 84.4739 27.9996 84.3055 27.9968C84.0943 27.9993 83.885 27.9574 83.6911 27.8736C83.5123 27.7967 83.3509 27.6843 83.2167 27.5432L83.3527 27.32C83.3656 27.3023 83.3815 27.2871 83.3999 27.2752C83.4182 27.2633 83.4397 27.2572 83.4615 27.2576C83.5052 27.2619 83.5462 27.2811 83.5775 27.312C83.63 27.3549 83.6847 27.3949 83.7415 27.432C83.817 27.4803 83.8974 27.5202 83.9815 27.5512C84.0904 27.5906 84.2057 27.6093 84.3215 27.6064C84.4229 27.608 84.5238 27.5923 84.6199 27.56C84.702 27.5323 84.7777 27.4882 84.8423 27.4304C84.9028 27.3748 84.9503 27.3065 84.9815 27.2304C85.0148 27.1481 85.0314 27.06 85.0303 26.9712C85.0343 26.8797 85.0094 26.7893 84.9591 26.7128C84.9092 26.644 84.8451 26.5867 84.7711 26.5448C84.6874 26.4965 84.5986 26.4576 84.5063 26.4288L84.2007 26.332C84.0969 26.299 83.9948 26.2606 83.8951 26.2168C83.7981 26.1748 83.7084 26.1175 83.6295 26.0472C83.5497 25.9742 83.486 25.8854 83.4423 25.7864C83.3909 25.6643 83.3663 25.5325 83.3703 25.4C83.3703 25.2775 83.3948 25.1562 83.4423 25.0432C83.49 24.9284 83.5605 24.8244 83.6495 24.7376C83.7462 24.6448 83.8604 24.5722 83.9855 24.524C84.132 24.4682 84.2879 24.4411 84.4447 24.444C84.6259 24.4416 84.806 24.4728 84.9759 24.536C85.1324 24.5952 85.2751 24.6858 85.3951 24.8024L85.2823 25.0272ZM89.0263 24.484V24.8672H87.3583V26.0216H88.7087V26.3904H87.3583V27.576H89.0263V27.9592H86.8855V24.4848L89.0263 24.484ZM92.2951 25.0272C92.2832 25.0481 92.2674 25.0665 92.2487 25.0816C92.2302 25.0945 92.208 25.101 92.1855 25.1C92.1501 25.0967 92.1168 25.0821 92.0903 25.0584C92.0458 25.0256 91.9996 24.9951 91.9519 24.9672C91.8878 24.9305 91.8203 24.9002 91.7503 24.8768C91.658 24.8473 91.5615 24.8335 91.4647 24.836C91.3702 24.8341 91.2761 24.8482 91.1863 24.8776C91.1118 24.9025 91.043 24.9419 90.9839 24.9936C90.9307 25.0406 90.8886 25.0988 90.8607 25.164C90.8327 25.2314 90.8186 25.3038 90.8191 25.3768C90.8161 25.4625 90.8414 25.5469 90.8911 25.6168C90.9421 25.6838 91.0064 25.7396 91.0799 25.7808C91.1648 25.8288 91.2543 25.8682 91.3471 25.8984L91.6527 26.0016C91.7594 26.0373 91.8612 26.0773 91.9583 26.1216C92.0549 26.1645 92.1446 26.2214 92.2247 26.2904C92.3041 26.3598 92.3683 26.4447 92.4135 26.54C92.4643 26.6542 92.4886 26.7783 92.4847 26.9032C92.485 27.0496 92.4579 27.1948 92.4047 27.3312C92.3547 27.4619 92.2775 27.5805 92.1783 27.6792C92.0735 27.7812 91.9488 27.8605 91.8119 27.912C91.6541 27.9708 91.4867 27.9996 91.3183 27.9968C91.1071 27.9993 90.8978 27.9574 90.7039 27.8736C90.525 27.7967 90.3636 27.6843 90.2295 27.5432L90.3655 27.32C90.3783 27.3023 90.3943 27.2871 90.4127 27.2752C90.431 27.2633 90.4525 27.2572 90.4743 27.2576C90.5181 27.2619 90.559 27.2811 90.5903 27.312C90.6428 27.3549 90.6975 27.3949 90.7543 27.432C90.8297 27.4803 90.9102 27.5202 90.9943 27.5512C91.1032 27.5906 91.2185 27.6093 91.3343 27.6064C91.4357 27.608 91.5366 27.5923 91.6327 27.56C91.7148 27.5323 91.7905 27.4882 91.8551 27.4304C91.9156 27.3748 91.9631 27.3065 91.9943 27.2304C92.0276 27.1481 92.0442 27.06 92.0431 26.9712C92.0471 26.8797 92.0222 26.7893 91.9719 26.7128C91.922 26.644 91.8579 26.5867 91.7839 26.5448C91.6999 26.4964 91.6109 26.4575 91.5183 26.4288L91.2127 26.332C91.1089 26.299 91.0069 26.2606 90.9071 26.2168C90.8101 26.1748 90.7204 26.1175 90.6415 26.0472C90.5615 25.976 90.4969 25.8892 90.4519 25.792C90.4005 25.6699 90.3759 25.5381 90.3799 25.4056C90.3799 25.2831 90.4044 25.1618 90.4519 25.0488C90.4996 24.934 90.5701 24.83 90.6591 24.7432C90.7558 24.6504 90.87 24.5778 90.9951 24.5296C91.1416 24.4738 91.2975 24.4467 91.4543 24.4496C91.6355 24.4472 91.8156 24.4784 91.9855 24.5416C92.142 24.6008 92.2847 24.6914 92.4047 24.808L92.2951 25.0272ZM96.5431 26.7024C96.5661 26.7414 96.5861 26.782 96.6031 26.824C96.6199 26.8672 96.6359 26.9104 96.6519 26.9544C96.6679 26.9096 96.6855 26.8656 96.7031 26.824C96.7207 26.7824 96.7407 26.744 96.7639 26.6992L97.9399 24.5632C97.9533 24.5337 97.9764 24.5096 98.0055 24.4952C98.0369 24.486 98.0696 24.482 98.1023 24.4832H98.4519V27.9576H98.0399V25.408C98.0399 25.3744 98.0399 25.3376 98.0399 25.2984C98.0399 25.2592 98.0399 25.2184 98.0471 25.18L96.8519 27.352C96.837 27.3845 96.8131 27.412 96.7831 27.4313C96.753 27.4506 96.718 27.4608 96.6823 27.4608H96.6143C96.5786 27.4607 96.5437 27.4504 96.5136 27.4312C96.4836 27.4119 96.4596 27.3844 96.4447 27.352L95.2279 25.1728C95.2327 25.2144 95.2367 25.2528 95.2391 25.2968C95.2415 25.3408 95.2391 25.3768 95.2391 25.4088V27.9616H94.8271V24.4872H95.1735C95.2062 24.486 95.2389 24.4901 95.2703 24.4992C95.2994 24.5136 95.3226 24.5376 95.3359 24.5672L96.5431 26.7024ZM103.335 26.2224C103.338 26.468 103.296 26.712 103.211 26.9424C103.134 27.1508 103.015 27.3414 102.861 27.5024C102.709 27.6609 102.524 27.7852 102.32 27.8672C102.097 27.9558 101.859 27.9998 101.62 27.9968C101.381 27.9999 101.144 27.9558 100.921 27.8672C100.718 27.785 100.533 27.6607 100.381 27.5024C100.227 27.3414 100.108 27.1509 100.031 26.9424C99.9459 26.7121 99.9039 26.468 99.9071 26.2224C99.904 25.9768 99.946 25.7328 100.031 25.5024C100.109 25.2941 100.228 25.1036 100.381 24.9424C100.533 24.7833 100.717 24.6582 100.921 24.5752C101.143 24.4856 101.381 24.441 101.62 24.444C101.86 24.4411 102.098 24.4857 102.32 24.5752C102.524 24.658 102.709 24.7831 102.861 24.9424C103.014 25.1037 103.133 25.2941 103.211 25.5024C103.295 25.7338 103.336 25.9786 103.332 26.2248L103.335 26.2224ZM102.855 26.2224C102.858 26.0274 102.829 25.8333 102.768 25.648C102.716 25.4891 102.632 25.3427 102.521 25.2176C102.413 25.1001 102.28 25.008 102.133 24.948C101.971 24.8832 101.798 24.8511 101.624 24.8536C101.451 24.8513 101.278 24.8834 101.117 24.948C100.97 25.0081 100.837 25.1001 100.729 25.2176C100.617 25.3423 100.532 25.4888 100.48 25.648C100.419 25.8333 100.39 26.0274 100.393 26.2224C100.39 26.4169 100.419 26.6104 100.48 26.7952C100.532 26.9538 100.617 27.0998 100.729 27.224C100.837 27.3418 100.969 27.4339 101.117 27.4936C101.279 27.5576 101.451 27.5894 101.624 27.5872C101.798 27.5896 101.971 27.5578 102.133 27.4936C102.281 27.434 102.413 27.3419 102.521 27.224C102.632 27.0994 102.716 26.9535 102.768 26.7952C102.827 26.611 102.856 26.4183 102.852 26.2248L102.855 26.2224ZM104.39 24.484H104.766C104.803 24.4825 104.839 24.4935 104.868 24.5152C104.894 24.5363 104.914 24.5639 104.926 24.5952L105.908 27.0464C105.932 27.1049 105.953 27.1647 105.97 27.2256C105.989 27.2904 106.007 27.3576 106.025 27.4272C106.039 27.3576 106.055 27.2904 106.073 27.2256C106.088 27.1646 106.108 27.1047 106.132 27.0464L107.109 24.5952C107.121 24.5641 107.141 24.5366 107.167 24.5152C107.196 24.4918 107.232 24.4795 107.269 24.4808H107.647L106.231 27.9552H105.807L104.39 24.484ZM109.461 27.9584H108.99V24.484H109.461V27.9584ZM111.447 24.484C111.479 24.482 111.511 24.4872 111.541 24.4992C111.568 24.516 111.591 24.5381 111.609 24.564L113.622 27.1824C113.618 27.14 113.614 27.1024 113.613 27.0592C113.611 27.016 113.613 26.9792 113.613 26.9448V24.484H114.025V27.9584H113.785C113.753 27.9595 113.721 27.9529 113.692 27.9392C113.663 27.9229 113.637 27.9006 113.617 27.8736L111.608 25.2576C111.608 25.2976 111.613 25.3376 111.615 25.376C111.617 25.4144 111.615 25.4504 111.615 25.4824V27.9576H111.203V24.4832L111.447 24.484ZM117.233 27.6168C117.319 27.6171 117.405 27.6126 117.491 27.6032C117.566 27.5953 117.64 27.5822 117.713 27.564C117.779 27.5469 117.845 27.5252 117.909 27.4992C117.97 27.4744 118.032 27.4456 118.093 27.4136V26.6472H117.555C117.542 26.6479 117.528 26.6459 117.516 26.6414C117.503 26.6368 117.491 26.6298 117.481 26.6208C117.473 26.6124 117.465 26.6022 117.461 26.5909C117.456 26.5796 117.453 26.5675 117.453 26.5552V26.2888H118.52V27.6224C118.434 27.6848 118.343 27.7399 118.248 27.7872C118.15 27.8349 118.049 27.874 117.945 27.904C117.832 27.9366 117.716 27.9602 117.599 27.9744C117.466 27.9903 117.333 27.9981 117.199 27.9976C116.962 28.0001 116.726 27.9558 116.505 27.8672C116.301 27.7846 116.116 27.6606 115.962 27.5032C115.807 27.3425 115.687 27.152 115.608 26.9432C115.521 26.7133 115.477 26.4691 115.48 26.2232C115.477 25.976 115.52 25.7303 115.605 25.4984C115.684 25.2888 115.806 25.0981 115.962 24.9384C116.121 24.7794 116.312 24.6559 116.522 24.576C116.757 24.4873 117.007 24.4436 117.257 24.4472C117.386 24.4462 117.514 24.4561 117.641 24.4768C117.753 24.4953 117.863 24.5245 117.969 24.564C118.067 24.6005 118.161 24.6469 118.249 24.7024C118.334 24.7563 118.414 24.8176 118.489 24.8856L118.355 25.0992C118.345 25.1187 118.33 25.1351 118.311 25.1466C118.292 25.1582 118.271 25.1644 118.249 25.1648C118.219 25.1636 118.189 25.1545 118.164 25.1384C118.123 25.1155 118.078 25.0888 118.028 25.0584C117.97 25.0219 117.909 24.9906 117.845 24.9648C117.763 24.9318 117.678 24.9064 117.591 24.8888C117.477 24.8663 117.36 24.8558 117.243 24.8576C117.062 24.8549 116.881 24.8872 116.712 24.9528C116.558 25.0133 116.42 25.107 116.307 25.2272C116.192 25.3515 116.105 25.4984 116.05 25.6584C115.988 25.8415 115.958 26.0339 115.961 26.2272C115.958 26.4269 115.989 26.6256 116.054 26.8144C116.111 26.9769 116.2 27.1259 116.317 27.252C116.43 27.3712 116.566 27.4648 116.717 27.5264C116.881 27.591 117.056 27.623 117.232 27.6208" fill="#010B1E"/>
</g>
</g>
<defs>
<clipPath id="clip0_1326_6755">
<rect width="160" height="32" fill="white"/>
</clipPath>
</defs>
</svg>
