<svg width="78" height="65" viewBox="0 0 78 65" fill="none" xmlns="http://www.w3.org/2000/svg">
<g clip-path="url(#clip0_1602_541)">
<path d="M4.67698 0.679199H73.3231C75.5212 0.679199 77.3195 2.49025 77.3195 4.70388V59.3935C77.3195 61.606 75.52 63.4182 73.3231 63.4182H4.67698C2.47888 63.4182 0.680542 61.6072 0.680542 59.3935V4.70388C0.680542 2.49025 2.47888 0.679199 4.67698 0.679199Z" fill="white" stroke="#2C3F7E" stroke-width="1.36147" stroke-miterlimit="2.613"/>
<path d="M77.3159 14.4116V59.3938C77.3159 61.6053 75.5158 63.4183 73.32 63.4183H4.67407C2.47826 63.4183 0.677124 61.6073 0.677124 59.3938V14.4116H77.3159Z" fill="#2C3F7E"/>
<path d="M12.8082 30.03L27.1533 30.0615C28.0647 30.1737 28.5588 31.0496 28.2979 31.8439L26.0943 38.5386C25.9033 38.888 25.484 39.1429 24.9594 39.3575C25.4496 39.8289 25.4703 40.388 25.2262 40.9953C24.3305 43.3151 23.5805 45.2658 22.6849 47.5856C22.5156 48.1506 21.6928 48.814 20.9084 48.751L6.51208 48.7657C6.31622 48.6348 6.34279 48.2756 6.61345 47.6427C8.72265 41.1852 10.821 34.8783 12.8082 30.03ZM15.2855 40.6065L13.2914 46.376C13.3377 46.5532 13.6586 46.6378 14.254 46.6309C14.9686 46.8091 15.5335 46.5128 15.8809 45.5227L17.2795 41.8299C17.4626 40.8831 17.1801 40.5218 16.3858 40.5602L15.2855 40.6065ZM18.188 32.0171L16.1939 37.7877C16.2402 37.9648 16.561 38.0485 17.1565 38.0416C17.872 38.2197 18.436 37.9235 18.7844 36.9333L20.182 33.2405C20.3651 32.2947 20.0826 31.9325 19.2883 31.9719L18.188 32.0171ZM38.5861 18.2803L30.3038 29.8223H31.3697L25.3807 48.7549L29.1788 48.7569L25.6573 60.0942L33.5921 49.0324L32.5035 49.0315L35.4523 40.3723L37.7327 40.577L35.3145 48.7589L38.7308 48.7559L35.1177 60.5755L43.7759 49.0473L42.5811 49.0197L48.8831 30.0733H44.8369L48.3299 18.5264L48.1272 18.5539L40.3695 29.3263L39.9847 29.781L41.1588 29.8135L38.4798 38.2631L36.1609 38.1519L38.7022 30.0635L34.911 30.0753L38.5861 18.2803ZM51.5857 30.0654L62.5973 30.0969C62.5353 30.8439 62.3394 31.4463 62.0117 31.9039L58.186 31.9974L56.0581 38.2591L59.6977 38.3841C59.6702 39.1508 59.4664 39.8378 59.1417 40.4707L55.3061 40.4884L53.1211 46.505L56.8041 46.7943C56.8543 47.502 56.6683 48.1811 56.2894 48.8376L45.6046 48.7736C45.2847 48.7372 45.1135 48.5433 45.268 48.001C47.2906 41.8968 49.3407 35.834 51.5857 30.0654ZM64.3846 30.0565L71.6089 30.2524L66.2911 46.5857L69.9268 46.692C69.9632 47.5207 69.7093 48.2283 69.2379 48.8445L58.2873 48.7805L58.2253 47.7894L64.3846 30.0565Z" fill="white"/>
<path fill-rule="evenodd" clip-rule="evenodd" d="M7.52617 4.07469H15.0171L15.4079 2.71941C15.5762 2.33655 15.9236 2.11116 16.4502 2.04325L19.3271 2.09344C19.7798 2.10131 20.0367 2.61607 19.9333 2.99204L19.6341 4.07469H21.4215L21.2 5.04219H19.3674L17.0732 13.3599L15.3193 13.3077L17.6184 5.04219H16.4895L14.151 13.3087L12.3676 13.2752L12.7819 11.8353H9.78497C9.23479 11.8353 8.88736 11.2281 9.09897 10.5135L10.2544 6.60711C10.4257 6.02937 11.0221 5.90535 11.8243 5.88862L14.4482 5.83252L14.5368 5.8335H14.5378L14.7386 5.04218H7.28503L7.52617 4.07469ZM23.6596 4.69475L22.5907 8.53619C22.4333 9.10015 22.4234 9.60113 22.6744 10.0539L24.4559 13.2615L26.4155 13.2634L24.3574 9.66018C24.2069 9.39542 24.1557 9.24287 24.2885 8.73402L25.3771 4.56877L25.2541 5.04219H27.3082L27.3337 4.9477L26.3997 8.38265C26.3466 8.5795 26.2806 8.72812 26.0326 8.76552L25.5474 8.77241L25.2039 9.74974L26.882 9.77829C27.4617 9.78813 27.9174 9.422 28.0886 8.78323L29.0867 5.04219H35.6633L34.0806 10.7792L32.3238 10.7704C31.873 10.7674 32 10.2989 32.0511 10.1375L33.1289 6.73407L33.8976 6.74096L34.2076 5.78429L30.1142 5.73213L29.8376 6.70553L31.1693 6.71734L30.1644 10.3235C29.9725 11.0135 30.1742 11.7369 30.8268 11.7458L33.7657 11.7851L33.8287 11.6926L33.3956 13.2634L35.1406 13.3205L37.553 4.81877L37.489 5.04219H39.0205L39.2429 4.07469H22.7886L22.5524 5.04219H23.5632L23.6596 4.69475ZM65.1487 13.2792L66.9331 6.99883C66.879 6.87875 66.8013 6.74391 66.6831 6.74391H66.2225C65.9341 6.74391 65.7501 6.8197 65.7107 6.98505L65.0503 9.74187H63.3358L63.9568 7.33347C64.0011 7.16221 64.135 6.78919 63.8466 6.77541L63.2275 6.74391C62.9962 6.7321 62.8998 6.85612 62.8712 6.9634L61.1577 13.2743L59.3703 13.2979L61.201 6.71144C61.3506 6.17208 61.7827 5.7902 62.2512 5.7902H64.632C65.0296 5.80496 65.1802 6.01854 65.2176 6.32267C65.442 5.98212 65.6881 5.71441 66.0198 5.73607H66.7432C66.9686 5.73607 67.1664 5.77642 67.2589 5.85417L67.6821 4.36405L67.4892 5.04219H60.4264L59.4274 8.78323C59.2571 9.422 58.8015 9.78813 58.2217 9.77829L56.5436 9.74974L56.8862 8.77241L57.3724 8.76552C57.6204 8.72812 57.6853 8.5795 57.7395 8.38265L58.6735 4.9477L58.6479 5.04219H56.5928L56.7169 4.56877L55.6283 8.73402C55.4954 9.24287 55.5456 9.39542 55.6972 9.66018L57.7552 13.2634L55.7946 13.2615L54.0142 10.0539C53.7622 9.60113 53.773 9.10015 53.9295 8.53619L54.9984 4.69475L54.9019 5.04219H53.7494L53.9856 4.07469H70.7086L70.4517 5.04219H69.2402L69.3976 4.47921L66.9203 13.3126L65.1487 13.2792ZM42.2615 13.538L42.7556 12.0391C42.1759 11.2782 42.3826 10.4171 43.3589 10.2448C44.3884 10.0627 44.6502 10.3816 44.7221 10.7556L45.3648 10.7763C45.5154 10.7802 45.6246 10.6434 45.6807 10.4574L45.8648 9.5529C45.91 9.3285 45.9327 9.13362 45.7112 9.13066L43.9288 9.10114C43.3875 9.09228 43.2221 8.70942 43.3245 8.25077L43.6827 6.65435C43.7949 6.15732 44.225 5.79414 44.8018 5.80103L46.7142 5.82465C46.9907 5.8276 46.9907 5.61796 47.0449 5.42111L47.1482 5.04219H40.3639L40.6001 4.07469H47.413L47.7407 2.8759C47.8549 2.46154 48.1767 2.00781 48.7741 2.01273L51.778 2.04226C52.4237 2.25584 52.4217 2.78929 52.1254 3.50581L50.3922 3.54813L50.5428 2.9822L49.6068 2.96547L49.2919 4.07469H52.6274L52.4059 5.04219H49.0182L48.533 6.75277L45.7713 6.71636C45.5291 6.7134 45.349 6.79313 45.3077 6.96635L45.1266 7.73208C45.0744 7.95156 45.103 8.12971 45.2949 8.12971L47.2683 8.12872C47.6757 8.12872 47.8864 8.80882 47.721 9.39444L47.3008 10.8747C47.1521 11.3993 46.6403 11.8885 46.1098 11.8727L44.477 11.8245L44.0272 13.5508L42.2615 13.538ZM16.7631 4.07469L17.024 3.15345C17.0594 2.99303 17.0899 2.95759 17.2917 2.96645L18.0584 2.98712C18.1637 3.00385 18.1676 3.09046 18.1411 3.1633L17.7651 4.51562L17.8871 4.07469H16.7631ZM12.3666 10.8157H11.281C10.9641 10.8157 10.8322 10.6838 10.9454 10.2537L11.5093 8.11593L11.3233 7.5313L12.3666 10.8157ZM12.7111 6.84332L14.1412 6.81183L13.526 9.03716L12.7111 6.84332Z" fill="#2C3F7E"/>
</g>
<defs>
<clipPath id="clip0_1602_541">
<rect width="78" height="64.0978" fill="white"/>
</clipPath>
</defs>
</svg>
