<svg width="24" height="22" viewBox="0 0 24 22" fill="none" xmlns="http://www.w3.org/2000/svg">
<g clip-path="url(#clip0_1326_6826)">
<path d="M19.2855 19.0174C19.2855 19.2222 19.2855 19.3955 19.2855 19.5688C19.2855 20.1781 19.2867 20.787 19.2843 21.3963C19.2828 21.751 19.0534 21.9966 18.7288 22.0001C18.3967 22.0036 18.163 21.7541 18.1622 21.3889C18.1606 20.6739 18.1618 19.9593 18.1614 19.2444C18.1614 19.1775 18.1614 19.1107 18.1614 19.0264C18.0755 19.0225 18.0086 19.0171 17.9416 19.0171C14.3995 19.0163 10.8571 19.0163 7.31506 19.0124C7.18426 19.0124 7.13225 19.0454 7.10427 19.1787C6.72091 21.0166 4.9889 22.2103 3.07446 21.9632C1.25931 21.7293 -0.0999796 20.0821 0.0127038 18.2492C0.0410717 17.7853 0.152967 17.34 0.366908 16.9246C0.428372 16.8053 0.43507 16.7047 0.396458 16.5741C-0.173657 14.6398 -0.150411 12.7242 0.609217 10.8381C0.683288 10.6543 0.779424 10.4771 0.879893 10.3053C1.41376 9.39259 1.95078 9.05026 3.01576 8.9434V7.82588C2.71908 7.82588 2.41846 7.84103 2.1202 7.81927C1.97836 7.80917 1.80579 7.7641 1.71281 7.67084C1.60958 7.56748 1.5296 7.39146 1.52881 7.24652C1.51659 5.49369 1.51344 3.74085 1.52408 1.98802C1.53038 0.917122 2.44643 0.0140876 3.53662 0.00825904C5.59132 -0.00262089 7.64602 -0.00223233 9.70072 0.00825904C10.785 0.013699 11.7018 0.896916 11.7137 1.96665C11.7334 3.73192 11.7219 5.49718 11.7188 7.26245C11.7184 7.59779 11.4832 7.81966 11.142 7.82471C10.8406 7.82899 10.5388 7.82549 10.2228 7.82549V8.94418H16.6465C16.6465 8.57893 16.6516 8.22066 16.639 7.86279C16.6378 7.82432 16.539 7.76876 16.4779 7.75555C15.6749 7.57991 15.0047 7.18824 14.4697 6.57236C13.4847 5.43812 13.3452 3.77505 14.1261 2.48033C14.9145 1.1728 16.4582 0.510679 17.9735 0.830471C19.4537 1.14288 20.5916 2.37348 20.7681 3.85276C20.9884 5.70041 19.7812 7.36465 17.9337 7.75089C17.8116 7.77653 17.7659 7.81811 17.769 7.94361C17.7769 8.27157 17.7718 8.6003 17.7718 8.95739H18.0074C18.9593 8.95739 19.9112 8.96711 20.8627 8.95389C21.4765 8.94535 21.9793 9.16877 22.4024 9.5892C22.9028 10.0866 23.2168 10.6947 23.4189 11.356C24.0147 13.3059 23.9875 15.2406 23.2176 17.1445C23.008 17.6629 22.7054 18.1284 22.276 18.5026C21.8824 18.8453 21.4289 19.0283 20.897 19.019C20.4372 19.0112 19.977 19.0178 19.5168 19.0178C19.449 19.0178 19.3809 19.0178 19.2863 19.0178L19.2855 19.0174ZM1.29832 15.7313C1.40509 15.6567 1.45631 15.621 1.50714 15.5852C3.60281 14.1184 6.52588 15.2149 7.09009 17.6862C7.12949 17.8587 7.18307 17.9139 7.36707 17.9135C11.8543 17.9085 16.3412 17.9081 20.8284 17.9155C21.1594 17.9159 21.4214 17.8098 21.6298 17.5747C21.7697 17.4165 21.9017 17.2463 22.0065 17.0641C22.3796 16.4156 22.5537 15.7041 22.64 14.9713C22.7791 13.7889 22.6971 12.6255 22.2819 11.4986C22.1282 11.0813 21.9257 10.6889 21.6042 10.3679C21.4009 10.1651 21.1649 10.0594 20.8631 10.0609C19.2812 10.0687 17.6993 10.0633 16.1178 10.0633C11.7377 10.0633 7.35801 10.0648 2.97793 10.0594C2.67771 10.0594 2.43973 10.155 2.23446 10.3597C1.91296 10.6803 1.70611 11.07 1.55048 11.4866C1.18051 12.477 1.07847 13.5048 1.15057 14.5508C1.17697 14.932 1.24434 15.3105 1.29832 15.7309V15.7313ZM10.5975 6.70835C10.5975 6.63453 10.5975 6.58518 10.5975 6.53583C10.5975 5.05694 10.599 3.57765 10.5967 2.09876C10.5959 1.50036 10.1956 1.11335 9.58292 1.11296C8.17792 1.1118 6.77253 1.11296 5.36753 1.11296C4.76905 1.11296 4.17017 1.10674 3.57169 1.11529C2.97399 1.12345 2.51499 1.70242 2.68125 2.24214C3.05437 2.24214 3.43182 2.24214 3.80887 2.24214C4.73516 2.24214 5.66145 2.2402 6.58735 2.2437C6.95258 2.24525 7.20987 2.51375 7.17874 2.84676C7.15116 3.14323 6.91121 3.34879 6.57986 3.34918C5.50858 3.35112 4.4377 3.34918 3.36642 3.34918C3.13002 3.34918 2.89322 3.34918 2.65801 3.34918V4.48108C2.94484 4.48108 3.21512 4.48108 3.4854 4.48108C4.51256 4.48108 5.53971 4.4803 6.56686 4.48147C6.89073 4.48185 7.11728 4.65477 7.17204 4.93454C7.24139 5.29008 6.96756 5.58772 6.56292 5.58811C5.33404 5.59005 4.10556 5.58889 2.87668 5.58889C2.80418 5.58889 2.73129 5.58889 2.66037 5.58889V6.70835H10.5971H10.5975ZM6.05782 18.4653C6.0586 17.1158 4.95738 16.0352 3.5776 16.0321C2.23761 16.029 1.13166 17.1267 1.13048 18.4602C1.12929 19.8031 2.23012 20.8911 3.59139 20.8927C4.95226 20.8942 6.05663 19.807 6.05782 18.4653ZM19.674 4.28796C19.6744 2.94623 18.5716 1.8594 17.2095 1.8594C15.8479 1.8594 14.7455 2.94662 14.7467 4.28912C14.7478 5.63241 15.8487 6.71807 17.2103 6.71807C18.5716 6.71807 19.6736 5.63124 19.674 4.28796ZM4.16387 8.94185H9.06796V7.84181H4.16387V8.94185Z" fill="#010B1E"/>
<path d="M4.15482 18.4606C4.156 18.7668 3.90148 19.0178 3.5918 19.0162C3.28172 19.0147 3.02917 18.7609 3.0335 18.4559C3.03744 18.1575 3.28487 17.9138 3.58746 17.91C3.89754 17.9061 4.15364 18.1544 4.15482 18.4609V18.4606Z" fill="#010B1E"/>
<path d="M16.6196 4.24592C16.6846 4.12935 16.7299 3.99529 16.8186 3.90009C17.0566 3.64403 17.3099 3.40156 17.5629 3.15987C17.8 2.93333 18.1377 2.93217 18.3595 3.14821C18.5825 3.36503 18.5884 3.70037 18.3611 3.9339C18.1129 4.18919 17.858 4.43865 17.5999 4.68384C17.4206 4.85403 17.1854 4.88706 16.9715 4.78836C16.767 4.69394 16.6389 4.4845 16.6196 4.24592Z" fill="#010B1E"/>
</g>
<defs>
<clipPath id="clip0_1326_6826">
<rect width="23.8333" height="22" fill="white"/>
</clipPath>
</defs>
</svg>
