<svg width="79" height="82" viewBox="0 0 79 82" fill="none" xmlns="http://www.w3.org/2000/svg">
<path d="M12.9806 45.9213C21.5549 30.9093 30.1287 15.8973 38.704 0.88623C37.1023 11.1642 35.4943 21.4408 33.8925 31.7188C33.881 31.8264 33.7777 31.8867 33.7155 31.9656C22.7691 43.6856 11.8204 55.4032 0.875 67.1241C4.9019 60.0515 8.94745 52.99 12.9806 45.9213Z" fill="#062F62"/>
<path d="M39.5586 0.881836C52.1833 22.9645 64.7955 45.0543 77.4187 67.1379C72.3885 61.7719 67.3708 56.3934 62.344 51.0236C56.3709 44.6347 50.3968 38.2463 44.4232 31.8579C44.362 31.7761 44.3725 31.6651 44.3519 31.5704C42.7559 21.3407 41.1546 11.1115 39.5586 0.881836Z" fill="#062F62"/>
<path d="M21.1988 47.9158C21.5261 47.5613 21.8299 47.1838 22.17 46.8427C24.3043 46.8322 26.4395 46.8393 28.5742 46.8389C24.8813 53.6062 21.1692 60.363 17.4767 67.1303C13.0149 67.1303 8.55358 67.1322 4.0918 67.1298C9.79605 60.7266 15.496 54.32 21.1988 47.9158Z" fill="#062F62"/>
<path d="M30.6891 46.838C34.4146 46.8389 38.1396 46.8356 41.8647 46.8389C42.1943 49.0899 42.5282 51.3399 42.8569 53.5909C41.6245 53.5919 40.3926 53.5924 39.1601 53.5919C39.1597 58.1049 39.1601 62.6178 39.1597 67.1313C35.2567 67.1323 31.3537 67.1289 27.4512 67.1332C28.0162 65.1889 28.6094 63.2527 29.1855 61.3117C29.9529 58.7517 30.7145 56.1902 31.4843 53.6311C30.2236 53.6321 28.9635 53.6311 27.7028 53.6321C28.6989 51.3677 29.6931 49.1024 30.6891 46.838Z" fill="#062F62"/>
<path d="M45.5786 46.9409C45.9877 46.772 46.4336 46.8509 46.8622 46.838C49.9557 46.837 53.0492 46.8394 56.1432 46.8366C57.9669 48.8742 59.7802 50.9228 61.603 52.9618C59.0797 52.9628 56.5561 52.9599 54.0328 52.9637C53.5334 52.9752 53.1583 53.5713 53.3961 54.0215C54.1615 55.4568 54.9419 56.8849 55.7112 58.3187C56.0116 58.9842 56.7063 59.4397 57.4364 59.4507C60.4184 59.4512 63.4004 59.4507 66.3819 59.4507C66.7092 59.456 67.0374 59.4402 67.3641 59.4574C69.6367 62.006 71.8963 64.5674 74.1621 67.1222C66.625 67.1241 59.0884 67.1237 51.5513 67.1227C51.2178 67.1141 50.881 67.1629 50.5509 67.0973C49.7462 66.9725 49.0223 66.4295 48.6754 65.6932C48.5047 65.3602 48.4554 64.9856 48.3573 64.6287C47.0574 59.4139 45.7508 54.2 44.4543 48.9842C44.2577 48.1484 44.7677 47.2226 45.5786 46.9409Z" fill="#062F62"/>
<path d="M20.643 72.9087C21.3344 72.3121 22.2587 71.9518 23.1787 72.0489C23.7514 72.0958 24.3025 72.3236 24.7537 72.6781C24.8943 72.7809 25.0967 72.9077 25.2646 72.7886C25.4804 72.6073 25.4148 72.2681 25.6249 72.082C25.6885 72.1202 25.7808 72.1485 25.767 72.2437C25.7818 73.1833 25.7784 74.1244 25.8134 75.0635C25.8177 75.1941 25.8091 75.3271 25.7617 75.4515C25.6952 75.4304 25.6038 75.4247 25.5885 75.341C25.4301 74.8961 25.3081 74.4353 25.0991 74.01C24.9125 73.6378 24.7111 73.2665 24.4283 72.958C24.1068 72.5987 23.6667 72.3288 23.1806 72.281C22.5472 72.2217 21.8305 72.4073 21.4449 72.9474C21.1655 73.3306 21.0545 73.8019 20.9602 74.2583C20.8378 74.9678 20.8028 75.6883 20.7689 76.4069C20.7593 77.2997 20.7717 78.2206 21.0975 79.0655C21.2793 79.5363 21.5865 79.9846 22.0448 80.2204C22.5409 80.4802 23.1299 80.4482 23.6619 80.3324C24.2838 80.1994 24.8484 79.8076 25.1699 79.2559C25.4952 78.7301 25.5904 78.1053 25.6234 77.4987C25.7339 77.4705 25.8473 77.4762 25.9588 77.4987C25.9746 77.5633 26.0114 77.6264 25.9985 77.6972C25.9593 78.1369 25.8775 78.5751 25.7268 78.9914C25.4526 79.7707 24.7379 80.352 23.9413 80.5367C23.3791 80.6644 22.784 80.7362 22.217 80.595C21.5473 80.4338 20.9291 80.0913 20.4038 79.6497C20.2249 79.4956 20.0546 79.3263 19.9374 79.1196C19.7297 78.7651 19.5025 78.4187 19.3546 78.0331C18.9571 77.0174 18.9599 75.8519 19.3632 74.8386C19.6455 74.1153 20.0747 73.4412 20.643 72.9087Z" fill="#062F62"/>
<path d="M72.2642 72.1193C72.4417 72.1074 72.6192 72.0686 72.7981 72.0896C72.9115 72.1107 72.9885 72.2207 72.9813 72.3346C72.9851 74.6951 72.9828 77.0562 72.9823 79.4167C72.9732 79.6593 72.9651 79.9645 73.1995 80.1114C73.4865 80.2554 73.8219 80.219 74.1334 80.2243C74.1874 80.2985 74.198 80.431 74.0788 80.4377C73.3631 80.4846 72.6459 80.5118 71.9297 80.5472C71.7982 80.5616 71.6298 80.5166 71.602 80.3688C71.5805 80.131 71.6087 79.8913 71.591 79.654C71.5685 79.6224 71.546 79.5928 71.5236 79.5655C71.3628 79.7459 71.2169 79.9425 71.0241 80.0922C70.528 80.507 69.8381 80.6783 69.2065 80.5319C68.52 80.385 67.9449 79.8947 67.6019 79.2942C67.1417 78.4914 67.0216 77.4949 67.2957 76.6098C67.5335 75.8558 68.0497 75.1831 68.7449 74.7985C69.2515 74.5181 69.8677 74.399 70.4304 74.5684C70.904 74.7018 71.2738 75.0535 71.5508 75.4467C71.6255 75.331 71.5843 75.1908 71.5891 75.0635C71.5838 74.3937 71.5896 73.7239 71.5886 73.0541C71.5925 72.8374 71.4547 72.6212 71.2494 72.5465C70.9571 72.4379 70.6399 72.4786 70.3361 72.448C70.3385 72.3719 70.3117 72.2729 70.4088 72.249C71.0274 72.2059 71.6456 72.1595 72.2642 72.1193ZM69.7945 74.8004C69.43 74.9061 69.1783 75.2252 69.0319 75.5606C68.764 76.1706 68.7248 76.8481 68.7047 77.5049C68.7176 77.9704 68.7339 78.4398 68.8334 78.8967C68.9142 79.2574 69.0405 79.6253 69.2994 79.8999C69.5783 80.2018 70.0342 80.3162 70.427 80.2061C70.6806 80.1267 70.8978 79.9511 71.0485 79.7344C71.37 79.2871 71.4987 78.7345 71.5618 78.1958C71.6326 77.46 71.6063 76.7012 71.3772 75.9936C71.2422 75.6003 71.0399 75.2056 70.6968 74.9554C70.4423 74.765 70.0979 74.7061 69.7945 74.8004Z" fill="#062F62"/>
<path d="M39.5514 72.2014C40.0011 72.0646 40.5168 72.398 40.5666 72.8669C40.6498 73.3314 40.247 73.7965 39.7776 73.7893C39.3672 73.8065 38.9878 73.4644 38.96 73.0554C38.9151 72.6755 39.182 72.2937 39.5514 72.2014Z" fill="#062F62"/>
<path d="M55.2422 72.1995C55.7402 72.0507 56.2918 72.4856 56.2531 73.0056C56.255 73.4946 55.7483 73.8883 55.2747 73.7721C54.8719 73.6927 54.58 73.2769 54.6461 72.8707C54.6805 72.5526 54.9326 72.2751 55.2422 72.1995Z" fill="#062F62"/>
<path d="M58.825 72.336C58.8379 72.179 59.1049 72.1843 59.1178 72.3398C59.1192 73.0402 59.1159 73.7416 59.1173 74.442C59.0982 74.5458 59.1919 74.6396 59.2953 74.6329C59.7914 74.6415 60.2885 74.6243 60.7846 74.6401C60.932 74.6511 60.9545 74.8687 60.832 74.9329C60.3359 74.9314 59.8393 74.9233 59.3436 74.9324C59.1986 74.9247 59.1025 75.0711 59.1183 75.2056C59.1154 76.6413 59.1192 78.0775 59.1168 79.5138C59.1068 79.7807 59.2082 80.0831 59.4608 80.2104C59.8259 80.3874 60.3124 80.2946 60.565 79.9692C60.832 79.6248 60.8999 79.1703 60.8985 78.7459C60.887 78.6665 60.9291 78.6 60.9655 78.5349C61.0353 78.5459 61.1319 78.5177 61.176 78.5947C61.2406 78.6794 61.2004 78.7904 61.1985 78.8885C61.1602 79.4157 61.0042 79.9721 60.6109 80.3462C60.3421 80.6122 59.9584 80.7333 59.5866 80.739C59.147 80.7476 58.6891 80.6893 58.304 80.4644C57.937 80.2544 57.6854 79.8439 57.6921 79.4181C57.6935 78.0464 57.6926 76.6748 57.693 75.3036C57.6801 75.1855 57.6969 75.0338 57.5897 74.9563C57.4505 74.9008 57.2931 74.9376 57.1472 74.9286C56.9826 74.9142 56.7984 74.9807 56.6549 74.8764C56.6501 74.774 56.674 74.6271 56.8084 74.6367C57.4988 74.697 58.1418 74.2329 58.4466 73.6368C58.6461 73.2287 58.7561 72.7828 58.825 72.336Z" fill="#062F62"/>
<path d="M10.3017 72.3381C12.6905 72.3385 15.0793 72.3371 17.4681 72.3385C17.4633 73.4284 17.4752 74.5182 17.4623 75.6076C17.4724 75.7598 17.2791 75.7899 17.191 75.6928C17.0724 74.8929 16.8236 74.1063 16.4088 73.4097C16.2189 73.1016 15.961 72.795 15.595 72.7041C15.3204 72.6438 15.0377 72.6117 14.7573 72.6304C14.654 72.7026 14.6439 72.8442 14.6434 72.9605C14.6463 75.1923 14.6439 77.4247 14.6444 79.6565C14.6353 79.8474 14.7377 80.0436 14.9204 80.1163C15.3285 80.2885 15.7864 80.2273 16.2103 80.3239C16.2304 80.4297 16.1868 80.5584 16.0543 80.5349C14.5865 80.5383 13.1182 80.534 11.6504 80.5373C11.5758 80.5316 11.4791 80.5459 11.4346 80.4703C11.4361 80.4316 11.4394 80.3531 11.4409 80.3144C11.9159 80.2354 12.4207 80.2306 12.8565 80.0005C12.9857 79.9316 13.1388 79.8268 13.1316 79.6623C13.1331 77.3964 13.1321 75.1302 13.1321 72.8643C13.1398 72.7687 13.1043 72.6366 12.99 72.6294C12.6341 72.6069 12.2532 72.638 11.9408 72.8256C11.549 73.0935 11.3055 73.5198 11.1012 73.9374C10.8328 74.4824 10.6926 75.0775 10.5677 75.6684C10.5213 75.7861 10.3802 75.7564 10.3008 75.6913C10.3017 74.5733 10.3013 73.4557 10.3017 72.3381Z" fill="#062F62"/>
<path d="M4.12481 72.5877C4.11333 72.5026 4.10998 72.3715 4.23006 72.3796C5.57157 72.3777 6.91355 72.3772 8.25553 72.3791C8.37609 72.3696 8.36844 72.5021 8.3603 72.5863C7.98952 72.6734 7.58621 72.6404 7.23601 72.8102C7.09056 72.8796 6.99488 73.0375 7.00828 73.2001C7.00875 75.3698 7.00732 77.539 7.00875 79.7086C6.99536 79.8976 7.13889 80.0583 7.31016 80.1181C7.62449 80.2296 7.96321 80.2435 8.29189 80.2856C8.37035 80.309 8.38183 80.3971 8.356 80.466C8.29667 80.5415 8.19381 80.5224 8.10961 80.5286C6.83317 80.5248 5.55674 80.5296 4.2803 80.5258C4.16404 80.5435 4.08415 80.4411 4.12338 80.3325C4.20279 80.2488 4.32862 80.2794 4.431 80.2593C4.69127 80.2234 4.96062 80.2057 5.20605 80.1047C5.36584 80.0421 5.48354 79.8823 5.47636 79.7081C5.47827 77.5375 5.47684 75.3669 5.47684 73.1968C5.48928 73.0088 5.35819 72.8408 5.18644 72.7791C4.84675 72.649 4.4755 72.6638 4.12481 72.5877Z" fill="#062F62"/>
<path d="M30.557 72.3946C31.9722 72.374 33.3893 72.3908 34.805 72.386C34.937 72.3501 35.0121 72.5558 34.8911 72.6133C34.4892 72.6745 34.0634 72.6463 33.6773 72.7936C33.4726 72.8654 33.363 73.0831 33.3783 73.2921C33.3793 75.4154 33.375 77.5391 33.3797 79.6624C33.3635 79.8872 33.5233 80.0934 33.7381 80.1508C34.117 80.2585 34.5184 80.3035 34.9097 80.2413C35.4528 80.1743 36.0403 80.069 36.4507 79.6758C37.0392 79.1107 37.2626 78.2874 37.3885 77.5071C37.4114 77.4013 37.4028 77.2358 37.532 77.1999C37.6645 77.2353 37.6765 77.3898 37.676 77.5037C37.676 78.4457 37.6755 79.3878 37.6765 80.3302C37.6942 80.4183 37.6301 80.5221 37.5349 80.523C35.3499 80.5307 33.1644 80.5408 30.979 80.5369C30.8374 80.5288 30.6905 80.557 30.5532 80.5183C30.4489 80.4704 30.4881 80.2996 30.5967 80.2963C30.9264 80.2465 31.2723 80.2484 31.5852 80.1207C31.7694 80.0485 31.8827 79.8547 31.8698 79.6595C31.8698 77.5219 31.8689 75.3843 31.8698 73.2467C31.8823 73.0386 31.7397 72.8448 31.5445 72.7798C31.2402 72.6783 30.9159 72.6635 30.6001 72.6238C30.4791 72.6185 30.4575 72.4487 30.557 72.3946Z" fill="#062F62"/>
<path d="M45.4523 74.9001C45.7542 74.6886 46.1096 74.5379 46.4823 74.5269C46.922 74.5068 47.3885 74.5757 47.7511 74.8426C48.0468 75.0594 48.2515 75.3837 48.3659 75.7287C48.3932 75.8143 48.4377 75.8928 48.4884 75.9679C48.6305 75.8296 48.6783 75.6287 48.8075 75.4813C49.0711 75.1646 49.3854 74.8824 49.7595 74.7029C50.2083 74.4733 50.7398 74.49 51.2206 74.5943C51.8814 74.736 52.4464 75.3359 52.4631 76.0244C52.4846 76.4057 52.4579 76.7874 52.4588 77.1692C52.4148 77.9983 52.4335 78.8298 52.3904 79.6589C52.3765 79.8407 52.4311 80.0479 52.6105 80.1321C52.8803 80.256 53.1851 80.2713 53.4745 80.3244C53.4893 80.3905 53.4874 80.4584 53.4731 80.5259C52.8162 80.5507 52.1584 80.5297 51.5015 80.5369C50.9398 80.5297 50.3777 80.5503 49.817 80.5259C49.8002 80.4579 49.7997 80.39 49.8174 80.3244C50.1021 80.2766 50.3954 80.256 50.6671 80.1527C50.8269 80.0895 50.9331 79.9249 50.9231 79.7532C50.9355 78.6055 50.9226 77.4577 50.9293 76.3105C50.959 75.9933 50.9513 75.6584 50.8149 75.3651C50.7083 75.134 50.4671 74.9733 50.2117 74.9756C49.8361 74.9594 49.4873 75.1637 49.2428 75.4354C48.8381 75.8885 48.596 76.4693 48.5032 77.0659C48.4128 77.4611 48.4453 77.8672 48.44 78.2691C48.4415 78.7652 48.4367 79.2619 48.4415 79.7585C48.4329 79.9307 48.5448 80.091 48.7037 80.1546C48.9548 80.2555 49.2299 80.2646 49.4911 80.3259C49.5667 80.3675 49.5653 80.4809 49.4878 80.5215C49.3955 80.5436 49.3003 80.5345 49.207 80.5369C48.1372 80.5335 47.0674 80.5392 45.9977 80.5354C45.8848 80.5656 45.7829 80.4259 45.8685 80.3378C46.1771 80.2402 46.5345 80.2785 46.8144 80.0948C47.0163 79.9527 46.9737 79.68 46.9761 79.4666C46.978 78.3184 46.9694 77.1702 46.9818 76.0224C46.9588 75.7043 46.91 75.345 46.6613 75.1187C46.4694 74.9431 46.1828 74.9512 45.9489 75.0216C45.602 75.1201 45.3279 75.3785 45.1241 75.666C44.8734 76.0306 44.6897 76.4439 44.617 76.8822C44.4294 77.7309 44.5189 78.6035 44.4978 79.4647C44.4973 79.6867 44.4634 79.9771 44.6863 80.1111C44.9547 80.2584 45.2724 80.2618 45.5666 80.323C45.5786 80.3445 45.6016 80.3885 45.613 80.4101C45.6025 80.4388 45.581 80.4962 45.5705 80.5249C45.0758 80.5517 44.5796 80.5297 44.0845 80.5369C43.3501 80.5335 42.6152 80.544 41.8813 80.5321C41.7574 80.5287 41.7608 80.3842 41.8254 80.3139C42.1311 80.2871 42.4435 80.2642 42.7372 80.1685C42.9138 80.1149 43.0482 79.9441 43.0324 79.7561C43.0338 78.3337 43.0353 76.9109 43.0324 75.4885C43.0382 75.3 42.8894 75.1421 42.7157 75.0924C42.4636 75.0168 42.1995 74.9924 41.9392 74.9599C41.7761 74.9359 41.8411 74.6867 41.9775 74.6838C42.6966 74.657 43.4152 74.6173 44.1337 74.5786C44.2978 74.5604 44.4921 74.6518 44.5069 74.8345C44.5423 75.1632 44.4682 75.4938 44.5031 75.8239C44.5605 75.943 44.6509 75.8258 44.6806 75.7531C44.8447 75.3986 45.1423 75.1278 45.4523 74.9001Z" fill="#062F62"/>
<path d="M63.8084 74.549C64.5969 74.4399 65.4575 74.6542 66.0403 75.2135C66.5814 75.7383 66.777 76.5287 66.7402 77.2626C66.7445 77.3516 66.6641 77.4286 66.5747 77.41C65.3786 77.4042 64.183 77.4171 62.9874 77.4195C62.8673 77.42 62.8286 77.553 62.8267 77.6516C62.7851 78.2697 62.8123 78.9156 63.064 79.4906C63.2324 79.8801 63.5725 80.2016 63.9912 80.2982C64.637 80.4436 65.3733 80.2709 65.835 79.781C66.1273 79.4748 66.311 79.0754 66.3881 78.6615C66.4005 78.573 66.4699 78.4725 66.5727 78.4965C66.7364 78.5199 66.6866 78.7232 66.6804 78.8404C66.5503 79.5337 66.0493 80.1398 65.3982 80.4092C64.5935 80.7455 63.6295 80.734 62.8602 80.3078C61.999 79.8485 61.4038 78.9452 61.2952 77.9783C61.079 76.422 62.2535 74.8045 63.8084 74.549ZM63.9615 74.8049C63.7079 74.8595 63.4788 75.0145 63.3314 75.2274C63.0018 75.6943 62.9434 76.2809 62.8726 76.8315C62.8468 76.9698 62.909 77.1712 63.0817 77.1593C63.6878 77.1655 64.294 77.1612 64.9002 77.1607C65.0676 77.166 65.2805 77.1277 65.3389 76.9435C65.4159 76.6765 65.4111 76.3938 65.3949 76.1192C65.3748 75.7383 65.2963 75.325 65.014 75.0475C64.7385 74.7801 64.3227 74.7442 63.9615 74.8049Z" fill="#062F62"/>
<path d="M39.5943 74.6623C39.834 74.6604 40.0722 74.6102 40.3114 74.6293C40.4497 74.6494 40.5133 74.7896 40.4999 74.9178C40.5014 76.5469 40.4971 78.1764 40.5009 79.8054C40.4942 79.9695 40.6238 80.1049 40.7736 80.1527C41.0716 80.2494 41.3884 80.2661 41.695 80.324C41.7998 80.3633 41.7634 80.5441 41.6496 80.5326C40.4373 80.5398 39.2245 80.5369 38.0126 80.5336C37.893 80.5494 37.8901 80.413 37.9145 80.3341C38.1982 80.2542 38.4853 80.1848 38.7714 80.1126C38.9714 80.0609 39.1173 79.869 39.1029 79.6609C39.1058 78.2864 39.1039 76.9119 39.1025 75.5379C39.112 75.3527 38.9958 75.1771 38.8235 75.1116C38.5518 75.0126 38.2595 74.9982 37.9758 74.9571C37.8911 74.9331 37.9145 74.8375 37.9026 74.7733C38.0289 74.7241 38.1652 74.7241 38.2992 74.7222C38.7312 74.7131 39.1618 74.67 39.5943 74.6623Z" fill="#062F62"/>
<path d="M54.3263 74.7102C54.8358 74.6729 55.3472 74.6677 55.8563 74.6246C55.9893 74.6031 56.1735 74.6681 56.1692 74.8289C56.1749 76.4713 56.1692 78.1142 56.1725 79.7567C56.1639 79.9227 56.2634 80.081 56.4199 80.1408C56.7275 80.2523 57.059 80.2628 57.3781 80.325C57.4963 80.3848 57.4169 80.5662 57.293 80.5351C56.095 80.536 54.897 80.5389 53.6995 80.5341C53.5909 80.5523 53.5302 80.3982 53.6187 80.3399C53.9053 80.2236 54.2181 80.1925 54.509 80.0906C54.687 80.0294 54.7884 79.8442 54.7841 79.6629C54.7856 78.2874 54.7856 76.9124 54.7841 75.537C54.7932 75.3427 54.664 75.1624 54.4808 75.1021C54.2158 75.016 53.9354 74.992 53.6598 74.9609C53.5761 74.9332 53.5948 74.8356 53.5861 74.7696C53.8258 74.6978 54.0799 74.7327 54.3263 74.7102Z" fill="#062F62"/>
</svg>
