<svg width="200" height="40" viewBox="0 0 200 40" fill="none" xmlns="http://www.w3.org/2000/svg">
<g clip-path="url(#clip0_1326_6498)">
<mask id="mask0_1326_6498" style="mask-type:luminance" maskUnits="userSpaceOnUse" x="0" y="3" width="200" height="40">
<path d="M200 3H0V43H200V3Z" fill="white"/>
</mask>
<g mask="url(#mask0_1326_6498)">
<path fill-rule="evenodd" clip-rule="evenodd" d="M29.819 24.3101V36.8881H18.591L26.463 24.3651L29.819 24.3101Z" fill="white"/>
<path fill-rule="evenodd" clip-rule="evenodd" d="M17.43 7H29.819V19.05L12.031 19.017L9.161 24.254L20.393 24.219L12.625 36.887H-0.0650024V30.887H14.77L18.2 25.333H7.188L17.43 7Z" fill="white"/>
<path fill-rule="evenodd" clip-rule="evenodd" d="M-0.0650024 7H11.685L-0.0650024 26.65V7Z" fill="white"/>
<path d="M193.782 10.4448L193.704 15.0838H180.204C179.72 15.0619 179.242 15.1961 178.841 15.4668C178.686 15.5618 178.558 15.6939 178.467 15.851C178.376 16.0081 178.325 16.1854 178.32 16.3668L178.103 30.1128H172.723L172.937 13.3068C172.964 11.3988 174.112 10.4448 176.382 10.4448H193.782Z" fill="white"/>
<path d="M148.668 15.6519L148.447 30.1129H143.141L143.241 16.6129C143.251 16.4453 143.227 16.2774 143.172 16.1189C143.115 15.8302 142.961 15.5697 142.736 15.3811C142.51 15.1925 142.226 15.0872 141.932 15.0829H134.8C134.6 15.0567 134.396 15.077 134.205 15.1423C134.014 15.2077 133.84 15.3162 133.698 15.4595C133.556 15.6028 133.449 15.777 133.384 15.9685C133.32 16.1601 133.301 16.3638 133.329 16.5639L133.242 30.1119H127.862L128.042 10.4439H144.51C145.343 10.3603 146.179 10.5679 146.877 11.0314C147.574 11.4948 148.089 12.1854 148.335 12.9859C148.596 13.849 148.71 14.7499 148.672 15.6509" fill="white"/>
<path d="M125.869 10.4209L125.599 30.1139H120.219L120.489 10.4209H125.869Z" fill="white"/>
<path d="M102.807 30.1382H97.501L97.601 16.6382C97.6094 16.4621 97.5833 16.2861 97.524 16.1201C97.4659 15.8358 97.3118 15.5801 97.0874 15.396C96.8631 15.2119 96.5822 15.1106 96.292 15.1092H89.16C88.2053 15.1092 87.7204 15.6192 87.705 16.6392L87.605 30.1392H82.227L82.407 10.4722H114.093C114.918 10.3891 115.747 10.5944 116.438 11.0533C117.129 11.5121 117.64 12.1962 117.884 12.9892C118.145 13.8522 118.26 14.7532 118.222 15.6542L118.009 30.1392H112.703L112.803 16.6392C112.811 16.4631 112.785 16.2871 112.726 16.1212C112.668 15.8368 112.514 15.5811 112.289 15.397C112.065 15.2129 111.784 15.1116 111.494 15.1102H104.362C103.408 15.1102 102.923 15.6202 102.907 16.6402L102.807 30.1382Z" fill="white"/>
<path d="M74.54 22.1909H66.051C65.2777 22.1909 64.885 22.5366 64.873 23.2279L64.837 24.0659C64.8408 24.2675 64.8745 24.4673 64.937 24.6589C65 24.9028 65.1457 25.1173 65.3492 25.2658C65.5528 25.4142 65.8015 25.4874 66.053 25.4729H74.493L74.54 22.1909ZM80.002 14.3679L79.802 30.1129H63.239C59.512 30.2949 59.469 29.2499 59.469 26.3669L59.521 19.7479C59.5277 18.2673 60.321 17.5269 61.901 17.5269H74.585L74.561 16.3669C74.5612 16.2245 74.5382 16.083 74.493 15.9479C74.3938 15.6654 74.2006 15.4255 73.9458 15.2683C73.691 15.111 73.39 15.046 73.093 15.0839H59.541L59.594 10.4449H76.276C77.0718 10.4089 77.8554 10.6498 78.4936 11.1266C79.1317 11.6034 79.5849 12.2866 79.776 13.0599C79.9256 13.4797 80.0007 13.9223 79.998 14.3679" fill="white"/>
<path d="M57.462 25.4728L57.409 30.1128H38.926L38.958 10.4448H44.288L44.235 25.4728H57.462Z" fill="white"/>
<path fill-rule="evenodd" clip-rule="evenodd" d="M196.979 10.4448H194.365L194.287 15.0838H196.9L196.979 10.4448Z" fill="white"/>
<path fill-rule="evenodd" clip-rule="evenodd" d="M198.676 10.4448H197.369L197.291 15.0838H198.598L198.676 10.4448Z" fill="white"/>
<path fill-rule="evenodd" clip-rule="evenodd" d="M199.949 10.4448H199.066L198.988 15.0838H199.871L199.949 10.4448Z" fill="white"/>
<path d="M165.547 22.1909H157.054C156.281 22.1909 155.888 22.5366 155.876 23.2279L155.84 24.0659C155.844 24.2675 155.877 24.4673 155.94 24.6589C156.003 24.9028 156.149 25.1173 156.352 25.2658C156.556 25.4142 156.805 25.4874 157.056 25.4729H165.496L165.547 22.1909ZM171.009 14.3679L170.809 30.1129H154.246C150.519 30.2949 150.476 29.2499 150.476 26.3669L150.528 19.7479C150.535 18.2673 151.328 17.5269 152.908 17.5269H165.592L165.568 16.3669C165.568 16.2245 165.545 16.083 165.5 15.9479C165.401 15.6654 165.208 15.4255 164.953 15.2683C164.698 15.111 164.397 15.046 164.1 15.0839H150.548L150.601 10.4449H167.283C168.079 10.4089 168.862 10.6498 169.501 11.1266C170.139 11.6034 170.592 12.2866 170.783 13.0599C170.933 13.4797 171.008 13.9223 171.005 14.3679" fill="white"/>
<path d="M39.037 33.608H39.525C39.5715 33.6061 39.6172 33.6199 39.655 33.647C39.6885 33.6719 39.713 33.707 39.725 33.747L40.625 36.766C40.641 36.821 40.656 36.879 40.669 36.942C40.682 37.005 40.694 37.07 40.706 37.142C40.72 37.073 40.734 37.007 40.748 36.942C40.7607 36.8831 40.7767 36.825 40.796 36.768L41.818 33.749C41.8322 33.7095 41.8571 33.6749 41.89 33.649C41.9261 33.6198 41.9716 33.6045 42.018 33.606H42.188C42.2342 33.6036 42.2798 33.6174 42.317 33.645C42.3499 33.6706 42.3746 33.7054 42.388 33.745L43.403 36.764C43.444 36.882 43.4774 37.0026 43.503 37.125C43.515 37.0583 43.526 36.9946 43.536 36.934C43.5456 36.8765 43.559 36.8197 43.576 36.764L44.476 33.745C44.4875 33.705 44.5117 33.6699 44.545 33.645C44.5815 33.6166 44.6268 33.6017 44.673 33.603H45.131L43.776 37.946H43.249L42.149 34.633C42.1242 34.5616 42.1038 34.4888 42.088 34.415L42.06 34.531C42.051 34.568 42.041 34.603 42.03 34.631L40.924 37.944H40.397L39.037 33.608ZM49.391 33.608V34.087H47.305V35.53H48.993V35.991H47.305V37.473H49.39V37.952H46.714V33.609L49.391 33.608ZM53.068 35.508H53.289C53.3516 35.5103 53.4141 35.5005 53.473 35.479C53.5228 35.4559 53.5666 35.4217 53.601 35.379L55.047 33.742C55.083 33.6983 55.1267 33.6617 55.176 33.634C55.2258 33.6111 55.2803 33.6005 55.335 33.603H55.835L54.18 35.473C54.1427 35.5146 54.103 35.554 54.061 35.591C54.0247 35.6225 53.9843 35.649 53.941 35.67C53.9957 35.687 54.0464 35.7149 54.09 35.752C54.1377 35.7938 54.1822 35.8393 54.223 35.888L55.95 37.946H55.441C55.4074 37.9468 55.3739 37.9438 55.341 37.937C55.3174 37.932 55.2945 37.924 55.273 37.913C55.253 37.9029 55.2348 37.8898 55.219 37.874C55.203 37.858 55.187 37.841 55.17 37.823L53.67 36.099C53.648 36.075 53.628 36.054 53.608 36.036C53.5879 36.0181 53.5654 36.0033 53.541 35.992C53.5131 35.979 53.4835 35.9702 53.453 35.966C53.4122 35.9605 53.3711 35.9582 53.33 35.959H53.065V37.947H52.48V33.604H53.065L53.068 35.508ZM60.242 33.608V34.087H58.157V35.53H59.845V35.991H58.157V37.473H60.242V37.952H57.565V33.609L60.242 33.608ZM64.779 33.608V34.087H62.694V35.53H64.382V35.991H62.694V37.473H64.779V37.952H62.103V33.609L64.779 33.608ZM67.286 36.326V37.951H66.701V33.608H67.983C68.2254 33.6034 68.4671 33.6355 68.7 33.703C68.8838 33.7578 69.0541 33.8504 69.2 33.975C69.3324 34.0903 69.4353 34.2357 69.5 34.399C69.5681 34.576 69.6021 34.7643 69.6 34.954C69.6024 35.1442 69.5664 35.333 69.494 35.509C69.4246 35.6748 69.3186 35.8228 69.184 35.942C69.0356 36.0697 68.8627 36.166 68.676 36.225C68.4516 36.2954 68.2172 36.3292 67.982 36.325L67.286 36.326ZM67.286 35.859H67.986C68.137 35.8615 68.2874 35.8389 68.431 35.792C68.5501 35.7525 68.6597 35.6888 68.753 35.605C68.8405 35.5261 68.9089 35.4283 68.953 35.319C68.9987 35.202 69.0214 35.0774 69.02 34.952C69.0268 34.8319 69.0075 34.7119 68.9635 34.6C68.9195 34.4882 68.8518 34.3872 68.765 34.304C68.5449 34.132 68.2685 34.0485 67.99 34.07H67.29L67.286 35.859ZM72.53 37.95V33.607H73.915C74.1475 33.6029 74.3795 33.6294 74.605 33.686C74.7769 33.7284 74.9387 33.8046 75.081 33.91C75.2022 34.0028 75.2973 34.1254 75.357 34.266C75.4186 34.4166 75.4489 34.5782 75.446 34.741C75.4467 34.8459 75.4301 34.9503 75.397 35.05C75.3629 35.1501 75.3114 35.2435 75.245 35.326C75.1727 35.4148 75.0866 35.4914 74.99 35.553C74.8782 35.6241 74.757 35.6793 74.63 35.717C74.8984 35.7557 75.1488 35.8749 75.348 36.059C75.4299 36.1465 75.4936 36.2495 75.5351 36.362C75.5767 36.4745 75.5953 36.5942 75.59 36.714C75.5923 36.8858 75.5582 37.0562 75.49 37.214C75.4215 37.3657 75.3188 37.4995 75.19 37.605C75.0485 37.7199 74.8857 37.8059 74.711 37.858C74.5008 37.9207 74.2823 37.951 74.063 37.948L72.53 37.95ZM73.118 35.971V37.483H74.057C74.2031 37.4857 74.3488 37.4662 74.489 37.425C74.5996 37.3928 74.7019 37.3372 74.789 37.262C74.8652 37.1944 74.9239 37.1092 74.96 37.014C74.997 36.9128 75.0154 36.8057 75.014 36.698C75.0184 36.597 74.9993 36.4963 74.9582 36.404C74.9171 36.3117 74.855 36.2302 74.777 36.166C74.5663 36.0206 74.3122 35.9518 74.057 35.971H73.118ZM73.118 35.553H73.894C74.0392 35.5557 74.184 35.5375 74.324 35.499C74.4329 35.4681 74.5347 35.4165 74.624 35.347C74.702 35.2845 74.7629 35.2033 74.801 35.111C74.8402 35.0158 74.86 34.9138 74.859 34.811C74.8678 34.7059 74.8515 34.6003 74.8116 34.5028C74.7716 34.4052 74.709 34.3186 74.629 34.25C74.4163 34.1145 74.1654 34.0517 73.914 34.071H73.114L73.118 35.553ZM79.156 37.484C79.3212 37.4868 79.4852 37.4558 79.638 37.393C79.7753 37.3355 79.8983 37.2485 79.998 37.138C80.0985 37.0242 80.1748 36.8912 80.222 36.747C80.275 36.5857 80.301 36.4167 80.299 36.247V33.607H80.884V36.247C80.8867 36.4855 80.8464 36.7227 80.765 36.947C80.6897 37.1537 80.573 37.3429 80.422 37.503C80.2685 37.6632 80.0828 37.7889 79.877 37.872C79.6479 37.9636 79.4028 38.0088 79.156 38.005C78.9092 38.0088 78.6642 37.9636 78.435 37.872C78.2294 37.7886 78.0438 37.6628 77.89 37.503C77.7388 37.3431 77.622 37.1538 77.547 36.947C77.4651 36.7228 77.4245 36.4856 77.427 36.247V33.607H78.012V36.24C78.0104 36.4098 78.0367 36.5787 78.09 36.74C78.1373 36.8842 78.2135 37.0172 78.314 37.131C78.4142 37.2413 78.5375 37.3284 78.675 37.386C78.8265 37.4513 78.99 37.4846 79.155 37.484H79.156ZM85.133 34.284C85.1181 34.3101 85.0985 34.3332 85.075 34.352C85.052 34.3682 85.0242 34.3763 84.996 34.375C84.9518 34.3708 84.9101 34.3525 84.877 34.323C84.8214 34.2819 84.7637 34.2438 84.704 34.209C84.6239 34.1631 84.5395 34.1252 84.452 34.096C84.3367 34.0591 84.216 34.0418 84.095 34.045C83.9769 34.0426 83.8593 34.0602 83.747 34.097C83.6539 34.128 83.5679 34.1773 83.494 34.242C83.4275 34.3007 83.375 34.3734 83.34 34.455C83.3051 34.5393 83.2874 34.6297 83.288 34.721C83.2842 34.8281 83.3158 34.9336 83.378 35.021C83.4418 35.1047 83.5221 35.1745 83.614 35.226C83.7202 35.286 83.832 35.3352 83.948 35.373L84.33 35.502C84.4634 35.5466 84.5907 35.5966 84.712 35.652C84.8327 35.7056 84.9449 35.7767 85.045 35.863C85.1442 35.9497 85.2245 36.0559 85.281 36.175C85.3444 36.3177 85.3749 36.4729 85.37 36.629C85.3704 36.812 85.3365 36.9934 85.27 37.164C85.2076 37.3274 85.1111 37.4757 84.987 37.599C84.856 37.7265 84.7001 37.8256 84.529 37.89C84.3317 37.9635 84.1225 37.9994 83.912 37.996C83.648 37.9991 83.3864 37.9466 83.144 37.842C82.9205 37.7458 82.7187 37.6053 82.551 37.429L82.721 37.15C82.7371 37.1278 82.7571 37.1088 82.78 37.094C82.8029 37.0791 82.8297 37.0715 82.857 37.072C82.9117 37.0774 82.9629 37.1014 83.002 37.14C83.0676 37.1935 83.1361 37.2436 83.207 37.29C83.3013 37.3503 83.4019 37.4003 83.507 37.439C83.6431 37.4882 83.7873 37.5116 83.932 37.508C84.0587 37.51 84.1849 37.4904 84.305 37.45C84.4077 37.4153 84.5023 37.3602 84.583 37.288C84.6587 37.2184 84.718 37.133 84.757 37.038C84.7986 36.9351 84.8193 36.8249 84.818 36.714C84.823 36.5996 84.7919 36.4866 84.729 36.391C84.6666 36.3049 84.5865 36.2333 84.494 36.181C84.3898 36.122 84.2795 36.0748 84.165 36.04L83.783 35.919C83.6532 35.8777 83.5257 35.8297 83.401 35.775C83.2797 35.7224 83.1677 35.6509 83.069 35.563C82.9693 35.4716 82.8896 35.3606 82.835 35.237C82.7707 35.0843 82.74 34.9195 82.745 34.754C82.745 34.6008 82.7756 34.4491 82.835 34.308C82.8946 34.1644 82.9827 34.0345 83.094 33.926C83.2149 33.8099 83.3577 33.7192 83.514 33.659C83.6972 33.5893 83.892 33.5553 84.088 33.559C84.3145 33.556 84.5397 33.595 84.752 33.674C84.9476 33.7479 85.126 33.8612 85.276 34.007L85.133 34.284ZM87.833 37.948H87.245V33.605H87.833V37.948ZM90.316 33.605C90.3559 33.6024 90.3959 33.6089 90.433 33.624C90.4668 33.645 90.496 33.6725 90.519 33.705L93.035 36.978C93.029 36.925 93.025 36.878 93.023 36.824C93.021 36.77 93.023 36.724 93.023 36.681V33.605H93.538V37.948H93.238C93.198 37.9493 93.1582 37.9411 93.122 37.924C93.0855 37.9036 93.0538 37.8756 93.029 37.842L90.517 34.572C90.517 34.622 90.524 34.672 90.526 34.72C90.528 34.768 90.526 34.813 90.526 34.853V37.947H90.011V33.604L90.316 33.605ZM98.288 33.605V34.084H96.203V35.527H97.891V35.988H96.203V37.47H98.288V37.949H95.612V33.606L98.288 33.605ZM102.374 34.284C102.359 34.3101 102.339 34.3332 102.316 34.352C102.293 34.3682 102.265 34.3763 102.237 34.375C102.193 34.3708 102.151 34.3525 102.118 34.323C102.062 34.2819 102.005 34.2438 101.945 34.209C101.865 34.1631 101.781 34.1252 101.693 34.096C101.578 34.0591 101.457 34.0418 101.336 34.045C101.218 34.0426 101.1 34.0602 100.988 34.097C100.895 34.128 100.809 34.1773 100.735 34.242C100.668 34.3006 100.616 34.3733 100.581 34.455C100.546 34.5393 100.529 34.6298 100.53 34.721C100.526 34.8281 100.558 34.9336 100.62 35.021C100.684 35.1047 100.764 35.1745 100.856 35.226C100.962 35.286 101.074 35.3352 101.19 35.373L101.572 35.502C101.705 35.5466 101.833 35.5966 101.954 35.652C102.075 35.7056 102.187 35.7767 102.287 35.863C102.386 35.9497 102.467 36.0559 102.523 36.175C102.586 36.3177 102.617 36.4729 102.612 36.629C102.612 36.812 102.578 36.9934 102.512 37.164C102.45 37.3274 102.353 37.4757 102.229 37.599C102.098 37.7265 101.942 37.8256 101.771 37.89C101.574 37.9635 101.364 37.9994 101.154 37.996C100.89 37.9991 100.628 37.9466 100.386 37.842C100.162 37.7458 99.9607 37.6053 99.793 37.429L99.963 37.15C99.9791 37.1278 99.9991 37.1089 100.022 37.094C100.045 37.0791 100.072 37.0715 100.099 37.072C100.154 37.0774 100.205 37.1014 100.244 37.14C100.31 37.1935 100.378 37.2436 100.449 37.29C100.543 37.3503 100.644 37.4003 100.749 37.439C100.885 37.4882 101.029 37.5116 101.174 37.508C101.301 37.51 101.427 37.4904 101.547 37.45C101.65 37.4153 101.744 37.3602 101.825 37.288C101.901 37.2184 101.96 37.133 101.999 37.038C102.041 36.9351 102.061 36.8249 102.06 36.714C102.065 36.5996 102.034 36.4866 101.971 36.391C101.909 36.3049 101.828 36.2333 101.736 36.181C101.631 36.1205 101.52 36.0719 101.405 36.036L101.023 35.915C100.893 35.8737 100.766 35.8256 100.641 35.771C100.52 35.7184 100.408 35.6468 100.309 35.559C100.209 35.4677 100.13 35.3567 100.075 35.233C100.011 35.0803 99.98 34.9155 99.985 34.75C99.985 34.5968 100.016 34.4451 100.075 34.304C100.135 34.1604 100.223 34.0305 100.334 33.922C100.455 33.8059 100.598 33.7152 100.754 33.655C100.937 33.5853 101.132 33.5513 101.328 33.555C101.555 33.552 101.78 33.591 101.992 33.67C102.188 33.7439 102.366 33.8572 102.516 34.003L102.374 34.284ZM106.603 34.284C106.588 34.3101 106.568 34.3332 106.545 34.352C106.522 34.3681 106.494 34.3762 106.466 34.375C106.422 34.3708 106.38 34.3525 106.347 34.323C106.291 34.2819 106.234 34.2438 106.174 34.209C106.094 34.1631 106.01 34.1252 105.922 34.096C105.807 34.0591 105.686 34.0418 105.565 34.045C105.447 34.0426 105.329 34.0602 105.217 34.097C105.124 34.128 105.038 34.1773 104.964 34.242C104.897 34.3006 104.845 34.3733 104.81 34.455C104.775 34.5393 104.757 34.6297 104.758 34.721C104.754 34.8281 104.786 34.9336 104.848 35.021C104.912 35.1047 104.992 35.1745 105.084 35.226C105.19 35.286 105.302 35.3352 105.418 35.373L105.8 35.502C105.933 35.5466 106.061 35.5966 106.182 35.652C106.303 35.7056 106.415 35.7767 106.515 35.863C106.614 35.9497 106.695 36.0559 106.751 36.175C106.814 36.3177 106.845 36.4728 106.84 36.629C106.84 36.812 106.806 36.9934 106.74 37.164C106.678 37.3274 106.581 37.4756 106.457 37.599C106.326 37.7265 106.17 37.8256 105.999 37.89C105.802 37.9635 105.592 37.9994 105.382 37.996C105.118 37.9991 104.856 37.9466 104.614 37.842C104.39 37.7458 104.189 37.6053 104.021 37.429L104.191 37.15C104.207 37.1278 104.227 37.1089 104.25 37.094C104.273 37.0791 104.3 37.0715 104.327 37.072C104.382 37.0774 104.433 37.1014 104.472 37.14C104.538 37.1935 104.606 37.2436 104.677 37.29C104.771 37.3503 104.872 37.4002 104.977 37.439C105.113 37.4882 105.257 37.5116 105.402 37.508C105.529 37.51 105.655 37.4904 105.775 37.45C105.878 37.4153 105.972 37.3602 106.053 37.288C106.129 37.2184 106.188 37.133 106.227 37.038C106.269 36.9351 106.289 36.8249 106.288 36.714C106.293 36.5996 106.262 36.4866 106.199 36.391C106.137 36.3049 106.056 36.2333 105.964 36.181C105.859 36.1205 105.748 36.0719 105.633 36.036L105.251 35.915C105.121 35.8737 104.994 35.8257 104.869 35.771C104.748 35.7184 104.636 35.6469 104.537 35.559C104.437 35.4676 104.358 35.3566 104.303 35.233C104.239 35.0803 104.208 34.9155 104.213 34.75C104.213 34.5968 104.244 34.4451 104.303 34.304C104.363 34.1604 104.451 34.0305 104.562 33.922C104.683 33.8059 104.826 33.7151 104.982 33.655C105.165 33.5853 105.36 33.5513 105.556 33.555C105.783 33.552 106.008 33.591 106.22 33.67C106.416 33.7439 106.594 33.8572 106.744 34.003L106.603 34.284ZM111.283 33.605V34.084H109.198V35.527H110.886V35.988H109.198V37.47H111.283V37.949H108.607V33.606L111.283 33.605ZM115.369 34.284C115.354 34.3101 115.334 34.3331 115.311 34.352C115.288 34.3681 115.26 34.3762 115.232 34.375C115.188 34.3708 115.146 34.3525 115.113 34.323C115.057 34.2819 115 34.2438 114.94 34.209C114.86 34.1631 114.776 34.1252 114.688 34.096C114.573 34.0591 114.452 34.0418 114.331 34.045C114.213 34.0426 114.095 34.0602 113.983 34.097C113.89 34.128 113.804 34.1773 113.73 34.242C113.664 34.3007 113.611 34.3734 113.576 34.455C113.541 34.5393 113.523 34.6297 113.524 34.721C113.52 34.8281 113.552 34.9336 113.614 35.021C113.678 35.1047 113.758 35.1745 113.85 35.226C113.956 35.286 114.068 35.3352 114.184 35.373L114.566 35.502C114.699 35.5466 114.827 35.5966 114.948 35.652C115.069 35.7056 115.181 35.7767 115.281 35.863C115.38 35.9497 115.461 36.0559 115.517 36.175C115.58 36.3177 115.611 36.4728 115.606 36.629C115.606 36.812 115.572 36.9934 115.506 37.164C115.444 37.3274 115.347 37.4756 115.223 37.599C115.092 37.7265 114.936 37.8256 114.765 37.89C114.568 37.9635 114.358 37.9994 114.148 37.996C113.884 37.9991 113.622 37.9466 113.38 37.842C113.156 37.7458 112.955 37.6053 112.787 37.429L112.957 37.15C112.973 37.1278 112.993 37.1088 113.016 37.094C113.039 37.0791 113.066 37.0715 113.093 37.072C113.148 37.0774 113.199 37.1014 113.238 37.14C113.304 37.1935 113.372 37.2436 113.443 37.29C113.537 37.3503 113.638 37.4003 113.743 37.439C113.879 37.4882 114.023 37.5116 114.168 37.508C114.295 37.51 114.421 37.4904 114.541 37.45C114.644 37.4153 114.738 37.3602 114.819 37.288C114.895 37.2184 114.954 37.133 114.993 37.038C115.035 36.9351 115.055 36.8249 115.054 36.714C115.059 36.5996 115.028 36.4866 114.965 36.391C114.903 36.3049 114.822 36.2333 114.73 36.181C114.625 36.1205 114.514 36.0718 114.398 36.036L114.016 35.915C113.886 35.8737 113.759 35.8257 113.634 35.771C113.513 35.7184 113.401 35.6469 113.302 35.559C113.202 35.47 113.121 35.3614 113.065 35.24C113.001 35.0873 112.97 34.9225 112.975 34.757C112.975 34.6038 113.006 34.4522 113.065 34.311C113.125 34.1674 113.213 34.0375 113.324 33.929C113.445 33.8129 113.588 33.7222 113.744 33.662C113.927 33.5923 114.122 33.5583 114.318 33.562C114.545 33.559 114.77 33.598 114.982 33.677C115.178 33.7509 115.356 33.8642 115.506 34.01L115.369 34.284ZM120.679 36.378C120.708 36.4267 120.733 36.4775 120.754 36.53C120.775 36.584 120.795 36.638 120.815 36.693C120.835 36.637 120.857 36.582 120.879 36.53C120.901 36.478 120.926 36.43 120.955 36.374L122.425 33.704C122.442 33.667 122.471 33.637 122.507 33.619C122.546 33.6075 122.587 33.6024 122.628 33.604H123.065V37.947H122.55V34.76C122.55 34.718 122.55 34.672 122.55 34.623C122.55 34.574 122.55 34.523 122.559 34.475L121.065 37.19C121.046 37.2306 121.017 37.265 120.979 37.2891C120.941 37.3132 120.898 37.326 120.853 37.326H120.768C120.723 37.3259 120.68 37.313 120.642 37.2889C120.605 37.2648 120.575 37.2305 120.556 37.19L119.035 34.466C119.041 34.518 119.046 34.566 119.049 34.621C119.052 34.676 119.049 34.721 119.049 34.761V37.952H118.534V33.609H118.967C119.008 33.6075 119.049 33.6125 119.088 33.624C119.124 33.6419 119.153 33.672 119.17 33.709L120.679 36.378ZM129.169 35.778C129.173 36.0849 129.12 36.39 129.014 36.678C128.917 36.9385 128.769 37.1767 128.577 37.378C128.386 37.576 128.155 37.7314 127.9 37.834C127.622 37.9447 127.324 37.9997 127.025 37.996C126.726 37.9998 126.43 37.9447 126.152 37.834C125.897 37.7312 125.667 37.5758 125.476 37.378C125.284 37.1767 125.136 36.9386 125.039 36.678C124.933 36.39 124.88 36.0849 124.884 35.778C124.88 35.471 124.933 35.1659 125.039 34.878C125.136 34.6175 125.285 34.3794 125.476 34.178C125.667 33.9791 125.897 33.8227 126.152 33.719C126.429 33.6069 126.726 33.5512 127.025 33.555C127.325 33.5513 127.622 33.607 127.9 33.719C128.156 33.8224 128.386 33.9789 128.577 34.178C128.768 34.3795 128.917 34.6176 129.014 34.878C129.119 35.1671 129.17 35.4732 129.165 35.781L129.169 35.778ZM128.569 35.778C128.573 35.5342 128.536 35.2916 128.46 35.06C128.395 34.8614 128.29 34.6783 128.151 34.522C128.016 34.375 127.851 34.2599 127.666 34.185C127.464 34.104 127.248 34.0639 127.03 34.067C126.813 34.064 126.598 34.1042 126.397 34.185C126.212 34.26 126.046 34.3751 125.911 34.522C125.771 34.6778 125.665 34.861 125.6 35.06C125.524 35.2916 125.487 35.5342 125.491 35.778C125.487 36.021 125.524 36.263 125.6 36.494C125.665 36.6922 125.771 36.8748 125.911 37.03C126.046 37.1772 126.212 37.2924 126.397 37.367C126.598 37.447 126.813 37.4868 127.03 37.484C127.248 37.4869 127.464 37.4472 127.666 37.367C127.851 37.2925 128.017 37.1773 128.151 37.03C128.29 36.8743 128.395 36.6918 128.46 36.494C128.534 36.2637 128.57 36.0228 128.565 35.781L128.569 35.778ZM130.488 33.605H130.958C131.004 33.6031 131.048 33.6169 131.085 33.644C131.118 33.6704 131.143 33.7048 131.158 33.744L132.385 36.808C132.415 36.8811 132.441 36.9559 132.463 37.032C132.486 37.113 132.509 37.197 132.531 37.284C132.549 37.197 132.569 37.113 132.591 37.032C132.611 36.9557 132.635 36.8808 132.665 36.808L133.886 33.744C133.902 33.7051 133.927 33.6708 133.959 33.644C133.995 33.6147 134.04 33.5994 134.086 33.601H134.559L132.789 37.944H132.259L130.488 33.605ZM136.826 37.948H136.238V33.605H136.826V37.948ZM139.309 33.605C139.349 33.6024 139.389 33.6089 139.426 33.624C139.46 33.645 139.489 33.6725 139.512 33.705L142.028 36.978C142.022 36.925 142.018 36.878 142.016 36.824C142.014 36.77 142.016 36.724 142.016 36.681V33.605H142.531V37.948H142.231C142.191 37.9493 142.151 37.9411 142.115 37.924C142.078 37.9036 142.047 37.8756 142.022 37.842L139.51 34.572C139.51 34.622 139.517 34.672 139.519 34.72C139.521 34.768 139.519 34.813 139.519 34.853V37.947H139.004V33.604L139.309 33.605ZM146.541 37.521C146.649 37.5214 146.757 37.5157 146.864 37.504C146.957 37.4941 147.05 37.4777 147.141 37.455C147.224 37.4336 147.306 37.4065 147.386 37.374C147.463 37.343 147.54 37.307 147.617 37.267V36.309H146.944C146.927 36.3098 146.911 36.3073 146.895 36.3017C146.879 36.296 146.864 36.2873 146.852 36.276C146.841 36.2654 146.832 36.2527 146.826 36.2386C146.82 36.2245 146.817 36.2093 146.817 36.194V35.861H148.15V37.528C148.043 37.6059 147.929 37.6748 147.81 37.734C147.688 37.7936 147.561 37.8425 147.431 37.88C147.29 37.9208 147.145 37.9502 146.999 37.968C146.833 37.9879 146.666 37.9976 146.499 37.997C146.202 38.0001 145.907 37.9447 145.632 37.834C145.377 37.7306 145.146 37.5757 144.953 37.379C144.759 37.178 144.609 36.9399 144.51 36.679C144.401 36.3916 144.347 36.0863 144.35 35.779C144.346 35.4699 144.4 35.1628 144.507 34.873C144.605 34.611 144.757 34.3725 144.953 34.173C145.152 33.9742 145.39 33.8198 145.653 33.72C145.947 33.6091 146.258 33.5545 146.572 33.559C146.732 33.5577 146.893 33.5701 147.051 33.596C147.191 33.6191 147.329 33.6556 147.462 33.705C147.584 33.7506 147.701 33.8086 147.811 33.878C147.918 33.9453 148.018 34.022 148.111 34.107L147.944 34.374C147.931 34.3983 147.912 34.4188 147.889 34.4332C147.865 34.4476 147.838 34.4555 147.811 34.456C147.773 34.4544 147.737 34.443 147.705 34.423C147.654 34.3943 147.598 34.361 147.535 34.323C147.463 34.2773 147.386 34.2382 147.307 34.206C147.204 34.1647 147.098 34.1329 146.989 34.111C146.846 34.0828 146.7 34.0698 146.554 34.072C146.327 34.0685 146.102 34.1089 145.89 34.191C145.698 34.2666 145.525 34.3837 145.384 34.534C145.241 34.6893 145.131 34.8729 145.063 35.073C144.986 35.3019 144.948 35.5423 144.951 35.784C144.947 36.0335 144.987 36.2819 145.068 36.518C145.139 36.7211 145.251 36.9074 145.397 37.065C145.537 37.214 145.708 37.331 145.897 37.408C146.102 37.4887 146.32 37.5287 146.54 37.526" fill="white"/>
</g>
</g>
<defs>
<clipPath id="clip0_1326_6498">
<rect width="200" height="40" fill="white"/>
</clipPath>
</defs>
</svg>
