<svg width="206" height="31" viewBox="0 0 206 31" fill="none" xmlns="http://www.w3.org/2000/svg">
<g clip-path="url(#clip0_1602_470)">
<path d="M46.611 17.8258H50.8724V30.9675H53.2178V17.8258H57.4792V15.744H48.7251L46.611 17.8258ZM24.8746 22.575V30.9675L56.1248 0L24.8746 22.575ZM70.0321 22.8353C70.5937 22.1196 70.891 21.2739 70.891 20.2329C70.891 18.9318 70.4615 17.8583 69.5696 17.0451C68.7107 16.2319 67.5215 15.809 66.101 15.809H60.1219V31H62.4673V24.5918H65.4073L68.6446 31H71.3865L67.8188 24.2665C68.7107 24.0063 69.4375 23.5184 70.0321 22.8353ZM62.4343 22.6076V17.8583H65.9028C66.6956 17.8583 67.3233 18.086 67.7858 18.5089C68.2813 18.9318 68.5125 19.5173 68.5125 20.2655C68.5125 21.0136 68.2813 21.5992 67.7858 22.022C67.2903 22.4449 66.6626 22.6401 65.8698 22.6401H62.4343V22.6076ZM0 30.9675L22.1988 8.97796L0 22.575V30.9675ZM93.8166 30.9675H103.694V28.8856H96.162V24.3316H102.571V22.2823H96.162V17.8583H103.694V15.7765H93.8166V30.9675ZM120.739 15.7765V17.8583H124.968V31H127.313V17.8583H131.541V15.7765H120.739ZM115.718 26.446L112.976 22.3473L108.583 15.7765H106.436V30.9675H108.781V20.2655L111.225 23.9087L115.916 30.9675H118.063V15.7765H115.718V26.446ZM89.6543 17.2078C88.6963 16.2644 87.3419 15.7765 85.6572 15.7765H80.2396V30.9675H85.6572C87.3419 30.9675 88.6632 30.4795 89.6543 29.5362C90.3149 28.8856 90.7444 28.0724 90.9426 27.1291C91.1408 26.1857 91.2399 24.8846 91.2399 23.2581C91.2399 21.6317 91.1408 20.3956 90.9756 19.5173C90.7444 18.639 90.3149 17.8583 89.6543 17.2078ZM88.7293 26.2508C88.6302 26.9339 88.399 27.4869 88.0356 27.8772C87.408 28.5603 86.516 28.8856 85.4259 28.8856H82.585V17.8258H85.4259C86.5491 17.8258 87.408 18.1836 88.0356 18.8342C88.399 19.2246 88.6302 19.745 88.7293 20.3956C88.8284 21.0136 88.8615 21.9895 88.8615 23.2581C88.8615 24.5593 88.8284 25.5352 88.7293 26.2508ZM74.2935 30.9675H76.6389V15.7765H74.2935V30.9675Z" fill="#067262"/>
<path d="M182.216 25.6979C182.216 26.7063 181.918 27.487 181.357 28.0725C180.795 28.658 180.002 28.9508 179.077 28.9508C178.152 28.9508 177.36 28.658 176.798 28.0725C176.236 27.487 175.939 26.7063 175.939 25.6979V15.7766H173.627V25.828C173.627 26.5762 173.759 27.2918 174.023 27.9098C174.287 28.5604 174.684 29.0809 175.179 29.5688C175.675 30.0242 176.269 30.382 176.93 30.6423C177.591 30.9025 178.318 31.0001 179.077 31.0001C179.837 31.0001 180.564 30.87 181.225 30.6423C181.885 30.4146 182.48 30.0568 182.975 29.5688C183.471 29.1134 183.834 28.5604 184.132 27.9098C184.396 27.2593 184.561 26.5762 184.561 25.828V15.7766H182.249V25.6979M138.512 24.6895H142.707V25.5352C142.707 26.5111 142.443 27.2918 141.947 27.8773C141.319 28.593 140.494 28.9182 139.47 28.9182C139.04 28.9182 138.611 28.8207 138.214 28.658C137.818 28.4954 137.487 28.2677 137.223 28.0074C137.025 27.8123 136.86 27.5846 136.761 27.3569C136.662 27.1292 136.563 26.8689 136.496 26.5111C136.43 26.1858 136.364 25.7629 136.364 25.275C136.331 24.7871 136.331 24.1365 136.331 23.3558C136.331 22.5751 136.331 21.9245 136.364 21.4366C136.397 20.9487 136.43 20.5258 136.496 20.2005C136.563 19.8752 136.662 19.5825 136.761 19.3548C136.893 19.1271 137.025 18.8994 137.223 18.7042C137.487 18.4114 137.818 18.1837 138.214 18.0211C138.611 17.8584 139.007 17.7934 139.47 17.7934C140.295 17.7934 140.989 18.0211 141.551 18.4765C142.112 18.9319 142.476 19.5825 142.674 20.3957H144.986C144.755 19.0295 144.16 17.9235 143.202 17.0452C142.244 16.1669 140.989 15.7441 139.47 15.7441C137.95 15.7441 136.563 16.2645 135.472 17.338C135.109 17.6958 134.845 18.0536 134.647 18.4439C134.448 18.8343 134.283 19.2572 134.217 19.7126C134.118 20.168 134.085 20.6559 134.052 21.1764C134.019 21.6968 134.019 22.4125 134.019 23.3558C134.019 24.2991 134.019 25.0148 134.052 25.5352C134.085 26.0557 134.118 26.5436 134.217 26.999C134.316 27.4544 134.448 27.8773 134.647 28.2677C134.845 28.658 135.142 29.0158 135.472 29.3736C136.563 30.4471 137.884 30.9676 139.47 30.9676C140.295 30.9676 141.055 30.8374 141.749 30.5447C142.443 30.2845 143.07 29.8291 143.632 29.2435C144.127 28.7231 144.491 28.1375 144.689 27.487C144.887 26.8364 144.986 26.0232 144.986 25.0473V22.7703H140.428L138.512 24.6895ZM12.4538 30.9676L39.2444 4.45654L12.4538 22.5751V30.9676ZM197.312 18.509C197.081 17.956 196.75 17.4681 196.321 17.0452C195.429 16.1995 194.24 15.7766 192.786 15.7766H187.038V30.9676H189.351V24.8521H192.819C194.273 24.8521 195.462 24.4293 196.354 23.551C196.784 23.1606 197.114 22.6727 197.345 22.1197C197.576 21.5667 197.675 20.9812 197.675 20.3306C197.642 19.6475 197.51 19.062 197.312 18.509ZM194.603 22.1197C194.108 22.5751 193.447 22.7703 192.654 22.7703H189.318V17.7934H192.654C193.447 17.7934 194.108 18.0211 194.603 18.4765C195.099 18.9319 195.33 19.5499 195.33 20.2981C195.33 21.0463 195.099 21.6643 194.603 22.1197ZM170.918 19.7126C170.819 19.2572 170.687 18.8343 170.488 18.4439C170.29 18.0536 170.026 17.6958 169.696 17.3705C168.606 16.297 167.284 15.7766 165.699 15.7766C164.113 15.7766 162.792 16.297 161.701 17.3705C161.338 17.7283 161.074 18.0861 160.876 18.4765C160.677 18.8668 160.545 19.2897 160.446 19.7451C160.347 20.2005 160.281 20.6884 160.281 21.2089C160.248 21.7294 160.248 22.445 160.248 23.3883C160.248 24.3317 160.248 25.0473 160.281 25.5678C160.314 26.0882 160.347 26.5762 160.446 27.0316C160.545 27.487 160.677 27.9098 160.876 28.3002C161.074 28.6905 161.371 29.0484 161.734 29.4062C162.825 30.4796 164.146 31.0001 165.732 31.0001C167.317 31.0001 168.672 30.4796 169.729 29.4062C170.059 29.0809 170.323 28.7231 170.521 28.3327C170.72 27.9749 170.852 27.552 170.951 27.0641C171.05 26.6087 171.083 26.1208 171.116 25.5678C171.149 25.0473 171.149 24.2991 171.149 23.3883C171.149 22.4775 171.149 21.7294 171.116 21.2089C171.083 20.6559 171.017 20.168 170.918 19.7126ZM168.804 25.275C168.771 25.7955 168.738 26.1858 168.672 26.5111C168.606 26.8364 168.506 27.1292 168.374 27.3569C168.242 27.5846 168.11 27.8123 167.912 28.0074C167.648 28.3002 167.317 28.4954 166.921 28.6905C166.524 28.8532 166.095 28.9508 165.665 28.9508C165.236 28.9508 164.807 28.8532 164.41 28.6905C164.014 28.5279 163.683 28.3002 163.419 28.0074C163.221 27.8123 163.056 27.5846 162.957 27.3569C162.858 27.1292 162.759 26.8364 162.692 26.5111C162.626 26.1858 162.593 25.7629 162.56 25.275C162.527 24.7871 162.527 24.1365 162.527 23.3558C162.527 22.5751 162.527 21.9571 162.56 21.4366C162.593 20.9161 162.626 20.5258 162.692 20.2005C162.759 19.8752 162.825 19.5825 162.957 19.3548C163.089 19.1271 163.221 18.8994 163.419 18.7042C163.683 18.4114 164.014 18.1837 164.41 18.0211C164.807 17.8584 165.236 17.7934 165.665 17.7934C166.095 17.7934 166.524 17.891 166.921 18.0211C167.317 18.1837 167.648 18.4114 167.912 18.7042C168.11 18.8994 168.275 19.1271 168.374 19.3548C168.473 19.5825 168.572 19.8427 168.639 20.2005C168.705 20.5258 168.738 20.9487 168.771 21.4366C168.804 21.9245 168.804 22.5751 168.804 23.3233C168.837 24.1365 168.804 24.7871 168.804 25.275ZM157.176 22.7052C157.737 22.0221 158.035 21.1438 158.035 20.1355C158.035 18.8343 157.605 17.7934 156.746 16.9802C155.887 16.1669 154.731 15.7766 153.311 15.7766H147.431V30.9676H149.743V24.4293H152.617L155.954 30.9676H158.629L154.996 24.104C155.887 23.8763 156.614 23.3883 157.176 22.7052ZM149.71 22.4775V17.7934H153.113C153.872 17.7934 154.5 18.0211 154.962 18.4114C155.425 18.8343 155.689 19.4198 155.689 20.1355C155.689 20.8511 155.458 21.4366 154.996 21.827C154.533 22.2498 153.905 22.445 153.113 22.445H149.71V22.4775Z" fill="#FCB717"/>
<path d="M197.841 12.7839H199.129V16.7199H199.823V12.7839H201.111V12.1658H197.841V12.7839ZM205.306 12.1333L203.985 14.9633L202.631 12.1333H201.937V16.6873H202.631V13.6296L203.721 15.8416H204.249L205.306 13.6296V16.6873H206V12.1333H205.306Z" fill="#231815"/>
</g>
<defs>
<clipPath id="clip0_1602_470">
<rect width="206" height="31" fill="white"/>
</clipPath>
</defs>
</svg>
