<svg width="24" height="24" viewBox="0 0 24 24" fill="none" xmlns="http://www.w3.org/2000/svg">
<mask id="path-1-outside-1_1326_7071" maskUnits="userSpaceOnUse" x="0" y="0" width="24" height="24" fill="black">
<rect fill="white" width="24" height="24"/>
<path d="M22.9948 4.01555L23 3.16837V2.88921L22.9976 2.89093C22.9917 2.50639 22.8085 2.32673 22.4217 2.32638C22.2709 2.32638 22.1201 2.32569 21.9696 2.325C21.4855 2.32327 20.9847 2.32154 20.4916 2.33087C20.3894 2.33294 20.3755 2.32223 20.3484 2.21789C20.2452 1.81987 20.0009 1.50304 19.6019 1.2491C19.1901 0.986512 18.7456 0.994804 18.3164 1.00275L18.233 1.00413C17.3767 1.01761 16.7411 1.68132 16.6212 2.31498C16.6205 2.31878 16.6198 2.32189 16.6191 2.32431C16.6024 2.32673 16.5719 2.32673 16.5503 2.32673C16.3898 2.32673 16.2292 2.32603 16.0683 2.32534C15.5091 2.32362 14.9319 2.32189 14.3623 2.32673L13.0817 2.32292L12.5587 2.31912L12.2692 2.32085C11.9481 2.32292 11.6162 2.325 11.2895 2.325C11.2853 2.325 11.2808 2.325 11.277 2.325C10.2546 2.325 9.26134 2.48911 8.32442 2.8132C7.00939 3.26788 5.84727 3.99137 4.87038 4.96327C4.19167 5.63873 3.62173 6.42096 3.17725 7.28852C2.81339 7.99819 2.54302 8.77177 2.37377 9.58716C2.29697 9.95685 2.24553 10.3476 2.22017 10.7494L2.20765 10.7519V11.0041C2.19966 11.2321 2.19966 11.4681 2.20765 11.7055V13.1075C2.20348 14.2729 2.20314 15.4842 2.20696 16.8096C2.20696 16.8626 2.18495 16.8971 2.14093 16.9132C1.55883 17.1254 1.18698 17.5258 1.065 18.071C0.990279 18.4051 0.997229 18.7627 1.00383 19.0785C1.01669 19.7257 1.52616 20.3773 2.16387 20.5614C2.19202 20.5694 2.20175 20.5763 2.20244 20.5763C2.20314 20.5784 2.20696 20.5898 2.20661 20.6219C2.20244 20.9062 2.20383 21.1947 2.20487 21.4736L2.20557 21.6083C2.20557 21.6228 2.20626 21.6373 2.20696 21.6522L2.21426 22.3294C2.18229 22.6825 2.39705 22.9544 2.74215 22.9924C2.75083 22.9931 2.79497 22.9969 2.82347 22.9969C3.40696 22.9976 3.9901 22.9969 4.5736 22.9962C6.12842 22.9955 7.73606 22.9945 9.31695 23C9.33815 23 9.359 23 9.3795 23C9.62729 23 9.83997 22.9896 9.98002 22.8463C10.0992 22.7239 10.1451 22.5287 10.1336 22.1926C10.1204 21.808 10.1239 21.4186 10.127 21.042C10.1281 20.9062 10.1295 20.7712 10.1298 20.6374C10.1743 20.6195 10.2184 20.6025 10.2619 20.586C10.4165 20.5265 10.5625 20.4706 10.6956 20.3825C11.5411 19.8248 11.605 19.0809 11.4414 18.1356C11.3274 17.4778 10.8662 17.0238 10.1427 16.858C10.1364 16.8566 10.1315 16.8552 10.1281 16.8542C10.1281 16.8511 10.1281 16.8473 10.1281 16.8428C10.1295 16.2371 10.1288 15.6211 10.1284 15.0254C10.1277 13.9239 10.127 12.7848 10.1368 11.6647C10.1434 10.9381 10.8673 10.2181 11.5984 10.2111C12.714 10.2004 13.849 10.2018 14.9465 10.2029C15.5029 10.2035 16.0593 10.2039 16.6153 10.2029C16.6219 10.2029 16.6282 10.2029 16.632 10.2035C16.6348 10.2098 16.6393 10.2201 16.6448 10.2367C16.8249 10.7812 17.1904 11.1558 17.7322 11.3503C18.1017 11.4829 18.4711 11.4626 18.828 11.4429L18.869 11.4404C19.5275 11.4045 20.1621 10.8908 20.3446 10.2453C20.3529 10.2156 20.3599 10.206 20.3592 10.2053C20.3613 10.2046 20.3724 10.2008 20.4012 10.2011C20.935 10.2056 21.4775 10.2049 22.0019 10.2042H22.3991C22.8068 10.2035 22.9969 10.0132 22.9969 9.60513C22.9969 8.09182 22.9969 6.57816 22.9969 5.06485C22.9969 5.02201 22.9941 4.98055 22.991 4.92768L22.9885 4.88622L22.9931 4.14857C23.0007 4.09709 23.001 4.05459 22.9941 4.01452L22.9948 4.01555ZM22.0012 4.28263L21.9988 5.49224C21.9943 6.3757 21.9943 7.27401 21.9943 8.14261C21.9943 8.46773 21.9943 8.79285 21.9943 9.11797C21.9943 9.14181 21.9929 9.16703 21.9911 9.1919H20.4547V3.3242H20.6417C21.1029 3.32385 21.539 3.32351 21.9831 3.32973C21.9859 3.33387 21.9884 3.33802 21.9901 3.34182L21.9915 3.37395C21.996 3.4852 22.0009 3.60026 22.0023 3.71047V3.83589C22.0009 3.92399 21.997 4.00139 21.9908 4.07291C21.9845 4.14373 21.988 4.21422 22.0012 4.28263ZM17.5689 7.17208C17.5689 5.72131 17.5689 4.27019 17.5692 2.81941C17.5692 2.53576 17.6499 2.17332 18.0318 2.05792C18.2327 1.99711 18.4693 2.00195 18.6984 2.00644L18.7251 2.00713C19.2474 2.01715 19.4393 2.49153 19.4375 2.78832C19.4327 3.60889 19.4337 4.44329 19.4344 5.25004C19.4348 5.57412 19.4351 5.89821 19.4351 6.22229C19.4351 6.55328 19.4341 6.88428 19.433 7.21527C19.4306 7.99853 19.4282 8.80839 19.4403 9.60547C19.4445 9.86184 19.3489 10.0995 19.179 10.2581C19.0222 10.4039 18.8176 10.4713 18.5861 10.453C18.5242 10.4482 18.4627 10.4475 18.4033 10.4471C18.3043 10.4464 18.2104 10.4457 18.1284 10.4243C17.775 10.3331 17.5772 10.0764 17.5717 9.70083C17.5665 9.33874 17.5675 8.97009 17.5682 8.61353C17.5682 8.47049 17.5689 8.32745 17.5689 8.18476V7.17243V7.17208ZM3.19601 21.8851L3.1974 21.6484L3.20401 21.6539V20.6734H4.05544L4.31921 20.672L9.11816 20.6647V21.9977C9.09488 21.9994 9.07229 22.0005 9.05075 22.0005C7.56682 22.0011 6.08324 22.0008 4.59931 22.0011H3.75935C3.71591 22.0011 3.67247 22.0005 3.62903 22.0001C3.52894 21.9991 3.42503 21.9977 3.32147 22.0029C3.28984 22.0043 3.23389 22.007 3.19566 22.0043V21.9859L3.21408 21.8944L3.19636 21.8854L3.19601 21.8851ZM16.5632 7.75495C16.5632 8.20998 16.5632 8.66535 16.5632 9.12038C16.5632 9.14768 16.5632 9.17912 16.5625 9.20365C16.5368 9.20469 16.5027 9.20469 16.4714 9.20469C16.003 9.20469 15.5348 9.20538 15.0664 9.20572C13.9734 9.20711 12.8433 9.20849 11.7319 9.20227C11.727 9.20227 11.7225 9.20227 11.7176 9.20227C10.6104 9.20227 9.6259 9.90192 9.26517 10.9471C9.17863 11.1976 9.13172 11.4933 9.12963 11.8018C9.11816 13.4382 9.12199 15.0796 9.12685 16.7578C9.12685 16.7868 9.12546 16.8041 9.12372 16.8144C9.11434 16.8158 9.0987 16.8179 9.07438 16.8175C7.13207 16.8127 5.17481 16.8127 3.25718 16.8175H3.25579C3.2325 16.8175 3.21791 16.8158 3.20922 16.8144C3.20748 16.8044 3.20574 16.7861 3.20574 16.754C3.20748 16.1162 3.20783 15.4677 3.20783 14.8406C3.20783 14.1945 3.20818 13.5263 3.21026 12.8701L3.2325 10.7384C3.2888 10.0056 3.43963 9.30005 3.68116 8.64151C4.15622 7.34484 4.92772 6.22436 5.97446 5.31189C6.65526 4.71831 7.41252 4.25119 8.22503 3.92296C9.07542 3.57953 9.83858 3.39848 10.5573 3.3698C11.0004 3.35218 11.4525 3.34735 11.8897 3.34251C12.1746 3.3394 12.4693 3.33629 12.7564 3.32973H13.6773C13.6881 3.33007 13.6996 3.33076 13.71 3.33042L14.2452 3.32973C14.9805 3.32869 15.7409 3.328 16.4888 3.32005C16.5302 3.31971 16.551 3.32247 16.5614 3.32454C16.5639 3.33422 16.5666 3.35357 16.5666 3.38881C16.5621 4.84442 16.5625 6.32421 16.5625 7.7553L16.5632 7.75495ZM10.4843 18.8311C10.4871 18.9856 10.4895 19.1186 10.4214 19.2437C10.2681 19.5242 10.0433 19.661 9.73363 19.6617C8.67438 19.6648 7.59775 19.6642 6.55587 19.6638C6.16108 19.6638 5.7663 19.6635 5.37151 19.6635C5.11504 19.6628 4.86169 19.6624 4.60661 19.6617C4.01165 19.6597 3.39619 19.6576 2.7908 19.6676C2.56595 19.6718 2.34006 19.575 2.18541 19.4102C2.08984 19.3083 1.98037 19.1352 2.00227 18.8892C2.00957 18.8083 2.00887 18.7278 2.00852 18.6501C2.00783 18.5292 2.00713 18.4148 2.03494 18.3146C2.11834 18.0109 2.39914 17.8143 2.74979 17.8136C3.25683 17.8129 3.76352 17.8126 4.27056 17.8126C4.60105 17.8126 4.93189 17.8126 5.26239 17.8126H6.25492C6.58923 17.8129 6.92494 17.8136 7.25995 17.8147C8.05717 17.8171 8.88185 17.8198 9.69297 17.8067C9.92477 17.8029 10.158 17.9004 10.3123 18.0676C10.4464 18.213 10.5097 18.3975 10.4902 18.5869C10.4815 18.6705 10.4829 18.752 10.4846 18.8308L10.4843 18.8311Z"/>
</mask>
<path d="M22.9948 4.01555L23 3.16837V2.88921L22.9976 2.89093C22.9917 2.50639 22.8085 2.32673 22.4217 2.32638C22.2709 2.32638 22.1201 2.32569 21.9696 2.325C21.4855 2.32327 20.9847 2.32154 20.4916 2.33087C20.3894 2.33294 20.3755 2.32223 20.3484 2.21789C20.2452 1.81987 20.0009 1.50304 19.6019 1.2491C19.1901 0.986512 18.7456 0.994804 18.3164 1.00275L18.233 1.00413C17.3767 1.01761 16.7411 1.68132 16.6212 2.31498C16.6205 2.31878 16.6198 2.32189 16.6191 2.32431C16.6024 2.32673 16.5719 2.32673 16.5503 2.32673C16.3898 2.32673 16.2292 2.32603 16.0683 2.32534C15.5091 2.32362 14.9319 2.32189 14.3623 2.32673L13.0817 2.32292L12.5587 2.31912L12.2692 2.32085C11.9481 2.32292 11.6162 2.325 11.2895 2.325C11.2853 2.325 11.2808 2.325 11.277 2.325C10.2546 2.325 9.26134 2.48911 8.32442 2.8132C7.00939 3.26788 5.84727 3.99137 4.87038 4.96327C4.19167 5.63873 3.62173 6.42096 3.17725 7.28852C2.81339 7.99819 2.54302 8.77177 2.37377 9.58716C2.29697 9.95685 2.24553 10.3476 2.22017 10.7494L2.20765 10.7519V11.0041C2.19966 11.2321 2.19966 11.4681 2.20765 11.7055V13.1075C2.20348 14.2729 2.20314 15.4842 2.20696 16.8096C2.20696 16.8626 2.18495 16.8971 2.14093 16.9132C1.55883 17.1254 1.18698 17.5258 1.065 18.071C0.990279 18.4051 0.997229 18.7627 1.00383 19.0785C1.01669 19.7257 1.52616 20.3773 2.16387 20.5614C2.19202 20.5694 2.20175 20.5763 2.20244 20.5763C2.20314 20.5784 2.20696 20.5898 2.20661 20.6219C2.20244 20.9062 2.20383 21.1947 2.20487 21.4736L2.20557 21.6083C2.20557 21.6228 2.20626 21.6373 2.20696 21.6522L2.21426 22.3294C2.18229 22.6825 2.39705 22.9544 2.74215 22.9924C2.75083 22.9931 2.79497 22.9969 2.82347 22.9969C3.40696 22.9976 3.9901 22.9969 4.5736 22.9962C6.12842 22.9955 7.73606 22.9945 9.31695 23C9.33815 23 9.359 23 9.3795 23C9.62729 23 9.83997 22.9896 9.98002 22.8463C10.0992 22.7239 10.1451 22.5287 10.1336 22.1926C10.1204 21.808 10.1239 21.4186 10.127 21.042C10.1281 20.9062 10.1295 20.7712 10.1298 20.6374C10.1743 20.6195 10.2184 20.6025 10.2619 20.586C10.4165 20.5265 10.5625 20.4706 10.6956 20.3825C11.5411 19.8248 11.605 19.0809 11.4414 18.1356C11.3274 17.4778 10.8662 17.0238 10.1427 16.858C10.1364 16.8566 10.1315 16.8552 10.1281 16.8542C10.1281 16.8511 10.1281 16.8473 10.1281 16.8428C10.1295 16.2371 10.1288 15.6211 10.1284 15.0254C10.1277 13.9239 10.127 12.7848 10.1368 11.6647C10.1434 10.9381 10.8673 10.2181 11.5984 10.2111C12.714 10.2004 13.849 10.2018 14.9465 10.2029C15.5029 10.2035 16.0593 10.2039 16.6153 10.2029C16.6219 10.2029 16.6282 10.2029 16.632 10.2035C16.6348 10.2098 16.6393 10.2201 16.6448 10.2367C16.8249 10.7812 17.1904 11.1558 17.7322 11.3503C18.1017 11.4829 18.4711 11.4626 18.828 11.4429L18.869 11.4404C19.5275 11.4045 20.1621 10.8908 20.3446 10.2453C20.3529 10.2156 20.3599 10.206 20.3592 10.2053C20.3613 10.2046 20.3724 10.2008 20.4012 10.2011C20.935 10.2056 21.4775 10.2049 22.0019 10.2042H22.3991C22.8068 10.2035 22.9969 10.0132 22.9969 9.60513C22.9969 8.09182 22.9969 6.57816 22.9969 5.06485C22.9969 5.02201 22.9941 4.98055 22.991 4.92768L22.9885 4.88622L22.9931 4.14857C23.0007 4.09709 23.001 4.05459 22.9941 4.01452L22.9948 4.01555ZM22.0012 4.28263L21.9988 5.49224C21.9943 6.3757 21.9943 7.27401 21.9943 8.14261C21.9943 8.46773 21.9943 8.79285 21.9943 9.11797C21.9943 9.14181 21.9929 9.16703 21.9911 9.1919H20.4547V3.3242H20.6417C21.1029 3.32385 21.539 3.32351 21.9831 3.32973C21.9859 3.33387 21.9884 3.33802 21.9901 3.34182L21.9915 3.37395C21.996 3.4852 22.0009 3.60026 22.0023 3.71047V3.83589C22.0009 3.92399 21.997 4.00139 21.9908 4.07291C21.9845 4.14373 21.988 4.21422 22.0012 4.28263ZM17.5689 7.17208C17.5689 5.72131 17.5689 4.27019 17.5692 2.81941C17.5692 2.53576 17.6499 2.17332 18.0318 2.05792C18.2327 1.99711 18.4693 2.00195 18.6984 2.00644L18.7251 2.00713C19.2474 2.01715 19.4393 2.49153 19.4375 2.78832C19.4327 3.60889 19.4337 4.44329 19.4344 5.25004C19.4348 5.57412 19.4351 5.89821 19.4351 6.22229C19.4351 6.55328 19.4341 6.88428 19.433 7.21527C19.4306 7.99853 19.4282 8.80839 19.4403 9.60547C19.4445 9.86184 19.3489 10.0995 19.179 10.2581C19.0222 10.4039 18.8176 10.4713 18.5861 10.453C18.5242 10.4482 18.4627 10.4475 18.4033 10.4471C18.3043 10.4464 18.2104 10.4457 18.1284 10.4243C17.775 10.3331 17.5772 10.0764 17.5717 9.70083C17.5665 9.33874 17.5675 8.97009 17.5682 8.61353C17.5682 8.47049 17.5689 8.32745 17.5689 8.18476V7.17243V7.17208ZM3.19601 21.8851L3.1974 21.6484L3.20401 21.6539V20.6734H4.05544L4.31921 20.672L9.11816 20.6647V21.9977C9.09488 21.9994 9.07229 22.0005 9.05075 22.0005C7.56682 22.0011 6.08324 22.0008 4.59931 22.0011H3.75935C3.71591 22.0011 3.67247 22.0005 3.62903 22.0001C3.52894 21.9991 3.42503 21.9977 3.32147 22.0029C3.28984 22.0043 3.23389 22.007 3.19566 22.0043V21.9859L3.21408 21.8944L3.19636 21.8854L3.19601 21.8851ZM16.5632 7.75495C16.5632 8.20998 16.5632 8.66535 16.5632 9.12038C16.5632 9.14768 16.5632 9.17912 16.5625 9.20365C16.5368 9.20469 16.5027 9.20469 16.4714 9.20469C16.003 9.20469 15.5348 9.20538 15.0664 9.20572C13.9734 9.20711 12.8433 9.20849 11.7319 9.20227C11.727 9.20227 11.7225 9.20227 11.7176 9.20227C10.6104 9.20227 9.6259 9.90192 9.26517 10.9471C9.17863 11.1976 9.13172 11.4933 9.12963 11.8018C9.11816 13.4382 9.12199 15.0796 9.12685 16.7578C9.12685 16.7868 9.12546 16.8041 9.12372 16.8144C9.11434 16.8158 9.0987 16.8179 9.07438 16.8175C7.13207 16.8127 5.17481 16.8127 3.25718 16.8175H3.25579C3.2325 16.8175 3.21791 16.8158 3.20922 16.8144C3.20748 16.8044 3.20574 16.7861 3.20574 16.754C3.20748 16.1162 3.20783 15.4677 3.20783 14.8406C3.20783 14.1945 3.20818 13.5263 3.21026 12.8701L3.2325 10.7384C3.2888 10.0056 3.43963 9.30005 3.68116 8.64151C4.15622 7.34484 4.92772 6.22436 5.97446 5.31189C6.65526 4.71831 7.41252 4.25119 8.22503 3.92296C9.07542 3.57953 9.83858 3.39848 10.5573 3.3698C11.0004 3.35218 11.4525 3.34735 11.8897 3.34251C12.1746 3.3394 12.4693 3.33629 12.7564 3.32973H13.6773C13.6881 3.33007 13.6996 3.33076 13.71 3.33042L14.2452 3.32973C14.9805 3.32869 15.7409 3.328 16.4888 3.32005C16.5302 3.31971 16.551 3.32247 16.5614 3.32454C16.5639 3.33422 16.5666 3.35357 16.5666 3.38881C16.5621 4.84442 16.5625 6.32421 16.5625 7.7553L16.5632 7.75495ZM10.4843 18.8311C10.4871 18.9856 10.4895 19.1186 10.4214 19.2437C10.2681 19.5242 10.0433 19.661 9.73363 19.6617C8.67438 19.6648 7.59775 19.6642 6.55587 19.6638C6.16108 19.6638 5.7663 19.6635 5.37151 19.6635C5.11504 19.6628 4.86169 19.6624 4.60661 19.6617C4.01165 19.6597 3.39619 19.6576 2.7908 19.6676C2.56595 19.6718 2.34006 19.575 2.18541 19.4102C2.08984 19.3083 1.98037 19.1352 2.00227 18.8892C2.00957 18.8083 2.00887 18.7278 2.00852 18.6501C2.00783 18.5292 2.00713 18.4148 2.03494 18.3146C2.11834 18.0109 2.39914 17.8143 2.74979 17.8136C3.25683 17.8129 3.76352 17.8126 4.27056 17.8126C4.60105 17.8126 4.93189 17.8126 5.26239 17.8126H6.25492C6.58923 17.8129 6.92494 17.8136 7.25995 17.8147C8.05717 17.8171 8.88185 17.8198 9.69297 17.8067C9.92477 17.8029 10.158 17.9004 10.3123 18.0676C10.4464 18.213 10.5097 18.3975 10.4902 18.5869C10.4815 18.6705 10.4829 18.752 10.4846 18.8308L10.4843 18.8311Z" fill="black"/>
<path d="M22.9948 4.01555L23 3.16837V2.88921L22.9976 2.89093C22.9917 2.50639 22.8085 2.32673 22.4217 2.32638C22.2709 2.32638 22.1201 2.32569 21.9696 2.325C21.4855 2.32327 20.9847 2.32154 20.4916 2.33087C20.3894 2.33294 20.3755 2.32223 20.3484 2.21789C20.2452 1.81987 20.0009 1.50304 19.6019 1.2491C19.1901 0.986512 18.7456 0.994804 18.3164 1.00275L18.233 1.00413C17.3767 1.01761 16.7411 1.68132 16.6212 2.31498C16.6205 2.31878 16.6198 2.32189 16.6191 2.32431C16.6024 2.32673 16.5719 2.32673 16.5503 2.32673C16.3898 2.32673 16.2292 2.32603 16.0683 2.32534C15.5091 2.32362 14.9319 2.32189 14.3623 2.32673L13.0817 2.32292L12.5587 2.31912L12.2692 2.32085C11.9481 2.32292 11.6162 2.325 11.2895 2.325C11.2853 2.325 11.2808 2.325 11.277 2.325C10.2546 2.325 9.26134 2.48911 8.32442 2.8132C7.00939 3.26788 5.84727 3.99137 4.87038 4.96327C4.19167 5.63873 3.62173 6.42096 3.17725 7.28852C2.81339 7.99819 2.54302 8.77177 2.37377 9.58716C2.29697 9.95685 2.24553 10.3476 2.22017 10.7494L2.20765 10.7519V11.0041C2.19966 11.2321 2.19966 11.4681 2.20765 11.7055V13.1075C2.20348 14.2729 2.20314 15.4842 2.20696 16.8096C2.20696 16.8626 2.18495 16.8971 2.14093 16.9132C1.55883 17.1254 1.18698 17.5258 1.065 18.071C0.990279 18.4051 0.997229 18.7627 1.00383 19.0785C1.01669 19.7257 1.52616 20.3773 2.16387 20.5614C2.19202 20.5694 2.20175 20.5763 2.20244 20.5763C2.20314 20.5784 2.20696 20.5898 2.20661 20.6219C2.20244 20.9062 2.20383 21.1947 2.20487 21.4736L2.20557 21.6083C2.20557 21.6228 2.20626 21.6373 2.20696 21.6522L2.21426 22.3294C2.18229 22.6825 2.39705 22.9544 2.74215 22.9924C2.75083 22.9931 2.79497 22.9969 2.82347 22.9969C3.40696 22.9976 3.9901 22.9969 4.5736 22.9962C6.12842 22.9955 7.73606 22.9945 9.31695 23C9.33815 23 9.359 23 9.3795 23C9.62729 23 9.83997 22.9896 9.98002 22.8463C10.0992 22.7239 10.1451 22.5287 10.1336 22.1926C10.1204 21.808 10.1239 21.4186 10.127 21.042C10.1281 20.9062 10.1295 20.7712 10.1298 20.6374C10.1743 20.6195 10.2184 20.6025 10.2619 20.586C10.4165 20.5265 10.5625 20.4706 10.6956 20.3825C11.5411 19.8248 11.605 19.0809 11.4414 18.1356C11.3274 17.4778 10.8662 17.0238 10.1427 16.858C10.1364 16.8566 10.1315 16.8552 10.1281 16.8542C10.1281 16.8511 10.1281 16.8473 10.1281 16.8428C10.1295 16.2371 10.1288 15.6211 10.1284 15.0254C10.1277 13.9239 10.127 12.7848 10.1368 11.6647C10.1434 10.9381 10.8673 10.2181 11.5984 10.2111C12.714 10.2004 13.849 10.2018 14.9465 10.2029C15.5029 10.2035 16.0593 10.2039 16.6153 10.2029C16.6219 10.2029 16.6282 10.2029 16.632 10.2035C16.6348 10.2098 16.6393 10.2201 16.6448 10.2367C16.8249 10.7812 17.1904 11.1558 17.7322 11.3503C18.1017 11.4829 18.4711 11.4626 18.828 11.4429L18.869 11.4404C19.5275 11.4045 20.1621 10.8908 20.3446 10.2453C20.3529 10.2156 20.3599 10.206 20.3592 10.2053C20.3613 10.2046 20.3724 10.2008 20.4012 10.2011C20.935 10.2056 21.4775 10.2049 22.0019 10.2042H22.3991C22.8068 10.2035 22.9969 10.0132 22.9969 9.60513C22.9969 8.09182 22.9969 6.57816 22.9969 5.06485C22.9969 5.02201 22.9941 4.98055 22.991 4.92768L22.9885 4.88622L22.9931 4.14857C23.0007 4.09709 23.001 4.05459 22.9941 4.01452L22.9948 4.01555ZM22.0012 4.28263L21.9988 5.49224C21.9943 6.3757 21.9943 7.27401 21.9943 8.14261C21.9943 8.46773 21.9943 8.79285 21.9943 9.11797C21.9943 9.14181 21.9929 9.16703 21.9911 9.1919H20.4547V3.3242H20.6417C21.1029 3.32385 21.539 3.32351 21.9831 3.32973C21.9859 3.33387 21.9884 3.33802 21.9901 3.34182L21.9915 3.37395C21.996 3.4852 22.0009 3.60026 22.0023 3.71047V3.83589C22.0009 3.92399 21.997 4.00139 21.9908 4.07291C21.9845 4.14373 21.988 4.21422 22.0012 4.28263ZM17.5689 7.17208C17.5689 5.72131 17.5689 4.27019 17.5692 2.81941C17.5692 2.53576 17.6499 2.17332 18.0318 2.05792C18.2327 1.99711 18.4693 2.00195 18.6984 2.00644L18.7251 2.00713C19.2474 2.01715 19.4393 2.49153 19.4375 2.78832C19.4327 3.60889 19.4337 4.44329 19.4344 5.25004C19.4348 5.57412 19.4351 5.89821 19.4351 6.22229C19.4351 6.55328 19.4341 6.88428 19.433 7.21527C19.4306 7.99853 19.4282 8.80839 19.4403 9.60547C19.4445 9.86184 19.3489 10.0995 19.179 10.2581C19.0222 10.4039 18.8176 10.4713 18.5861 10.453C18.5242 10.4482 18.4627 10.4475 18.4033 10.4471C18.3043 10.4464 18.2104 10.4457 18.1284 10.4243C17.775 10.3331 17.5772 10.0764 17.5717 9.70083C17.5665 9.33874 17.5675 8.97009 17.5682 8.61353C17.5682 8.47049 17.5689 8.32745 17.5689 8.18476V7.17243V7.17208ZM3.19601 21.8851L3.1974 21.6484L3.20401 21.6539V20.6734H4.05544L4.31921 20.672L9.11816 20.6647V21.9977C9.09488 21.9994 9.07229 22.0005 9.05075 22.0005C7.56682 22.0011 6.08324 22.0008 4.59931 22.0011H3.75935C3.71591 22.0011 3.67247 22.0005 3.62903 22.0001C3.52894 21.9991 3.42503 21.9977 3.32147 22.0029C3.28984 22.0043 3.23389 22.007 3.19566 22.0043V21.9859L3.21408 21.8944L3.19636 21.8854L3.19601 21.8851ZM16.5632 7.75495C16.5632 8.20998 16.5632 8.66535 16.5632 9.12038C16.5632 9.14768 16.5632 9.17912 16.5625 9.20365C16.5368 9.20469 16.5027 9.20469 16.4714 9.20469C16.003 9.20469 15.5348 9.20538 15.0664 9.20572C13.9734 9.20711 12.8433 9.20849 11.7319 9.20227C11.727 9.20227 11.7225 9.20227 11.7176 9.20227C10.6104 9.20227 9.6259 9.90192 9.26517 10.9471C9.17863 11.1976 9.13172 11.4933 9.12963 11.8018C9.11816 13.4382 9.12199 15.0796 9.12685 16.7578C9.12685 16.7868 9.12546 16.8041 9.12372 16.8144C9.11434 16.8158 9.0987 16.8179 9.07438 16.8175C7.13207 16.8127 5.17481 16.8127 3.25718 16.8175H3.25579C3.2325 16.8175 3.21791 16.8158 3.20922 16.8144C3.20748 16.8044 3.20574 16.7861 3.20574 16.754C3.20748 16.1162 3.20783 15.4677 3.20783 14.8406C3.20783 14.1945 3.20818 13.5263 3.21026 12.8701L3.2325 10.7384C3.2888 10.0056 3.43963 9.30005 3.68116 8.64151C4.15622 7.34484 4.92772 6.22436 5.97446 5.31189C6.65526 4.71831 7.41252 4.25119 8.22503 3.92296C9.07542 3.57953 9.83858 3.39848 10.5573 3.3698C11.0004 3.35218 11.4525 3.34735 11.8897 3.34251C12.1746 3.3394 12.4693 3.33629 12.7564 3.32973H13.6773C13.6881 3.33007 13.6996 3.33076 13.71 3.33042L14.2452 3.32973C14.9805 3.32869 15.7409 3.328 16.4888 3.32005C16.5302 3.31971 16.551 3.32247 16.5614 3.32454C16.5639 3.33422 16.5666 3.35357 16.5666 3.38881C16.5621 4.84442 16.5625 6.32421 16.5625 7.7553L16.5632 7.75495ZM10.4843 18.8311C10.4871 18.9856 10.4895 19.1186 10.4214 19.2437C10.2681 19.5242 10.0433 19.661 9.73363 19.6617C8.67438 19.6648 7.59775 19.6642 6.55587 19.6638C6.16108 19.6638 5.7663 19.6635 5.37151 19.6635C5.11504 19.6628 4.86169 19.6624 4.60661 19.6617C4.01165 19.6597 3.39619 19.6576 2.7908 19.6676C2.56595 19.6718 2.34006 19.575 2.18541 19.4102C2.08984 19.3083 1.98037 19.1352 2.00227 18.8892C2.00957 18.8083 2.00887 18.7278 2.00852 18.6501C2.00783 18.5292 2.00713 18.4148 2.03494 18.3146C2.11834 18.0109 2.39914 17.8143 2.74979 17.8136C3.25683 17.8129 3.76352 17.8126 4.27056 17.8126C4.60105 17.8126 4.93189 17.8126 5.26239 17.8126H6.25492C6.58923 17.8129 6.92494 17.8136 7.25995 17.8147C8.05717 17.8171 8.88185 17.8198 9.69297 17.8067C9.92477 17.8029 10.158 17.9004 10.3123 18.0676C10.4464 18.213 10.5097 18.3975 10.4902 18.5869C10.4815 18.6705 10.4829 18.752 10.4846 18.8308L10.4843 18.8311Z" stroke="black" stroke-width="0.2" mask="url(#path-1-outside-1_1326_7071)"/>
</svg>
