<svg width="24" height="24" viewBox="0 0 24 24" fill="none" xmlns="http://www.w3.org/2000/svg">
<g clip-path="url(#clip0_1326_6875)">
<path d="M1.50002 21H2.00002V11C2.00002 9.917 2.58202 8.975 3.44402 8.447L8.33902 1.266C8.77002 0.514 9.57202 0 10.5 0C11.878 0 13 1.122 13 2.5C13 2.575 12.984 2.646 12.978 2.72C12.98 2.722 12.982 2.722 12.984 2.724L16.261 6H19.074C20.276 6 21.406 6.468 22.256 7.318L23.571 8.633C24.142 9.204 24.142 10.132 23.571 10.703C23.001 11.273 22.071 11.273 21.501 10.703L19.944 9.146C19.851 9.053 19.722 9 19.59 9L16.999 8.936V11.591C16.999 11.722 17.052 11.851 17.145 11.945L18.702 13.502C19.273 14.073 19.273 15.001 18.702 15.572C18.417 15.857 18.042 16 17.667 16C17.292 16 16.917 15.857 16.632 15.572L15.317 14.257C14.467 13.407 13.999 12.278 13.999 11.075V8.262L11.368 5.63L7.96202 10.628C7.97802 10.752 8.00002 10.873 8.00002 11.001V21.001H8.50002C9.32702 21.001 10 21.674 10 22.501C10 23.328 9.32702 24.001 8.50002 24.001H1.50002C0.673018 24.001 1.71661e-05 23.328 1.71661e-05 22.501C1.71661e-05 21.674 0.673018 21 1.50002 21ZM3.00002 11C3.00002 12.103 3.89702 13 5.00002 13C6.10302 13 7.00002 12.103 7.00002 11C7.00002 9.897 6.10302 9 5.00002 9C3.89702 9 3.00002 9.897 3.00002 11ZM3.00002 13.22V21H7.00002V13.22C6.46802 13.7 5.77102 14 5.00002 14C4.22902 14 3.53202 13.699 3.00002 13.22ZM15 11.074C15 12.009 15.364 12.887 16.025 13.549L17.34 14.864C17.521 15.044 17.815 15.045 17.996 14.864C18.083 14.776 18.132 14.66 18.132 14.536C18.132 14.412 18.084 14.296 17.996 14.208L16.439 12.651C16.156 12.368 16 11.991 16 11.59V8.935C16 8.419 16.42 7.999 16.936 7.999H19.591C19.991 7.999 20.368 8.155 20.652 8.438L22.209 9.995C22.386 10.169 22.69 10.169 22.865 9.995C23.046 9.814 23.046 9.52 22.865 9.339L21.55 8.024C20.889 7.363 20.01 6.999 19.075 6.999H16.262L15.001 8.26V11.073L15 11.074ZM14.5 7.346L15.347 6.499L12.633 3.785C12.575 3.88 11.942 4.787 11.942 4.787L14.5 7.346ZM12 2.499C12 1.671 11.328 0.999 10.5 0.999C9.67202 0.999 9.00002 1.671 9.00002 2.499C9.00002 3.327 9.67202 3.999 10.5 3.999C11.328 3.999 12 3.327 12 2.499ZM10.594 4.99C10.562 4.991 10.532 4.999 10.5 4.999C9.41002 4.999 8.49102 4.294 8.14902 3.319L4.95602 8.003C4.97102 8.003 4.98502 7.999 4.99902 7.999C6.08402 7.999 7.02702 8.583 7.55402 9.448L10.594 4.99ZM1.50002 22.999H8.50002C8.77602 22.999 9.00002 22.775 9.00002 22.499C9.00002 22.223 8.77602 21.999 8.50002 21.999H1.50002C1.22402 21.999 1.00002 22.223 1.00002 22.499C1.00002 22.775 1.22402 22.999 1.50002 22.999Z" fill="black"/>
</g>
<defs>
<clipPath id="clip0_1326_6875">
<rect width="24" height="24" fill="white" transform="matrix(-1 0 0 1 24 0)"/>
</clipPath>
</defs>
</svg>
