<svg width="21" height="24" viewBox="0 0 21 24" fill="none" xmlns="http://www.w3.org/2000/svg">
<g clip-path="url(#clip0_1326_7052)">
<path d="M10.312 0.00417655C13.1134 0.00417655 15.9128 -0.00648254 18.7143 0.00844018C20.1622 0.0148356 21.0415 1.48153 20.307 2.69879C20.1014 3.04202 19.7111 3.3021 19.3522 3.50888C19.1319 3.63466 19.006 3.71141 19.006 3.98641C19.0144 5.9285 19.0018 7.87271 19.0249 9.8148C19.0249 9.97255 19.2074 10.2028 19.3606 10.2753C20.1287 10.6313 20.5463 11.2026 20.5484 11.9914C20.5484 12.8057 20.135 13.3707 19.3291 13.7373C19.1885 13.8013 19.027 14.0209 19.0249 14.1701C19.0039 16.1122 19.0123 18.0564 19.006 19.9985C19.006 20.2607 19.0857 20.3822 19.3459 20.4803C20.263 20.8278 20.6953 21.6379 20.5148 22.5844C20.3574 23.4073 19.6334 24.002 18.7332 24.002C13.1155 24.0063 7.49789 24.002 1.88026 24.002C1.10382 24.002 0.509946 23.6673 0.18678 22.9617C-0.123796 22.2838 -0.0524471 21.5974 0.44909 21.0175C0.623264 20.815 0.856196 20.6082 1.10172 20.5378C1.52981 20.4163 1.57598 20.1605 1.57178 19.7768C1.55499 17.9392 1.56129 16.0994 1.56758 14.2596C1.56758 13.9697 1.52141 13.8098 1.20035 13.699C0.438598 13.4346 0.0209998 12.7738 0.0230982 11.985C0.0230982 11.2239 0.432302 10.5801 1.17517 10.3094C1.50043 10.19 1.57178 10.0258 1.56968 9.70821C1.55709 7.83434 1.55709 5.96047 1.56968 4.08874C1.57178 3.76683 1.49413 3.60908 1.16887 3.4897C0.323181 3.18485 -0.119599 2.32999 0.04828 1.44955C0.209863 0.601085 0.90656 0.010572 1.80891 0.00844018C4.64186 -8.70881e-05 7.47691 0.00417655 10.312 0.00417655ZM17.9861 3.6709H2.60004V10.1388C2.69657 10.158 2.76162 10.1836 2.82667 10.1836C4.39634 10.1857 5.9681 10.1985 7.53777 10.1729C7.71404 10.1708 7.93228 10.0045 8.05609 9.85104C8.62688 9.13901 9.1557 8.39288 9.72648 7.68085C10.1546 7.14576 10.4106 7.14576 10.8303 7.66806C11.4011 8.38009 11.9278 9.12835 12.5112 9.82972C12.6602 10.0088 12.9435 10.1665 13.168 10.1729C14.4124 10.2049 15.661 10.1879 16.9054 10.1879C17.2579 10.1879 17.6105 10.1879 17.984 10.1879V3.66877L17.9861 3.6709ZM2.58954 20.346H17.9651V13.8503C17.8056 13.8397 17.6881 13.8226 17.5706 13.8226C16.4102 13.8226 15.2497 13.812 14.0892 13.8375C13.9654 13.8397 13.7849 14.0187 13.7325 14.1552C13.1176 15.7583 11.8963 16.6729 10.3287 16.6771C8.69613 16.6835 7.47061 15.8073 6.87884 14.1786C6.77602 13.8972 6.63752 13.812 6.36052 13.8162C5.47286 13.829 4.5852 13.8205 3.69754 13.8205C3.33031 13.8205 2.96517 13.8205 2.58744 13.8205V20.3438L2.58954 20.346ZM10.3329 21.3842C7.63639 21.3842 4.93984 21.3842 2.24119 21.3842C2.07122 21.3842 1.89704 21.3799 1.73126 21.4055C1.30527 21.4716 1.05765 21.7253 1.03457 22.1687C1.01358 22.5908 1.29478 22.9063 1.74595 22.9724C1.89704 22.9937 2.05233 22.9916 2.20552 22.9916C7.61751 22.9916 13.0274 22.9916 18.4394 22.9916C18.6094 22.9916 18.7856 22.9937 18.9472 22.9532C19.3186 22.8573 19.5369 22.6036 19.5432 22.2092C19.5516 21.7892 19.327 21.5206 18.9325 21.4225C18.7542 21.3778 18.5611 21.3863 18.3722 21.3863C15.6925 21.3863 13.0127 21.3863 10.3329 21.3863V21.3842ZM10.2721 1.02105C7.50629 1.02105 4.74259 1.02105 1.97679 1.02105C1.37242 1.02105 1.03667 1.30672 1.03247 1.79917C1.02617 2.28735 1.37242 2.59007 1.9579 2.60926C2.02715 2.61139 2.0943 2.60926 2.16355 2.60926C7.59023 2.60926 13.019 2.60926 18.4457 2.60926C18.6157 2.60926 18.7898 2.60926 18.9535 2.56662C19.3501 2.46003 19.5621 2.18076 19.5432 1.76506C19.5243 1.34509 19.2788 1.10206 18.8759 1.03171C18.7437 1.00826 18.6031 1.02105 18.4667 1.02105C15.7365 1.02105 13.0043 1.02105 10.2742 1.02105H10.2721ZM10.2805 8.61672C9.33826 9.82759 8.43172 10.9511 7.89031 12.3197C7.80217 12.5414 7.72873 12.7823 7.71404 13.0189C7.65948 13.9868 8.29742 14.9845 9.22495 15.4193C10.1756 15.8649 11.292 15.6688 12.0684 14.9205C12.8217 14.1914 13.0568 13.1852 12.6476 12.2152C12.0915 10.8978 11.2269 9.78495 10.2805 8.61885V8.61672ZM13.3946 11.2431C13.5457 11.6844 13.701 12.0532 13.7912 12.4369C13.8626 12.7354 14.0053 12.8121 14.2886 12.81C15.703 12.7972 17.1194 12.8079 18.5338 12.8036C19.1655 12.8036 19.5327 12.5115 19.5474 12.0234C19.5621 11.5139 19.1906 11.209 18.5296 11.2069C16.9432 11.2026 15.3588 11.2047 13.7724 11.2069C13.6569 11.2069 13.5436 11.2282 13.3946 11.2452V11.2431ZM7.16004 11.2666C7.10968 11.2495 7.06351 11.2175 7.01734 11.2175C5.2777 11.2154 3.53806 11.2047 1.80051 11.2197C1.31996 11.2239 1.02407 11.5672 1.02827 12.0127C1.03457 12.4561 1.36403 12.7929 1.87606 12.7993C3.37647 12.8143 4.87689 12.8079 6.3773 12.7951C6.49482 12.7951 6.67739 12.6906 6.71726 12.5904C6.88724 12.1619 7.01524 11.7164 7.16004 11.2687V11.2666Z" fill="black"/>
</g>
<defs>
<clipPath id="clip0_1326_7052">
<rect width="20.5714" height="24" fill="white"/>
</clipPath>
</defs>
</svg>
