<svg width="20" height="20" viewBox="0 0 20 20" fill="none" xmlns="http://www.w3.org/2000/svg">
<path fill-rule="evenodd" clip-rule="evenodd" d="M3.93141 2.57691C4.95323 1.50113 6.64341 1.70268 7.48807 2.89733L8.5389 4.38357C9.21451 5.33913 9.15744 6.6676 8.35113 7.5165L8.14708 7.73132C8.14651 7.7328 8.14592 7.73441 8.1453 7.73615C8.13452 7.76645 8.10725 7.86293 8.13408 8.04606C8.18971 8.42568 8.48275 9.19708 9.67246 10.4496C10.8659 11.7061 11.5898 12.0022 11.9253 12.0567C12.07 12.0802 12.1457 12.0598 12.1698 12.0513L12.5103 11.6928C13.2385 10.9262 14.3738 10.7752 15.2892 11.3021L16.8813 12.2184C18.242 13.0017 18.5587 14.9177 17.4713 16.0626L16.2875 17.3089C15.918 17.6979 15.4142 18.0299 14.7917 18.0914C13.2718 18.2414 9.75082 18.046 6.05967 14.1599C2.61537 10.5337 1.96105 7.3796 1.87834 5.83858L2.43342 5.80879L1.87834 5.83858C1.83747 5.07719 2.17687 4.42411 2.62341 3.95399L3.93141 2.57691ZM6.46742 3.61897C6.04046 3.0151 5.27343 2.97907 4.83774 3.43777L3.52974 4.81485C3.25358 5.10559 3.10868 5.43884 3.12654 5.77159C3.19407 7.02977 3.73589 9.89834 6.96599 13.299C10.3528 16.8647 13.473 16.9654 14.6689 16.8474C14.9053 16.8241 15.1486 16.6929 15.3811 16.448L16.5649 15.2017C17.0756 14.6641 16.9417 13.6955 16.2577 13.3018L14.6656 12.3854C14.2384 12.1395 13.7379 12.2155 13.4167 12.5537L13.0371 12.9532L12.5978 12.536C13.0371 12.9532 13.0365 12.9539 13.036 12.9545L13.0348 12.9557L13.0323 12.9582L13.027 12.9636L13.0151 12.9754C13.0065 12.9837 12.9966 12.9929 12.9854 13.0027C12.963 13.0223 12.9353 13.0447 12.902 13.0683C12.8352 13.1157 12.7463 13.1678 12.6338 13.2121C12.4038 13.3028 12.1001 13.3515 11.7249 13.2906C10.9936 13.1718 10.0352 12.6466 8.76614 11.3105C7.49335 9.97048 7.00622 8.9707 6.89729 8.22728C6.84185 7.84889 6.88622 7.54589 6.96764 7.31708C7.00768 7.20456 7.05495 7.11484 7.09855 7.04671C7.12029 7.01273 7.14101 6.98429 7.15933 6.96114C7.16849 6.94957 7.17705 6.93931 7.18485 6.93035L7.19595 6.91786L7.20104 6.91233L7.20346 6.90974L7.20463 6.90849C7.20521 6.90788 7.20578 6.90728 7.64884 7.3281L7.20579 6.90727L7.4448 6.65564C7.81608 6.26475 7.87003 5.60276 7.51824 5.10521L6.46742 3.61897Z" fill="white"/>
<path d="M11.0495 1.56685C11.1047 1.22611 11.4268 0.994965 11.7676 1.05013C11.7886 1.05417 11.8565 1.06685 11.8921 1.07477C11.9632 1.09061 12.0624 1.11499 12.186 1.15101C12.4333 1.22304 12.7789 1.34171 13.1935 1.53183C14.0238 1.91246 15.1286 2.57829 16.2751 3.72479C17.4216 4.87129 18.0874 5.97614 18.4681 6.80637C18.6582 7.22105 18.7769 7.56655 18.8489 7.81387C18.8849 7.93754 18.9093 8.03673 18.9251 8.10784C18.9331 8.14339 18.9388 8.17194 18.9429 8.19304L18.9477 8.21903C19.0028 8.55977 18.7738 8.8952 18.4331 8.95037C18.0933 9.00538 17.7732 8.77535 17.7167 8.4362C17.7149 8.4271 17.7102 8.40263 17.705 8.37956C17.6947 8.33341 17.677 8.26022 17.6488 8.16343C17.5924 7.96982 17.4944 7.68204 17.3318 7.32731C17.0069 6.61872 16.4228 5.64023 15.3912 4.60868C14.3597 3.57713 13.3812 2.99296 12.6726 2.6681C12.3179 2.50547 12.0301 2.40753 11.8365 2.35114C11.7397 2.32294 11.618 2.29502 11.5719 2.28474C11.2327 2.22822 10.9945 1.90662 11.0495 1.56685Z" fill="white"/>
<path fill-rule="evenodd" clip-rule="evenodd" d="M11.2384 4.44125C11.3333 4.10936 11.6792 3.91717 12.0111 4.012L11.8394 4.61295C12.0111 4.012 12.0114 4.01209 12.0117 4.01217L12.0123 4.01235L12.0136 4.01271L12.0164 4.01353L12.0228 4.01545L12.0393 4.02059C12.0519 4.02461 12.0676 4.02984 12.0863 4.03648C12.1237 4.04976 12.1732 4.06865 12.2338 4.09465C12.3552 4.14668 12.5211 4.22703 12.7249 4.34762C13.1328 4.58903 13.6896 4.99001 14.3437 5.64415C14.9979 6.29829 15.3989 6.85512 15.6403 7.263C15.7608 7.46676 15.8412 7.63265 15.8932 7.75405C15.9192 7.81473 15.9381 7.86419 15.9514 7.90162C15.958 7.92033 15.9633 7.93602 15.9673 7.94858L15.9724 7.96507L15.9744 7.97153L15.9752 7.97431L15.9755 7.97559L15.9757 7.9762C15.9758 7.97649 15.9759 7.97679 15.3749 8.14849L15.9759 7.97679C16.0707 8.30868 15.8785 8.65461 15.5466 8.74944C15.2175 8.84346 14.8747 8.65533 14.7764 8.32861L14.7734 8.31963C14.7689 8.30711 14.7597 8.28245 14.7443 8.24645C14.7135 8.17451 14.6575 8.05681 14.5645 7.89965C14.3787 7.5857 14.0431 7.11133 13.4598 6.52803C12.8766 5.94474 12.4022 5.60915 12.0882 5.42334C11.9311 5.33033 11.8134 5.27442 11.7414 5.24358C11.7054 5.22815 11.6808 5.21896 11.6683 5.21452L11.6593 5.21144C11.3326 5.1132 11.1444 4.77033 11.2384 4.44125Z" fill="white"/>
</svg>
